<svg xmlns="http://www.w3.org/2000/svg" width="700" height="440" viewBox="0 0 700 440" style="font-family: monospace; image-rendering: pixelated;">
  <rect width="700" height="440" fill="#1a1a1a"/>
  <text x="16" y="24" fill="#f0f0f0" font-size="13" font-weight="bold">PixelRealm — Biome Palette Sheet</text>
  <text x="16" y="38" fill="#6e6e6e" font-size="9">Each biome uses a restricted subset of the master palette. Headers show the biome sky/ambient tint.</text>

  <!-- FOREST -->
  <rect x="16" y="52" width="90" height="16" fill="#2a7ac0"/>
  <text x="61" y="63" fill="#f0f0f0" font-size="8" text-anchor="middle" font-weight="bold">FOREST</text>
  <rect x="16" y="68" width="18" height="18" fill="#1a3a1a"/>
  <rect x="36" y="68" width="18" height="18" fill="#2d6e2d"/>
  <rect x="56" y="68" width="18" height="18" fill="#4c9b4c"/>
  <rect x="76" y="68" width="18" height="18" fill="#78c878"/>
  <rect x="16" y="88" width="18" height="18" fill="#3b2010"/>
  <rect x="36" y="88" width="18" height="18" fill="#6b3a1f"/>
  <rect x="56" y="88" width="18" height="18" fill="#8b5c2a"/>
  <rect x="76" y="88" width="18" height="18" fill="#2a7ac0"/>

  <!-- DESERT -->
  <rect x="120" y="52" width="90" height="16" fill="#ffe040"/>
  <text x="165" y="63" fill="#0d0d0d" font-size="8" text-anchor="middle" font-weight="bold">DESERT</text>
  <rect x="120" y="68" width="18" height="18" fill="#3b2010"/>
  <rect x="140" y="68" width="18" height="18" fill="#8b5c2a"/>
  <rect x="160" y="68" width="18" height="18" fill="#b8843f"/>
  <rect x="180" y="68" width="18" height="18" fill="#d4a85a"/>
  <rect x="120" y="88" width="18" height="18" fill="#e8d08a"/>
  <rect x="140" y="88" width="18" height="18" fill="#a87000"/>
  <rect x="160" y="88" width="18" height="18" fill="#6e6e6e"/>
  <rect x="180" y="88" width="18" height="18" fill="#ffe040"/>

  <!-- ICE / TUNDRA -->
  <rect x="224" y="52" width="90" height="16" fill="#1a4a8a"/>
  <text x="269" y="63" fill="#f0f0f0" font-size="8" text-anchor="middle" font-weight="bold">ICE/TUNDRA</text>
  <rect x="224" y="68" width="18" height="18" fill="#0a1a3a"/>
  <rect x="244" y="68" width="18" height="18" fill="#1a4a8a"/>
  <rect x="264" y="68" width="18" height="18" fill="#2a7ac0"/>
  <rect x="284" y="68" width="18" height="18" fill="#90d0f8"/>
  <rect x="224" y="88" width="18" height="18" fill="#c8f0ff"/>
  <rect x="244" y="88" width="18" height="18" fill="#4a4a4a"/>
  <rect x="264" y="88" width="18" height="18" fill="#969696"/>
  <rect x="284" y="88" width="18" height="18" fill="#f0f0f0"/>

  <!-- VOLCANIC -->
  <rect x="328" y="52" width="90" height="16" fill="#5a0a0a"/>
  <text x="373" y="63" fill="#f0f0f0" font-size="8" text-anchor="middle" font-weight="bold">VOLCANIC</text>
  <rect x="328" y="68" width="18" height="18" fill="#0d0d0d"/>
  <rect x="348" y="68" width="18" height="18" fill="#2b2b2b"/>
  <rect x="368" y="68" width="18" height="18" fill="#5a0a0a"/>
  <rect x="388" y="68" width="18" height="18" fill="#a01010"/>
  <rect x="328" y="88" width="18" height="18" fill="#d42020"/>
  <rect x="348" y="88" width="18" height="18" fill="#f06020"/>
  <rect x="368" y="88" width="18" height="18" fill="#f8a060"/>
  <rect x="388" y="88" width="18" height="18" fill="#ffe040"/>

  <!-- OCEAN / CORAL -->
  <rect x="432" y="52" width="90" height="16" fill="#0a1a3a"/>
  <text x="477" y="63" fill="#f0f0f0" font-size="8" text-anchor="middle" font-weight="bold">OCEAN</text>
  <rect x="432" y="68" width="18" height="18" fill="#0a1a3a"/>
  <rect x="452" y="68" width="18" height="18" fill="#1a4a8a"/>
  <rect x="472" y="68" width="18" height="18" fill="#2a7ac0"/>
  <rect x="492" y="68" width="18" height="18" fill="#50a8e8"/>
  <rect x="432" y="88" width="18" height="18" fill="#90d0f8"/>
  <rect x="452" y="88" width="18" height="18" fill="#78c878"/>
  <rect x="472" y="88" width="18" height="18" fill="#4c9b4c"/>
  <rect x="492" y="88" width="18" height="18" fill="#c8f0ff"/>

  <!-- DUNGEON -->
  <rect x="536" y="52" width="90" height="16" fill="#0d0d0d"/>
  <text x="581" y="63" fill="#9050e0" font-size="8" text-anchor="middle" font-weight="bold">DUNGEON</text>
  <rect x="536" y="68" width="18" height="18" fill="#0d0d0d"/>
  <rect x="556" y="68" width="18" height="18" fill="#2b2b2b"/>
  <rect x="576" y="68" width="18" height="18" fill="#4a4a4a"/>
  <rect x="596" y="68" width="18" height="18" fill="#6e6e6e"/>
  <rect x="536" y="88" width="18" height="18" fill="#1a0a3a"/>
  <rect x="556" y="88" width="18" height="18" fill="#5a20a0"/>
  <rect x="576" y="88" width="18" height="18" fill="#9050e0"/>
  <rect x="596" y="88" width="18" height="18" fill="#d090ff"/>

  <!-- TOWN / PLAINS -->
  <rect x="16" y="126" width="90" height="16" fill="#2a7ac0"/>
  <text x="61" y="137" fill="#f0f0f0" font-size="8" text-anchor="middle" font-weight="bold">TOWN/PLAINS</text>
  <rect x="16" y="142" width="18" height="18" fill="#4c9b4c"/>
  <rect x="36" y="142" width="18" height="18" fill="#78c878"/>
  <rect x="56" y="142" width="18" height="18" fill="#8b5c2a"/>
  <rect x="76" y="142" width="18" height="18" fill="#b8843f"/>
  <rect x="16" y="162" width="18" height="18" fill="#c8c8c8"/>
  <rect x="36" y="162" width="18" height="18" fill="#6e6e6e"/>
  <rect x="56" y="162" width="18" height="18" fill="#f0f0f0"/>
  <rect x="76" y="162" width="18" height="18" fill="#e8b800"/>

  <!-- Biome tile previews - simplified pixel art tiles -->
  <text x="16" y="210" fill="#6e6e6e" font-size="9">Biome tile previews (16×16 at ×4 scale):</text>

  <!-- Forest tile preview -->
  <rect x="16" y="220" width="64" height="64" fill="#4c9b4c"/>
  <rect x="18" y="222" width="8" height="8" fill="#78c878"/>
  <rect x="32" y="228" width="8" height="8" fill="#2d6e2d"/>
  <rect x="48" y="222" width="8" height="8" fill="#78c878"/>
  <rect x="24" y="242" width="8" height="8" fill="#78c878"/>
  <rect x="56" y="238" width="8" height="8" fill="#2d6e2d"/>
  <rect x="36" y="256" width="8" height="8" fill="#78c878"/>
  <rect x="20" y="264" width="8" height="8" fill="#2d6e2d"/>
  <rect x="52" y="260" width="8" height="8" fill="#78c878"/>
  <text x="48" y="298" fill="#4c9b4c" font-size="7" text-anchor="middle">forest</text>

  <!-- Desert tile preview -->
  <rect x="96" y="220" width="64" height="64" fill="#b8843f"/>
  <rect x="100" y="226" width="6" height="4" fill="#d4a85a"/>
  <rect x="118" y="236" width="6" height="4" fill="#e8d08a"/>
  <rect x="108" y="252" width="6" height="4" fill="#d4a85a"/>
  <rect x="136" y="244" width="6" height="4" fill="#d4a85a"/>
  <rect x="116" y="264" width="6" height="4" fill="#e8d08a"/>
  <text x="128" y="298" fill="#d4a85a" font-size="7" text-anchor="middle">desert</text>

  <!-- Ice tile preview -->
  <rect x="176" y="220" width="64" height="64" fill="#90d0f8"/>
  <rect x="178" y="222" width="60" height="60" fill="#c8f0ff" opacity="0.4"/>
  <rect x="190" y="228" width="20" height="4" fill="#f0f0f0" opacity="0.8"/>
  <rect x="210" y="244" width="24" height="4" fill="#f0f0f0" opacity="0.6"/>
  <rect x="184" y="260" width="16" height="4" fill="#f0f0f0" opacity="0.7"/>
  <rect x="218" y="260" width="16" height="4" fill="#f0f0f0" opacity="0.5"/>
  <text x="208" y="298" fill="#90d0f8" font-size="7" text-anchor="middle">ice</text>

  <!-- Volcanic tile preview -->
  <rect x="256" y="220" width="64" height="64" fill="#2b2b2b"/>
  <rect x="270" y="256" width="20" height="12" fill="#d42020" rx="4"/>
  <rect x="286" y="242" width="24" height="16" fill="#f06020" rx="4"/>
  <rect x="260" y="264" width="12" height="8" fill="#d42020" rx="3"/>
  <rect x="294" y="260" width="20" height="12" fill="#ffe040" rx="3"/>
  <text x="288" y="298" fill="#d42020" font-size="7" text-anchor="middle">volcanic</text>

  <!-- Ocean tile preview -->
  <rect x="336" y="220" width="64" height="64" fill="#1a4a8a"/>
  <rect x="336" y="232" width="64" height="8" fill="#2a7ac0" opacity="0.7"/>
  <rect x="336" y="252" width="64" height="6" fill="#2a7ac0" opacity="0.5"/>
  <rect x="336" y="270" width="64" height="8" fill="#2a7ac0" opacity="0.7"/>
  <text x="368" y="298" fill="#50a8e8" font-size="7" text-anchor="middle">ocean</text>

  <!-- Dungeon tile preview -->
  <rect x="416" y="220" width="64" height="64" fill="#2b2b2b"/>
  <rect x="418" y="222" width="60" height="14" fill="#4a4a4a"/>
  <rect x="418" y="248" width="60" height="14" fill="#4a4a4a"/>
  <rect x="418" y="274" width="60" height="8" fill="#4a4a4a"/>
  <rect x="418" y="222" width="14" height="60" fill="#4a4a4a"/>
  <rect x="446" y="222" width="14" height="60" fill="#4a4a4a"/>
  <rect x="438" y="238" width="4" height="4" fill="#d090ff" opacity="0.6"/>
  <text x="448" y="298" fill="#9050e0" font-size="7" text-anchor="middle">dungeon</text>

  <!-- Town tile preview -->
  <rect x="496" y="220" width="64" height="64" fill="#78c878"/>
  <rect x="498" y="272" width="60" height="10" fill="#c8c8c8"/>
  <rect x="512" y="260" width="12" height="12" fill="#6e6e6e"/>
  <rect x="540" y="256" width="14" height="16" fill="#6e6e6e"/>
  <rect x="500" y="222" width="8" height="8" fill="#4c9b4c"/>
  <rect x="542" y="230" width="8" height="8" fill="#2d6e2d"/>
  <rect x="520" y="238" width="8" height="8" fill="#4c9b4c"/>
  <text x="528" y="298" fill="#78c878" font-size="7" text-anchor="middle">town</text>

  <text x="16" y="324" fill="#4a4a4a" font-size="9">Day/Night: Apply #1a4a8a overlay at 35% opacity for night, #d4a85a at 20% opacity for dusk.</text>
  <text x="16" y="338" fill="#4a4a4a" font-size="9">No separate night-time tileset needed — Phaser camera tint handles ambient shifts.</text>

  <text x="16" y="360" fill="#2b2b2b" font-size="9">PixelRealm v1.0 — Biome Palette Sheet</text>
</svg>
