<svg xmlns="http://www.w3.org/2000/svg" width="720" height="560" viewBox="0 0 720 560" style="font-family: monospace; image-rendering: pixelated;">
  <rect width="720" height="560" fill="#1a1a1a"/>
  <text x="16" y="24" fill="#f0f0f0" font-size="14" font-weight="bold">PixelRealm — Master Palette (32 colors)</text>

  <!-- NEUTRALS -->
  <text x="16" y="52" fill="#969696" font-size="10">NEUTRALS</text>
  <rect x="16"  y="58" width="24" height="24" fill="#0d0d0d"/><text x="16"  y="96" fill="#969696" font-size="8">#0d0d0d</text>
  <rect x="48"  y="58" width="24" height="24" fill="#2b2b2b"/><text x="48"  y="96" fill="#969696" font-size="8">#2b2b2b</text>
  <rect x="80"  y="58" width="24" height="24" fill="#4a4a4a"/><text x="80"  y="96" fill="#969696" font-size="8">#4a4a4a</text>
  <rect x="112" y="58" width="24" height="24" fill="#6e6e6e"/><text x="112" y="96" fill="#969696" font-size="8">#6e6e6e</text>
  <rect x="144" y="58" width="24" height="24" fill="#969696"/><text x="144" y="96" fill="#969696" font-size="8">#969696</text>
  <rect x="176" y="58" width="24" height="24" fill="#c8c8c8"/><text x="176" y="96" fill="#969696" font-size="8">#c8c8c8</text>
  <rect x="208" y="58" width="24" height="24" fill="#f0f0f0"/><text x="208" y="96" fill="#969696" font-size="8">#f0f0f0</text>

  <!-- WARM EARTH -->
  <text x="16" y="116" fill="#b8843f" font-size="10">WARM EARTH</text>
  <rect x="16"  y="122" width="24" height="24" fill="#3b2010"/><text x="16"  y="160" fill="#969696" font-size="8">#3b2010</text>
  <rect x="48"  y="122" width="24" height="24" fill="#6b3a1f"/><text x="48"  y="160" fill="#969696" font-size="8">#6b3a1f</text>
  <rect x="80"  y="122" width="24" height="24" fill="#8b5c2a"/><text x="80"  y="160" fill="#969696" font-size="8">#8b5c2a</text>
  <rect x="112" y="122" width="24" height="24" fill="#b8843f"/><text x="112" y="160" fill="#969696" font-size="8">#b8843f</text>
  <rect x="144" y="122" width="24" height="24" fill="#d4a85a"/><text x="144" y="160" fill="#969696" font-size="8">#d4a85a</text>
  <rect x="176" y="122" width="24" height="24" fill="#e8d08a"/><text x="176" y="160" fill="#969696" font-size="8">#e8d08a</text>

  <!-- GREENS -->
  <text x="16" y="180" fill="#4c9b4c" font-size="10">GREENS (nature)</text>
  <rect x="16"  y="186" width="24" height="24" fill="#1a3a1a"/><text x="16"  y="224" fill="#969696" font-size="8">#1a3a1a</text>
  <rect x="48"  y="186" width="24" height="24" fill="#2d6e2d"/><text x="48"  y="224" fill="#969696" font-size="8">#2d6e2d</text>
  <rect x="80"  y="186" width="24" height="24" fill="#4c9b4c"/><text x="80"  y="224" fill="#969696" font-size="8">#4c9b4c</text>
  <rect x="112" y="186" width="24" height="24" fill="#78c878"/><text x="112" y="224" fill="#969696" font-size="8">#78c878</text>
  <rect x="144" y="186" width="24" height="24" fill="#a8e4a0"/><text x="144" y="224" fill="#969696" font-size="8">#a8e4a0</text>

  <!-- CYAN / BLUE -->
  <text x="16" y="244" fill="#50a8e8" font-size="10">CYAN/BLUE (player, water)</text>
  <rect x="16"  y="250" width="24" height="24" fill="#0a1a3a"/><text x="16"  y="288" fill="#969696" font-size="8">#0a1a3a</text>
  <rect x="48"  y="250" width="24" height="24" fill="#1a4a8a"/><text x="48"  y="288" fill="#969696" font-size="8">#1a4a8a</text>
  <rect x="80"  y="250" width="24" height="24" fill="#2a7ac0"/><text x="80"  y="288" fill="#969696" font-size="8">#2a7ac0</text>
  <rect x="112" y="250" width="24" height="24" fill="#50a8e8"/><text x="112" y="288" fill="#969696" font-size="8">#50a8e8</text>
  <rect x="144" y="250" width="24" height="24" fill="#90d0f8"/><text x="144" y="288" fill="#969696" font-size="8">#90d0f8</text>
  <rect x="176" y="250" width="24" height="24" fill="#c8f0ff"/><text x="176" y="288" fill="#969696" font-size="8">#c8f0ff</text>

  <!-- RED / ORANGE -->
  <text x="16" y="308" fill="#d42020" font-size="10">RED/ORANGE (enemies, danger)</text>
  <rect x="16"  y="314" width="24" height="24" fill="#5a0a0a"/><text x="16"  y="352" fill="#969696" font-size="8">#5a0a0a</text>
  <rect x="48"  y="314" width="24" height="24" fill="#a01010"/><text x="48"  y="352" fill="#969696" font-size="8">#a01010</text>
  <rect x="80"  y="314" width="24" height="24" fill="#d42020"/><text x="80"  y="352" fill="#969696" font-size="8">#d42020</text>
  <rect x="112" y="314" width="24" height="24" fill="#f06020"/><text x="112" y="352" fill="#969696" font-size="8">#f06020</text>
  <rect x="144" y="314" width="24" height="24" fill="#f8a060"/><text x="144" y="352" fill="#969696" font-size="8">#f8a060</text>

  <!-- YELLOW / GOLD -->
  <text x="16" y="372" fill="#ffe040" font-size="10">YELLOW/GOLD (quests, rarity, XP)</text>
  <rect x="16"  y="378" width="24" height="24" fill="#a87000"/><text x="16"  y="416" fill="#969696" font-size="8">#a87000</text>
  <rect x="48"  y="378" width="24" height="24" fill="#e8b800"/><text x="48"  y="416" fill="#969696" font-size="8">#e8b800</text>
  <rect x="80"  y="378" width="24" height="24" fill="#ffe040"/><text x="80"  y="416" fill="#969696" font-size="8">#ffe040</text>
  <rect x="112" y="378" width="24" height="24" fill="#fff8a0"/><text x="112" y="416" fill="#969696" font-size="8">#fff8a0</text>

  <!-- PURPLE -->
  <text x="16" y="436" fill="#9050e0" font-size="10">PURPLE (magic, mana)</text>
  <rect x="16"  y="442" width="24" height="24" fill="#1a0a3a"/><text x="16"  y="480" fill="#969696" font-size="8">#1a0a3a</text>
  <rect x="48"  y="442" width="24" height="24" fill="#5a20a0"/><text x="48"  y="480" fill="#969696" font-size="8">#5a20a0</text>
  <rect x="80"  y="442" width="24" height="24" fill="#9050e0"/><text x="80"  y="480" fill="#969696" font-size="8">#9050e0</text>
  <rect x="112" y="442" width="24" height="24" fill="#d090ff"/><text x="112" y="480" fill="#969696" font-size="8">#d090ff</text>

  <text x="16" y="510" fill="#4a4a4a" font-size="9">PixelRealm v1.0 — All game assets must use only these 32 colors.</text>
</svg>
