<svg xmlns="http://www.w3.org/2000/svg" width="1200" height="675" viewBox="0 0 1200 675" style="image-rendering: pixelated;">
  <defs><style>text { font-family: monospace; }</style></defs>
  <rect width="1200" height="675" fill="#1a0800"/>
  <rect width="1200" height="675" fill="#27150d" opacity="0.3"/>
  <rect x="0" y="420" width="24" height="255" fill="#662200"/><rect x="24" y="420" width="24" height="255" fill="#662200"/><rect x="48" y="420" width="24" height="255" fill="#4d1a00"/><rect x="72" y="420" width="24" height="255" fill="#662200"/><rect x="96" y="420" width="24" height="255" fill="#662200"/><rect x="120" y="420" width="24" height="255" fill="#662200"/><rect x="144" y="420" width="24" height="255" fill="#662200"/><rect x="168" y="420" width="24" height="255" fill="#4d1a00"/><rect x="192" y="420" width="24" height="255" fill="#4d1a00"/><rect x="216" y="420" width="24" height="255" fill="#662200"/><rect x="240" y="420" width="24" height="255" fill="#4d1a00"/><rect x="264" y="420" width="24" height="255" fill="#662200"/><rect x="288" y="420" width="24" height="255" fill="#662200"/><rect x="312" y="420" width="24" height="255" fill="#662200"/><rect x="336" y="420" width="24" height="255" fill="#662200"/><rect x="360" y="420" width="24" height="255" fill="#662200"/><rect x="384" y="420" width="24" height="255" fill="#662200"/><rect x="408" y="420" width="24" height="255" fill="#4d1a00"/><rect x="432" y="420" width="24" height="255" fill="#662200"/><rect x="456" y="420" width="24" height="255" fill="#662200"/><rect x="480" y="420" width="24" height="255" fill="#662200"/><rect x="504" y="420" width="24" height="255" fill="#4d1a00"/><rect x="528" y="420" width="24" height="255" fill="#662200"/><rect x="552" y="420" width="24" height="255" fill="#662200"/><rect x="576" y="420" width="24" height="255" fill="#4d1a00"/><rect x="600" y="420" width="24" height="255" fill="#4d1a00"/><rect x="624" y="420" width="24" height="255" fill="#4d1a00"/><rect x="648" y="420" width="24" height="255" fill="#662200"/><rect x="672" y="420" width="24" height="255" fill="#4d1a00"/><rect x="696" y="420" width="24" height="255" fill="#4d1a00"/><rect x="720" y="420" width="24" height="255" fill="#662200"/><rect x="744" y="420" width="24" height="255" fill="#662200"/><rect x="768" y="420" width="24" height="255" fill="#662200"/><rect x="792" y="420" width="24" height="255" fill="#4d1a00"/><rect x="816" y="420" width="24" height="255" fill="#662200"/><rect x="840" y="420" width="24" height="255" fill="#4d1a00"/><rect x="864" y="420" width="24" height="255" fill="#662200"/><rect x="888" y="420" width="24" height="255" fill="#4d1a00"/><rect x="912" y="420" width="24" height="255" fill="#4d1a00"/><rect x="936" y="420" width="24" height="255" fill="#662200"/><rect x="960" y="420" width="24" height="255" fill="#662200"/><rect x="984" y="420" width="24" height="255" fill="#4d1a00"/><rect x="1008" y="420" width="24" height="255" fill="#662200"/><rect x="1032" y="420" width="24" height="255" fill="#662200"/><rect x="1056" y="420" width="24" height="255" fill="#662200"/><rect x="1080" y="420" width="24" height="255" fill="#662200"/><rect x="1104" y="420" width="24" height="255" fill="#4d1a00"/><rect x="1128" y="420" width="24" height="255" fill="#662200"/><rect x="1152" y="420" width="24" height="255" fill="#662200"/><rect x="1176" y="420" width="24" height="255" fill="#662200"/><rect x="0" y="418" width="1200" height="4" fill="#ff5500" opacity="0.2"/>
  <g transform="translate(400, 370)">
    <!-- Shadow -->
    <ellipse cx="16" cy="48" rx="14" ry="4" fill="#000" opacity="0.3"/>
    <!-- Boots -->
    <rect x="4" y="40" width="10" height="8" fill="#5a3a1a"/>
    <rect x="18" y="40" width="10" height="8" fill="#5a3a1a"/>
    <!-- Legs -->
    <rect x="6" y="32" width="8" height="10" fill="#334488"/>
    <rect x="18" y="32" width="8" height="10" fill="#334488"/>
    <!-- Body armor -->
    <rect x="4" y="16" width="24" height="18" fill="#668844"/>
    <rect x="8" y="18" width="16" height="14" fill="#88aa55"/>
    <!-- Belt -->
    <rect x="4" y="30" width="24" height="4" fill="#6a4422"/>
    <rect x="14" y="29" width="4" height="6" fill="#ff5500"/>
    <!-- Head -->
    <rect x="6" y="2" width="20" height="16" fill="#e8c090"/>
    <!-- Hair -->
    <rect x="4" y="0" width="24" height="8" fill="#5a3020"/>
    <rect x="4" y="6" width="4" height="6" fill="#5a3020"/>
    <!-- Eyes -->
    <rect x="10" y="8" width="4" height="4" fill="#222"/>
    <rect x="18" y="8" width="4" height="4" fill="#222"/>
    <!-- Weapon (sword) -->
    <rect x="30" y="8" width="4" height="28" fill="#aabbcc"/>
    <rect x="28" y="22" width="8" height="4" fill="#886644"/>
    <rect x="30" y="4" width="4" height="6" fill="#ddeeff"/>
  </g><rect x="436" y="360" width="60" height="4" fill="#fff" opacity="0.8" transform="rotate(-30, 436, 362)"/><rect x="440" y="355" width="50" height="3" fill="#ff5500" opacity="0.6" transform="rotate(-20, 440, 356)"/>
        <g transform="translate(550, 375)">
          <ellipse cx="14" cy="24" rx="12" ry="3" fill="#000" opacity="0.2"/>
          <rect x="2" y="4" width="24" height="20" rx="3" fill="#b33b00"/>
          <rect x="4" y="6" width="20" height="16" rx="2" fill="#ff5500" opacity="0.6"/>
          <rect x="8" y="10" width="3" height="3" fill="#ff2222"/>
          <rect x="16" y="10" width="3" height="3" fill="#ff2222"/>
          <!-- HP bar above enemy -->
          <rect x="0" y="-6" width="28" height="4" fill="#1a0000"/>
          <rect x="0" y="-6" width="26" height="4" fill="#cc2222"/>
        </g>
      
        <g transform="translate(650, 393)">
          <ellipse cx="14" cy="24" rx="12" ry="3" fill="#000" opacity="0.2"/>
          <rect x="2" y="4" width="24" height="20" rx="3" fill="#b33b00"/>
          <rect x="4" y="6" width="20" height="16" rx="2" fill="#ff5500" opacity="0.6"/>
          <rect x="8" y="10" width="3" height="3" fill="#ff2222"/>
          <rect x="16" y="10" width="3" height="3" fill="#ff2222"/>
          <!-- HP bar above enemy -->
          <rect x="0" y="-6" width="28" height="4" fill="#1a0000"/>
          <rect x="0" y="-6" width="25" height="4" fill="#cc2222"/>
        </g>
      
        <g transform="translate(750, 382)">
          <ellipse cx="14" cy="24" rx="12" ry="3" fill="#000" opacity="0.2"/>
          <rect x="2" y="4" width="24" height="20" rx="3" fill="#b33b00"/>
          <rect x="4" y="6" width="20" height="16" rx="2" fill="#ff5500" opacity="0.6"/>
          <rect x="8" y="10" width="3" height="3" fill="#ff2222"/>
          <rect x="16" y="10" width="3" height="3" fill="#ff2222"/>
          <!-- HP bar above enemy -->
          <rect x="0" y="-6" width="28" height="4" fill="#1a0000"/>
          <rect x="0" y="-6" width="25" height="4" fill="#cc2222"/>
        </g>
      
        <g transform="translate(850, 394)">
          <ellipse cx="14" cy="24" rx="12" ry="3" fill="#000" opacity="0.2"/>
          <rect x="2" y="4" width="24" height="20" rx="3" fill="#b33b00"/>
          <rect x="4" y="6" width="20" height="16" rx="2" fill="#ff5500" opacity="0.6"/>
          <rect x="8" y="10" width="3" height="3" fill="#ff2222"/>
          <rect x="16" y="10" width="3" height="3" fill="#ff2222"/>
          <!-- HP bar above enemy -->
          <rect x="0" y="-6" width="28" height="4" fill="#1a0000"/>
          <rect x="0" y="-6" width="25" height="4" fill="#cc2222"/>
        </g>
      
        <g transform="translate(950, 387)">
          <ellipse cx="14" cy="24" rx="12" ry="3" fill="#000" opacity="0.2"/>
          <rect x="2" y="4" width="24" height="20" rx="3" fill="#b33b00"/>
          <rect x="4" y="6" width="20" height="16" rx="2" fill="#ff5500" opacity="0.6"/>
          <rect x="8" y="10" width="3" height="3" fill="#ff2222"/>
          <rect x="16" y="10" width="3" height="3" fill="#ff2222"/>
          <!-- HP bar above enemy -->
          <rect x="0" y="-6" width="28" height="4" fill="#1a0000"/>
          <rect x="0" y="-6" width="16" height="4" fill="#cc2222"/>
        </g>
      <text x="570" y="350" font-family="monospace" font-size="18" fill="#ff4444" font-weight="bold">-42</text><text x="690" y="340" font-family="monospace" font-size="16" fill="#ff6644" font-weight="bold">-31</text><text x="820" y="355" font-family="monospace" font-size="14" fill="#ffaa44" font-weight="bold">CRIT -68</text>
      <rect x="0" y="0" width="1200" height="50" fill="#000" opacity="0.6"/>
      <text x="24" y="34" font-family="monospace" font-size="20" fill="#ff5500" font-weight="bold">Wave 2 / 3</text>
      <text x="900" y="22" font-family="monospace" font-size="12" fill="#888">Enemies remaining: 5</text>
      <rect x="900" y="28" width="200" height="10" fill="#111" stroke="#333"/>
      <rect x="901" y="29" width="120" height="8" fill="#cc2222"/>
    
  <!-- Title banner -->
  <rect x="0" y="620" width="1200" height="55" fill="#000" opacity="0.7"/>
  <text x="24" y="653" font-family="monospace" font-size="22" fill="#ff5500" font-weight="bold">Real-Time Combat</text>
  <text x="24" y="669" font-family="monospace" font-size="12" fill="#888">Action-packed battles across 19 zones</text>
  <text x="1176" y="663" font-family="monospace" font-size="11" fill="#555" text-anchor="end">PixelRealm MMORPG</text>
</svg>