<svg xmlns="http://www.w3.org/2000/svg" width="1200" height="675" viewBox="0 0 1200 675" style="image-rendering: pixelated;">
  <defs><style>text { font-family: monospace; }</style></defs>
  <rect width="1200" height="675" fill="#1a0008"/>
  <rect width="1200" height="675" fill="#270d15" opacity="0.3"/>
  <rect x="0" y="400" width="24" height="275" fill="#2a1a1a"/><rect x="24" y="400" width="24" height="275" fill="#2a1a1a"/><rect x="48" y="400" width="24" height="275" fill="#2a1a1a"/><rect x="72" y="400" width="24" height="275" fill="#1a0a0a"/><rect x="96" y="400" width="24" height="275" fill="#2a1a1a"/><rect x="120" y="400" width="24" height="275" fill="#1a0a0a"/><rect x="144" y="400" width="24" height="275" fill="#2a1a1a"/><rect x="168" y="400" width="24" height="275" fill="#2a1a1a"/><rect x="192" y="400" width="24" height="275" fill="#1a0a0a"/><rect x="216" y="400" width="24" height="275" fill="#2a1a1a"/><rect x="240" y="400" width="24" height="275" fill="#2a1a1a"/><rect x="264" y="400" width="24" height="275" fill="#2a1a1a"/><rect x="288" y="400" width="24" height="275" fill="#1a0a0a"/><rect x="312" y="400" width="24" height="275" fill="#2a1a1a"/><rect x="336" y="400" width="24" height="275" fill="#2a1a1a"/><rect x="360" y="400" width="24" height="275" fill="#2a1a1a"/><rect x="384" y="400" width="24" height="275" fill="#1a0a0a"/><rect x="408" y="400" width="24" height="275" fill="#1a0a0a"/><rect x="432" y="400" width="24" height="275" fill="#2a1a1a"/><rect x="456" y="400" width="24" height="275" fill="#2a1a1a"/><rect x="480" y="400" width="24" height="275" fill="#2a1a1a"/><rect x="504" y="400" width="24" height="275" fill="#2a1a1a"/><rect x="528" y="400" width="24" height="275" fill="#2a1a1a"/><rect x="552" y="400" width="24" height="275" fill="#1a0a0a"/><rect x="576" y="400" width="24" height="275" fill="#1a0a0a"/><rect x="600" y="400" width="24" height="275" fill="#2a1a1a"/><rect x="624" y="400" width="24" height="275" fill="#2a1a1a"/><rect x="648" y="400" width="24" height="275" fill="#1a0a0a"/><rect x="672" y="400" width="24" height="275" fill="#2a1a1a"/><rect x="696" y="400" width="24" height="275" fill="#1a0a0a"/><rect x="720" y="400" width="24" height="275" fill="#2a1a1a"/><rect x="744" y="400" width="24" height="275" fill="#2a1a1a"/><rect x="768" y="400" width="24" height="275" fill="#1a0a0a"/><rect x="792" y="400" width="24" height="275" fill="#1a0a0a"/><rect x="816" y="400" width="24" height="275" fill="#2a1a1a"/><rect x="840" y="400" width="24" height="275" fill="#2a1a1a"/><rect x="864" y="400" width="24" height="275" fill="#1a0a0a"/><rect x="888" y="400" width="24" height="275" fill="#2a1a1a"/><rect x="912" y="400" width="24" height="275" fill="#1a0a0a"/><rect x="936" y="400" width="24" height="275" fill="#1a0a0a"/><rect x="960" y="400" width="24" height="275" fill="#1a0a0a"/><rect x="984" y="400" width="24" height="275" fill="#2a1a1a"/><rect x="1008" y="400" width="24" height="275" fill="#1a0a0a"/><rect x="1032" y="400" width="24" height="275" fill="#2a1a1a"/><rect x="1056" y="400" width="24" height="275" fill="#2a1a1a"/><rect x="1080" y="400" width="24" height="275" fill="#2a1a1a"/><rect x="1104" y="400" width="24" height="275" fill="#1a0a0a"/><rect x="1128" y="400" width="24" height="275" fill="#1a0a0a"/><rect x="1152" y="400" width="24" height="275" fill="#2a1a1a"/><rect x="1176" y="400" width="24" height="275" fill="#1a0a0a"/><rect x="0" y="380" width="100" height="120" fill="#331111"/><rect x="1100" y="380" width="100" height="120" fill="#331111"/><rect x="0" y="396" width="1200" height="6" fill="#ff4444" opacity="0.2"/>
  <g transform="translate(350, 356)">
    <!-- Shadow -->
    <ellipse cx="16" cy="48" rx="14" ry="4" fill="#000" opacity="0.3"/>
    <!-- Boots -->
    <rect x="4" y="40" width="10" height="8" fill="#5a3a1a"/>
    <rect x="18" y="40" width="10" height="8" fill="#5a3a1a"/>
    <!-- Legs -->
    <rect x="6" y="32" width="8" height="10" fill="#334488"/>
    <rect x="18" y="32" width="8" height="10" fill="#334488"/>
    <!-- Body armor -->
    <rect x="4" y="16" width="24" height="18" fill="#668844"/>
    <rect x="8" y="18" width="16" height="14" fill="#88aa55"/>
    <!-- Belt -->
    <rect x="4" y="30" width="24" height="4" fill="#6a4422"/>
    <rect x="14" y="29" width="4" height="6" fill="#4488ff"/>
    <!-- Head -->
    <rect x="6" y="2" width="20" height="16" fill="#e8c090"/>
    <!-- Hair -->
    <rect x="4" y="0" width="24" height="8" fill="#5a3020"/>
    <rect x="4" y="6" width="4" height="6" fill="#5a3020"/>
    <!-- Eyes -->
    <rect x="10" y="8" width="4" height="4" fill="#222"/>
    <rect x="18" y="8" width="4" height="4" fill="#222"/>
    <!-- Weapon (sword) -->
    <rect x="30" y="8" width="4" height="28" fill="#aabbcc"/>
    <rect x="28" y="22" width="8" height="4" fill="#886644"/>
    <rect x="30" y="4" width="4" height="6" fill="#ddeeff"/>
  </g><text x="370" y="346" font-family="monospace" font-size="12" fill="#4488ff" text-anchor="middle">xDragonSlayer</text>
    <g transform="translate(750, 360)">
      <ellipse cx="16" cy="48" rx="14" ry="4" fill="#000" opacity="0.3"/>
      <rect x="4" y="40" width="10" height="8" fill="#5a3a1a"/>
      <rect x="18" y="40" width="10" height="8" fill="#5a3a1a"/>
      <rect x="6" y="32" width="8" height="10" fill="#882222"/>
      <rect x="18" y="32" width="8" height="10" fill="#882222"/>
      <rect x="4" y="16" width="24" height="18" fill="#aa3333"/>
      <rect x="8" y="18" width="16" height="14" fill="#cc4444" opacity="0.7"/>
      <rect x="4" y="30" width="24" height="4" fill="#6a4422"/>
      <rect x="6" y="2" width="20" height="16" fill="#e8c090"/>
      <rect x="4" y="0" width="24" height="8" fill="#333"/>
      <rect x="10" y="8" width="4" height="4" fill="#222"/>
      <rect x="18" y="8" width="4" height="4" fill="#222"/>
      <rect x="-6" y="10" width="4" height="24" fill="#aa6633"/>
      <rect x="-8" y="6" width="8" height="6" fill="#cc8844"/>
    </g><text x="770" y="346" font-family="monospace" font-size="12" fill="#ff4444" text-anchor="middle">NightBlade99</text>
      <rect x="0" y="0" width="1200" height="80" fill="#000" opacity="0.7"/>
      <text x="600" y="30" font-family="monospace" font-size="24" fill="#ff4444" text-anchor="middle" font-weight="bold">PVP ARENA - 1v1 RANKED</text>
      <text x="600" y="55" font-family="monospace" font-size="14" fill="#888" text-anchor="middle">Round 2 of 3 | Time: 1:42</text>

      <!-- P1 info -->
      <rect x="80" y="90" width="300" height="40" rx="4" fill="#000" opacity="0.5"/>
      <text x="90" y="116" font-family="monospace" font-size="14" fill="#4488ff">xDragonSlayer</text>
      <rect x="240" y="100" width="130" height="12" fill="#111"/>
      <rect x="241" y="101" width="90" height="10" fill="#4488ff"/>
      <text x="250" y="115" font-family="monospace" font-size="8" fill="#fff">Gold (1542 ELO)</text>

      <!-- P2 info -->
      <rect x="820" y="90" width="300" height="40" rx="4" fill="#000" opacity="0.5"/>
      <text x="830" y="116" font-family="monospace" font-size="14" fill="#ff4444">NightBlade99</text>
      <rect x="970" y="100" width="130" height="12" fill="#111"/>
      <rect x="971" y="101" width="70" height="10" fill="#ff4444"/>
      <text x="978" y="115" font-family="monospace" font-size="8" fill="#fff">Silver (1380 ELO)</text>

      <!-- Score -->
      <text x="560" y="110" font-family="monospace" font-size="28" fill="#4488ff" font-weight="bold">1</text>
      <text x="600" y="110" font-family="monospace" font-size="28" fill="#666" text-anchor="middle">-</text>
      <text x="630" y="110" font-family="monospace" font-size="28" fill="#ff4444" font-weight="bold">0</text>
    
  <!-- Title banner -->
  <rect x="0" y="620" width="1200" height="55" fill="#000" opacity="0.7"/>
  <text x="24" y="653" font-family="monospace" font-size="22" fill="#ff4444" font-weight="bold">PvP Arena</text>
  <text x="24" y="669" font-family="monospace" font-size="12" fill="#888">1v1 and 2v2 ranked matches with ELO rating</text>
  <text x="1176" y="663" font-family="monospace" font-size="11" fill="#555" text-anchor="end">PixelRealm MMORPG</text>
</svg>