<svg xmlns="http://www.w3.org/2000/svg" width="1200" height="675" viewBox="0 0 1200 675" style="image-rendering: pixelated;">
  <defs><style>text { font-family: monospace; }</style></defs>
  <rect width="1200" height="675" fill="#0e1408"/>
  <rect width="1200" height="675" fill="#1b2115" opacity="0.3"/>
  
      <!-- Crafting panel background -->
      <rect x="200" y="80" width="800" height="500" rx="8" fill="#0c1408" stroke="#446633" stroke-width="2"/>
      <rect x="200" y="80" width="800" height="50" fill="#1a2a14" rx="8"/>
      <text x="600" y="112" font-family="monospace" font-size="22" fill="#aaddaa" text-anchor="middle" font-weight="bold">Crafting Station</text>

      <!-- Recipe list -->
      <rect x="220" y="150" width="280" height="400" rx="4" fill="#0a1008" stroke="#334422" stroke-width="1"/>
      <text x="360" y="175" font-family="monospace" font-size="14" fill="#888" text-anchor="middle">Recipes</text>
      
        <rect x="230" y="190" width="260" height="36" rx="3" fill="#0e1408" stroke="#222" stroke-width="1"/>
        <rect x="238" y="194" width="28" height="28" rx="2" fill="#1a2a14"/>
        <text x="278" y="213" font-family="monospace" font-size="12" fill="#888">Iron Sword</text>
      
        <rect x="230" y="234" width="260" height="36" rx="3" fill="#0e1408" stroke="#222" stroke-width="1"/>
        <rect x="238" y="238" width="28" height="28" rx="2" fill="#1a2a14"/>
        <text x="278" y="257" font-family="monospace" font-size="12" fill="#888">Steel Helmet</text>
      
        <rect x="230" y="278" width="260" height="36" rx="3" fill="#1a2a14" stroke="#aaddaa" stroke-width="1"/>
        <rect x="238" y="282" width="28" height="28" rx="2" fill="#1a2a14"/>
        <text x="278" y="301" font-family="monospace" font-size="12" fill="#fff">Health Potion</text>
      
        <rect x="230" y="322" width="260" height="36" rx="3" fill="#0e1408" stroke="#222" stroke-width="1"/>
        <rect x="238" y="326" width="28" height="28" rx="2" fill="#1a2a14"/>
        <text x="278" y="345" font-family="monospace" font-size="12" fill="#888">Mana Elixir</text>
      
        <rect x="230" y="366" width="260" height="36" rx="3" fill="#0e1408" stroke="#222" stroke-width="1"/>
        <rect x="238" y="370" width="28" height="28" rx="2" fill="#1a2a14"/>
        <text x="278" y="389" font-family="monospace" font-size="12" fill="#888">Fire Enchant</text>
      
        <rect x="230" y="410" width="260" height="36" rx="3" fill="#0e1408" stroke="#222" stroke-width="1"/>
        <rect x="238" y="414" width="28" height="28" rx="2" fill="#1a2a14"/>
        <text x="278" y="433" font-family="monospace" font-size="12" fill="#888">Frost Shield</text>
      
        <rect x="230" y="454" width="260" height="36" rx="3" fill="#0e1408" stroke="#222" stroke-width="1"/>
        <rect x="238" y="458" width="28" height="28" rx="2" fill="#1a2a14"/>
        <text x="278" y="477" font-family="monospace" font-size="12" fill="#888">Dragon Blade</text>
      
        <rect x="230" y="498" width="260" height="36" rx="3" fill="#0e1408" stroke="#222" stroke-width="1"/>
        <rect x="238" y="502" width="28" height="28" rx="2" fill="#1a2a14"/>
        <text x="278" y="521" font-family="monospace" font-size="12" fill="#888">Healing Staff</text>
      

      <!-- Crafting detail -->
      <rect x="520" y="150" width="460" height="250" rx="4" fill="#0a1008" stroke="#334422" stroke-width="1"/>
      <text x="750" y="180" font-family="monospace" font-size="18" fill="#fff" text-anchor="middle">Health Potion</text>
      <text x="750" y="200" font-family="monospace" font-size="11" fill="#888" text-anchor="middle">Restores 120 HP over 5 seconds</text>
      <!-- Ingredients -->
      <text x="540" y="235" font-family="monospace" font-size="12" fill="#888">Materials:</text>
      
        <rect x="540" y="245" width="200" height="28" rx="2" fill="#0e1408" stroke="#333" stroke-width="1"/>
        <rect x="548" y="249" width="20" height="20" rx="2" fill="#2a3e18"/>
        <text x="576" y="264" font-family="monospace" font-size="11" fill="#aaddaa">Forest Spore x3</text>
      
        <rect x="540" y="280" width="200" height="28" rx="2" fill="#0e1408" stroke="#333" stroke-width="1"/>
        <rect x="548" y="284" width="20" height="20" rx="2" fill="#2a3e18"/>
        <text x="576" y="299" font-family="monospace" font-size="11" fill="#aaddaa">Ancient Bark x1</text>
      
        <rect x="540" y="315" width="200" height="28" rx="2" fill="#0e1408" stroke="#333" stroke-width="1"/>
        <rect x="548" y="319" width="20" height="20" rx="2" fill="#2a3e18"/>
        <text x="576" y="334" font-family="monospace" font-size="11" fill="#aaddaa">Water Essence x2</text>
      
      <!-- Craft button -->
      <rect x="760" y="340" width="200" height="40" rx="4" fill="#2a5a18" stroke="#aaddaa" stroke-width="1"/>
      <text x="860" y="366" font-family="monospace" font-size="16" fill="#fff" text-anchor="middle" font-weight="bold">CRAFT</text>

      <!-- Result slot -->
      <rect x="520" y="420" width="460" height="110" rx="4" fill="#0a1008" stroke="#334422" stroke-width="1"/>
      <text x="540" y="448" font-family="monospace" font-size="12" fill="#888">Output:</text>
      <rect x="540" y="458" width="48" height="48" rx="4" fill="#1a2a14" stroke="#aaddaa" stroke-width="2"/>
      <text x="600" y="482" font-family="monospace" font-size="14" fill="#aaddaa">Health Potion x1</text>
      <text x="600" y="500" font-family="monospace" font-size="10" fill="#666">Cost: 5 Gold</text>
    
  <!-- Title banner -->
  <rect x="0" y="620" width="1200" height="55" fill="#000" opacity="0.7"/>
  <text x="24" y="653" font-family="monospace" font-size="22" fill="#aaddaa" font-weight="bold">Crafting & Economy</text>
  <text x="24" y="669" font-family="monospace" font-size="12" fill="#888">Forge weapons, brew potions, enchant gear</text>
  <text x="1176" y="663" font-family="monospace" font-size="11" fill="#555" text-anchor="end">PixelRealm MMORPG</text>
</svg>