<svg xmlns="http://www.w3.org/2000/svg" width="1200" height="675" viewBox="0 0 1200 675" style="image-rendering: pixelated;">
  <defs><style>text { font-family: monospace; }</style></defs>
  <rect width="1200" height="675" fill="#0e1408"/>
  <rect width="1200" height="675" fill="#1b2115" opacity="0.3"/>
  
      <!-- Room background -->
      <rect x="150" y="100" width="900" height="475" fill="#1a1408"/>
      <!-- Floor -->
      <rect x="150" y="420" width="24" height="155" fill="#2a1e14"/><rect x="174" y="420" width="24" height="155" fill="#241a10"/><rect x="198" y="420" width="24" height="155" fill="#2a1e14"/><rect x="222" y="420" width="24" height="155" fill="#241a10"/><rect x="246" y="420" width="24" height="155" fill="#2a1e14"/><rect x="270" y="420" width="24" height="155" fill="#241a10"/><rect x="294" y="420" width="24" height="155" fill="#2a1e14"/><rect x="318" y="420" width="24" height="155" fill="#241a10"/><rect x="342" y="420" width="24" height="155" fill="#2a1e14"/><rect x="366" y="420" width="24" height="155" fill="#241a10"/><rect x="390" y="420" width="24" height="155" fill="#2a1e14"/><rect x="414" y="420" width="24" height="155" fill="#241a10"/><rect x="438" y="420" width="24" height="155" fill="#2a1e14"/><rect x="462" y="420" width="24" height="155" fill="#241a10"/><rect x="486" y="420" width="24" height="155" fill="#2a1e14"/><rect x="510" y="420" width="24" height="155" fill="#241a10"/><rect x="534" y="420" width="24" height="155" fill="#2a1e14"/><rect x="558" y="420" width="24" height="155" fill="#241a10"/><rect x="582" y="420" width="24" height="155" fill="#2a1e14"/><rect x="606" y="420" width="24" height="155" fill="#241a10"/><rect x="630" y="420" width="24" height="155" fill="#2a1e14"/><rect x="654" y="420" width="24" height="155" fill="#241a10"/><rect x="678" y="420" width="24" height="155" fill="#2a1e14"/><rect x="702" y="420" width="24" height="155" fill="#241a10"/><rect x="726" y="420" width="24" height="155" fill="#2a1e14"/><rect x="750" y="420" width="24" height="155" fill="#241a10"/><rect x="774" y="420" width="24" height="155" fill="#2a1e14"/><rect x="798" y="420" width="24" height="155" fill="#241a10"/><rect x="822" y="420" width="24" height="155" fill="#2a1e14"/><rect x="846" y="420" width="24" height="155" fill="#241a10"/><rect x="870" y="420" width="24" height="155" fill="#2a1e14"/><rect x="894" y="420" width="24" height="155" fill="#241a10"/><rect x="918" y="420" width="24" height="155" fill="#2a1e14"/><rect x="942" y="420" width="24" height="155" fill="#241a10"/><rect x="966" y="420" width="24" height="155" fill="#2a1e14"/><rect x="990" y="420" width="24" height="155" fill="#241a10"/><rect x="1014" y="420" width="24" height="155" fill="#2a1e14"/><rect x="1038" y="420" width="24" height="155" fill="#241a10"/>
      <!-- Back wall -->
      <rect x="150" y="100" width="900" height="320" fill="#1a1610"/>
      <!-- Wall trim -->
      <rect x="150" y="300" width="900" height="8" fill="#2a2218"/>
      <rect x="150" y="100" width="900" height="6" fill="#2a2218"/>

      <!-- Window -->
      <rect x="400" y="140" width="100" height="120" fill="#1a3050" stroke="#3a2a18" stroke-width="4"/>
      <rect x="448" y="140" width="4" height="120" fill="#3a2a18"/>
      <rect x="400" y="198" width="100" height="4" fill="#3a2a18"/>
      <rect x="410" y="150" width="32" height="44" fill="#2a5080" opacity="0.5"/>

      <!-- Fireplace -->
      <rect x="680" y="220" width="120" height="200" fill="#2a1a0e"/>
      <rect x="690" y="320" width="100" height="100" fill="#0a0500"/>
      <rect x="700" y="360" width="30" height="30" fill="#ff5500" opacity="0.6"/>
      <rect x="730" y="350" width="20" height="40" fill="#ff8800" opacity="0.4"/>
      <rect x="750" y="365" width="25" height="25" fill="#ff5500" opacity="0.5"/>
      <rect x="680" y="210" width="120" height="16" fill="#3a2a18"/>

      <!-- Bed -->
      <rect x="200" y="340" width="140" height="80" fill="#4a3020"/>
      <rect x="200" y="330" width="140" height="16" fill="#cc8844"/>
      <rect x="200" y="330" width="50" height="90" fill="#886644"/>
      <rect x="210" y="340" width="30" height="10" fill="#fff" opacity="0.3"/>

      <!-- Table with items -->
      <rect x="500" y="360" width="100" height="60" fill="#3a2818"/>
      <rect x="500" y="352" width="100" height="12" fill="#4a3420"/>
      <rect x="520" y="340" width="20" height="16" fill="#888" opacity="0.5"/>
      <rect x="560" y="338" width="12" height="16" fill="#ccaa44" opacity="0.6"/>

      <!-- Trophy on wall -->
      <rect x="580" y="160" width="60" height="60" fill="#2a2218" stroke="#444" stroke-width="2"/>
      <rect x="598" y="170" width="24" height="24" fill="#ccaa44" opacity="0.4"/>

      <!-- Plants -->
      <rect x="870" y="380" width="20" height="40" fill="#553322"/>
      <rect x="860" y="360" width="40" height="24" fill="#44aa44" opacity="0.6"/>
      <rect x="868" y="348" width="24" height="16" fill="#55cc55" opacity="0.5"/>

      <!-- Housing UI overlay -->
      <rect x="150" y="100" width="900" height="40" fill="#000" opacity="0.6"/>
      <text x="600" y="126" font-family="monospace" font-size="18" fill="#ccaa44" text-anchor="middle" font-weight="bold">Manor - Plot #7 | Storage: 14/20</text>

      <!-- Furniture palette -->
      <rect x="150" y="575" width="900" height="70" rx="4" fill="#000" opacity="0.7"/>
      <text x="170" y="603" font-family="monospace" font-size="11" fill="#888">Furniture:</text>
      
        <rect x="280" y="585" width="72" height="50" rx="3" fill="#1a1a1a" stroke="#ccaa44" stroke-width="1"/>
        <text x="316" y="617" font-family="monospace" font-size="10" fill="#888" text-anchor="middle">Bed</text>
      
        <rect x="368" y="585" width="72" height="50" rx="3" fill="#1a1a1a" stroke="#333" stroke-width="1"/>
        <text x="404" y="617" font-family="monospace" font-size="10" fill="#888" text-anchor="middle">Table</text>
      
        <rect x="456" y="585" width="72" height="50" rx="3" fill="#1a1a1a" stroke="#333" stroke-width="1"/>
        <text x="492" y="617" font-family="monospace" font-size="10" fill="#888" text-anchor="middle">Chair</text>
      
        <rect x="544" y="585" width="72" height="50" rx="3" fill="#1a1a1a" stroke="#333" stroke-width="1"/>
        <text x="580" y="617" font-family="monospace" font-size="10" fill="#888" text-anchor="middle">Lamp</text>
      
        <rect x="632" y="585" width="72" height="50" rx="3" fill="#1a1a1a" stroke="#333" stroke-width="1"/>
        <text x="668" y="617" font-family="monospace" font-size="10" fill="#888" text-anchor="middle">Chest</text>
      
        <rect x="720" y="585" width="72" height="50" rx="3" fill="#1a1a1a" stroke="#333" stroke-width="1"/>
        <text x="756" y="617" font-family="monospace" font-size="10" fill="#888" text-anchor="middle">Banner</text>
      
        <rect x="808" y="585" width="72" height="50" rx="3" fill="#1a1a1a" stroke="#333" stroke-width="1"/>
        <text x="844" y="617" font-family="monospace" font-size="10" fill="#888" text-anchor="middle">Plant</text>
      
        <rect x="896" y="585" width="72" height="50" rx="3" fill="#1a1a1a" stroke="#333" stroke-width="1"/>
        <text x="932" y="617" font-family="monospace" font-size="10" fill="#888" text-anchor="middle">Clock</text>
      
    
  <!-- Title banner -->
  <rect x="0" y="620" width="1200" height="55" fill="#000" opacity="0.7"/>
  <text x="24" y="653" font-family="monospace" font-size="22" fill="#ccaa44" font-weight="bold">Player Housing</text>
  <text x="24" y="669" font-family="monospace" font-size="12" fill="#888">20 plots - Cottages, Manors, Estates</text>
  <text x="1176" y="663" font-family="monospace" font-size="11" fill="#555" text-anchor="end">PixelRealm MMORPG</text>
</svg>