<svg xmlns="http://www.w3.org/2000/svg" width="1200" height="675" viewBox="0 0 1200 675" style="image-rendering: pixelated;">
  <defs><style>text { font-family: monospace; }</style></defs>
  <rect width="1200" height="675" fill="#061825"/>
  <rect width="1200" height="675" fill="#132532" opacity="0.3"/>
  <rect x="0" y="350" width="1200" height="325" fill="#0a2a40"/><rect x="248" y="406" width="35" height="3" fill="#22aacc" opacity="0.15"/><rect x="1126" y="439" width="64" height="3" fill="#22aacc" opacity="0.15"/><rect x="265" y="445" width="56" height="3" fill="#22aacc" opacity="0.15"/><rect x="984" y="512" width="59" height="3" fill="#22aacc" opacity="0.15"/><rect x="552" y="549" width="67" height="3" fill="#22aacc" opacity="0.15"/><rect x="237" y="411" width="36" height="3" fill="#22aacc" opacity="0.15"/><rect x="1029" y="511" width="58" height="3" fill="#22aacc" opacity="0.15"/><rect x="553" y="512" width="56" height="3" fill="#22aacc" opacity="0.15"/><rect x="266" y="414" width="58" height="3" fill="#22aacc" opacity="0.15"/><rect x="8" y="507" width="33" height="3" fill="#22aacc" opacity="0.15"/><rect x="378" y="504" width="76" height="3" fill="#22aacc" opacity="0.15"/><rect x="143" y="415" width="49" height="3" fill="#22aacc" opacity="0.15"/><rect x="716" y="386" width="68" height="3" fill="#22aacc" opacity="0.15"/><rect x="608" y="467" width="50" height="3" fill="#22aacc" opacity="0.15"/><rect x="305" y="474" width="47" height="3" fill="#22aacc" opacity="0.15"/><rect x="194" y="522" width="76" height="3" fill="#22aacc" opacity="0.15"/><rect x="1186" y="506" width="69" height="3" fill="#22aacc" opacity="0.15"/><rect x="1063" y="533" width="40" height="3" fill="#22aacc" opacity="0.15"/><rect x="260" y="536" width="32" height="3" fill="#22aacc" opacity="0.15"/><rect x="371" y="475" width="58" height="3" fill="#22aacc" opacity="0.15"/><rect x="0" y="320" width="24" height="40" fill="#2a2418"/><rect x="24" y="320" width="24" height="40" fill="#2a2418"/><rect x="48" y="320" width="24" height="40" fill="#3a3020"/><rect x="72" y="320" width="24" height="40" fill="#2a2418"/><rect x="96" y="320" width="24" height="40" fill="#3a3020"/><rect x="120" y="320" width="24" height="40" fill="#2a2418"/><rect x="144" y="320" width="24" height="40" fill="#3a3020"/><rect x="168" y="320" width="24" height="40" fill="#2a2418"/><rect x="192" y="320" width="24" height="40" fill="#3a3020"/><rect x="216" y="320" width="24" height="40" fill="#2a2418"/><rect x="240" y="320" width="24" height="40" fill="#2a2418"/><rect x="264" y="320" width="24" height="40" fill="#3a3020"/><rect x="288" y="320" width="24" height="40" fill="#3a3020"/><rect x="312" y="320" width="24" height="40" fill="#2a2418"/><rect x="336" y="320" width="24" height="40" fill="#2a2418"/><rect x="360" y="320" width="24" height="40" fill="#2a2418"/><rect x="384" y="320" width="24" height="40" fill="#2a2418"/><rect x="408" y="320" width="24" height="40" fill="#3a3020"/><rect x="432" y="320" width="24" height="40" fill="#3a3020"/><rect x="456" y="320" width="24" height="40" fill="#2a2418"/><rect x="480" y="320" width="24" height="40" fill="#3a3020"/><rect x="504" y="320" width="24" height="40" fill="#3a3020"/><rect x="528" y="320" width="24" height="40" fill="#3a3020"/><rect x="552" y="320" width="24" height="40" fill="#2a2418"/><rect x="576" y="320" width="24" height="40" fill="#2a2418"/><rect x="600" y="320" width="24" height="40" fill="#2a2418"/><rect x="624" y="320" width="24" height="40" fill="#3a3020"/><rect x="648" y="320" width="24" height="40" fill="#3a3020"/><rect x="672" y="320" width="24" height="40" fill="#3a3020"/><rect x="696" y="320" width="24" height="40" fill="#2a2418"/><rect x="720" y="320" width="24" height="40" fill="#3a3020"/><rect x="744" y="320" width="24" height="40" fill="#3a3020"/><rect x="768" y="320" width="24" height="40" fill="#2a2418"/><rect x="792" y="320" width="24" height="40" fill="#3a3020"/><rect x="816" y="320" width="24" height="40" fill="#2a2418"/><rect x="840" y="320" width="24" height="40" fill="#2a2418"/><rect x="864" y="320" width="24" height="40" fill="#3a3020"/><rect x="888" y="320" width="24" height="40" fill="#3a3020"/><rect x="912" y="320" width="24" height="40" fill="#2a2418"/><rect x="936" y="320" width="24" height="40" fill="#3a3020"/><rect x="960" y="320" width="24" height="40" fill="#3a3020"/><rect x="984" y="320" width="24" height="40" fill="#2a2418"/><rect x="1008" y="320" width="24" height="40" fill="#3a3020"/><rect x="1032" y="320" width="24" height="40" fill="#3a3020"/><rect x="1056" y="320" width="24" height="40" fill="#3a3020"/><rect x="1080" y="320" width="24" height="40" fill="#2a2418"/><rect x="1104" y="320" width="24" height="40" fill="#3a3020"/><rect x="1128" y="320" width="24" height="40" fill="#2a2418"/><rect x="1152" y="320" width="24" height="40" fill="#2a2418"/><rect x="1176" y="320" width="24" height="40" fill="#2a2418"/><rect x="0" y="0" width="1200" height="320" fill="#0a1828"/><rect x="0" y="0" width="1200" height="200" fill="#0e2040"/>
  <g transform="translate(300, 278)">
    <!-- Shadow -->
    <ellipse cx="16" cy="48" rx="14" ry="4" fill="#000" opacity="0.3"/>
    <!-- Boots -->
    <rect x="4" y="40" width="10" height="8" fill="#5a3a1a"/>
    <rect x="18" y="40" width="10" height="8" fill="#5a3a1a"/>
    <!-- Legs -->
    <rect x="6" y="32" width="8" height="10" fill="#334488"/>
    <rect x="18" y="32" width="8" height="10" fill="#334488"/>
    <!-- Body armor -->
    <rect x="4" y="16" width="24" height="18" fill="#668844"/>
    <rect x="8" y="18" width="16" height="14" fill="#88aa55"/>
    <!-- Belt -->
    <rect x="4" y="30" width="24" height="4" fill="#6a4422"/>
    <rect x="14" y="29" width="4" height="6" fill="#22aacc"/>
    <!-- Head -->
    <rect x="6" y="2" width="20" height="16" fill="#e8c090"/>
    <!-- Hair -->
    <rect x="4" y="0" width="24" height="8" fill="#5a3020"/>
    <rect x="4" y="6" width="4" height="6" fill="#5a3020"/>
    <!-- Eyes -->
    <rect x="10" y="8" width="4" height="4" fill="#222"/>
    <rect x="18" y="8" width="4" height="4" fill="#222"/>
    <!-- Weapon (sword) -->
    <rect x="30" y="8" width="4" height="28" fill="#aabbcc"/>
    <rect x="28" y="22" width="8" height="4" fill="#886644"/>
    <rect x="30" y="4" width="4" height="6" fill="#ddeeff"/>
  </g><line x1="336" y1="280" x2="500" y2="200" stroke="#8a6a40" stroke-width="3"/><line x1="500" y1="200" x2="520" y2="360" stroke="#aaa" stroke-width="1" stroke-dasharray="4,4"/><circle cx="520" cy="358" r="6" fill="#ff4444"/><circle cx="520" cy="356" r="3" fill="#fff" opacity="0.4"/><rect x="510" y="350" width="4" height="8" fill="#22aacc" opacity="0.4"/><rect x="528" y="352" width="3" height="6" fill="#22aacc" opacity="0.3"/><text x="530" y="340" font-family="monospace" font-size="24" fill="#ffdd44" font-weight="bold">!</text>
      <rect x="350" y="80" width="500" height="180" rx="6" fill="#0a1828" stroke="#22aacc" stroke-width="2" opacity="0.95"/>
      <text x="600" y="110" font-family="monospace" font-size="18" fill="#22aacc" text-anchor="middle" font-weight="bold">Fish On!</text>

      <!-- Tension bar -->
      <text x="370" y="140" font-family="monospace" font-size="12" fill="#888">Tension:</text>
      <rect x="450" y="128" width="380" height="18" fill="#0a1828" stroke="#334455" stroke-width="1"/>
      <rect x="451" y="129" width="240" height="16" fill="#22aa66"/>
      <rect x="691" y="128" width="4" height="18" fill="#ff4444"/>
      <text x="640" y="142" font-family="monospace" font-size="10" fill="#fff" text-anchor="middle">63%</text>

      <!-- Catch preview -->
      <rect x="370" y="160" width="80" height="80" rx="4" fill="#0e2040" stroke="#334455" stroke-width="1"/>
      <text x="410" y="200" font-family="monospace" font-size="24" fill="#22aacc" text-anchor="middle">?</text>
      <text x="470" y="190" font-family="monospace" font-size="14" fill="#fff">Rare catch detected!</text>
      <text x="470" y="210" font-family="monospace" font-size="11" fill="#888">Saltmarsh Harbor - Coastal waters</text>
      <text x="470" y="230" font-family="monospace" font-size="11" fill="#44aa44">Fish Journal: 12 / 38 species</text>
    
  <!-- Title banner -->
  <rect x="0" y="620" width="1200" height="55" fill="#000" opacity="0.7"/>
  <text x="24" y="653" font-family="monospace" font-size="22" fill="#22aacc" font-weight="bold">Fishing & Exploration</text>
  <text x="24" y="669" font-family="monospace" font-size="12" fill="#888">Zone-specific catches with fish journal</text>
  <text x="1176" y="663" font-family="monospace" font-size="11" fill="#555" text-anchor="end">PixelRealm MMORPG</text>
</svg>