<svg xmlns="http://www.w3.org/2000/svg" width="1200" height="675" viewBox="0 0 1200 675" style="image-rendering: pixelated;">
  <defs><style>text { font-family: monospace; }</style></defs>
  <rect width="1200" height="675" fill="#0d0800"/>
  <rect width="1200" height="675" fill="#1a150d" opacity="0.3"/>
  
      <rect x="100" y="60" width="1000" height="540" rx="8" fill="#0d0a04" stroke="#554422" stroke-width="2"/>
      <text x="600" y="96" font-family="monospace" font-size="22" fill="#ffaa00" text-anchor="middle" font-weight="bold">Guild Territory Map</text>

      <!-- Grid territories -->
      
          <rect x="140" y="120" width="210" height="95" rx="4" fill="#443322" stroke="#ffaa00" stroke-width="2" opacity="0.8"/>
          <text x="245" y="155" font-family="monospace" font-size="11" fill="#fff" text-anchor="middle">Dragon Slayers</text>
          <text x="245" y="175" font-family="monospace" font-size="9" fill="#aaa" text-anchor="middle">Power: 500</text>
          <rect x="220" y="185" width="50" height="18" rx="2" fill="#442200" stroke="#664400" stroke-width="1"/>
          <text x="245" y="198" font-family="monospace" font-size="9" fill="#ffaa44" text-anchor="middle">WAR</text>
        
          <rect x="370" y="120" width="210" height="95" rx="4" fill="#224433" stroke="#ffaa00" stroke-width="2" opacity="0.8"/>
          <text x="475" y="155" font-family="monospace" font-size="11" fill="#fff" text-anchor="middle">Shadow Guild</text>
          <text x="475" y="175" font-family="monospace" font-size="9" fill="#aaa" text-anchor="middle">Power: 620</text>
          <rect x="450" y="185" width="50" height="18" rx="2" fill="#442200" stroke="#664400" stroke-width="1"/>
          <text x="475" y="198" font-family="monospace" font-size="9" fill="#ffaa44" text-anchor="middle">WAR</text>
        
          <rect x="600" y="120" width="210" height="95" rx="4" fill="#332244" stroke="#ffaa00" stroke-width="2" opacity="0.8"/>
          <text x="705" y="155" font-family="monospace" font-size="11" fill="#fff" text-anchor="middle">Iron Forge</text>
          <text x="705" y="175" font-family="monospace" font-size="9" fill="#aaa" text-anchor="middle">Power: 740</text>
          <rect x="680" y="185" width="50" height="18" rx="2" fill="#442200" stroke="#664400" stroke-width="1"/>
          <text x="705" y="198" font-family="monospace" font-size="9" fill="#ffaa44" text-anchor="middle">WAR</text>
        
          <rect x="830" y="120" width="210" height="95" rx="4" fill="#1a1a1a" stroke="#333" stroke-width="1" opacity="0.8"/>
          <text x="935" y="155" font-family="monospace" font-size="11" fill="#555" text-anchor="middle">Unclaimed</text>
          <text x="935" y="175" font-family="monospace" font-size="9" fill="#444" text-anchor="middle">Available</text>
          
        
          <rect x="140" y="235" width="210" height="95" rx="4" fill="#333322" stroke="#ffaa00" stroke-width="2" opacity="0.8"/>
          <text x="245" y="270" font-family="monospace" font-size="11" fill="#fff" text-anchor="middle">Astral Order</text>
          <text x="245" y="290" font-family="monospace" font-size="9" fill="#aaa" text-anchor="middle">Power: 980</text>
          <rect x="220" y="300" width="50" height="18" rx="2" fill="#442200" stroke="#664400" stroke-width="1"/>
          <text x="245" y="313" font-family="monospace" font-size="9" fill="#ffaa44" text-anchor="middle">WAR</text>
        
          <rect x="370" y="235" width="210" height="95" rx="4" fill="#223344" stroke="#ffaa00" stroke-width="2" opacity="0.8"/>
          <text x="475" y="270" font-family="monospace" font-size="11" fill="#fff" text-anchor="middle">Night Watch</text>
          <text x="475" y="290" font-family="monospace" font-size="9" fill="#aaa" text-anchor="middle">Power: 1100</text>
          <rect x="450" y="300" width="50" height="18" rx="2" fill="#442200" stroke="#664400" stroke-width="1"/>
          <text x="475" y="313" font-family="monospace" font-size="9" fill="#ffaa44" text-anchor="middle">WAR</text>
        
          <rect x="600" y="235" width="210" height="95" rx="4" fill="#443322" stroke="#ffaa00" stroke-width="2" opacity="0.8"/>
          <text x="705" y="270" font-family="monospace" font-size="11" fill="#fff" text-anchor="middle">Dragon Slayers</text>
          <text x="705" y="290" font-family="monospace" font-size="9" fill="#aaa" text-anchor="middle">Power: 1220</text>
          <rect x="680" y="300" width="50" height="18" rx="2" fill="#442200" stroke="#664400" stroke-width="1"/>
          <text x="705" y="313" font-family="monospace" font-size="9" fill="#ffaa44" text-anchor="middle">WAR</text>
        
          <rect x="830" y="235" width="210" height="95" rx="4" fill="#224433" stroke="#ffaa00" stroke-width="2" opacity="0.8"/>
          <text x="935" y="270" font-family="monospace" font-size="11" fill="#fff" text-anchor="middle">Shadow Guild</text>
          <text x="935" y="290" font-family="monospace" font-size="9" fill="#aaa" text-anchor="middle">Power: 1340</text>
          <rect x="910" y="300" width="50" height="18" rx="2" fill="#442200" stroke="#664400" stroke-width="1"/>
          <text x="935" y="313" font-family="monospace" font-size="9" fill="#ffaa44" text-anchor="middle">WAR</text>
        
          <rect x="140" y="350" width="210" height="95" rx="4" fill="#332244" stroke="#ffaa00" stroke-width="2" opacity="0.8"/>
          <text x="245" y="385" font-family="monospace" font-size="11" fill="#fff" text-anchor="middle">Iron Forge</text>
          <text x="245" y="405" font-family="monospace" font-size="9" fill="#aaa" text-anchor="middle">Power: 1460</text>
          <rect x="220" y="415" width="50" height="18" rx="2" fill="#442200" stroke="#664400" stroke-width="1"/>
          <text x="245" y="428" font-family="monospace" font-size="9" fill="#ffaa44" text-anchor="middle">WAR</text>
        
          <rect x="370" y="350" width="210" height="95" rx="4" fill="#1a1a1a" stroke="#333" stroke-width="1" opacity="0.8"/>
          <text x="475" y="385" font-family="monospace" font-size="11" fill="#555" text-anchor="middle">Unclaimed</text>
          <text x="475" y="405" font-family="monospace" font-size="9" fill="#444" text-anchor="middle">Available</text>
          
        
          <rect x="600" y="350" width="210" height="95" rx="4" fill="#333322" stroke="#ffaa00" stroke-width="2" opacity="0.8"/>
          <text x="705" y="385" font-family="monospace" font-size="11" fill="#fff" text-anchor="middle">Astral Order</text>
          <text x="705" y="405" font-family="monospace" font-size="9" fill="#aaa" text-anchor="middle">Power: 1700</text>
          <rect x="680" y="415" width="50" height="18" rx="2" fill="#442200" stroke="#664400" stroke-width="1"/>
          <text x="705" y="428" font-family="monospace" font-size="9" fill="#ffaa44" text-anchor="middle">WAR</text>
        
          <rect x="830" y="350" width="210" height="95" rx="4" fill="#223344" stroke="#ffaa00" stroke-width="2" opacity="0.8"/>
          <text x="935" y="385" font-family="monospace" font-size="11" fill="#fff" text-anchor="middle">Night Watch</text>
          <text x="935" y="405" font-family="monospace" font-size="9" fill="#aaa" text-anchor="middle">Power: 1820</text>
          <rect x="910" y="415" width="50" height="18" rx="2" fill="#442200" stroke="#664400" stroke-width="1"/>
          <text x="935" y="428" font-family="monospace" font-size="9" fill="#ffaa44" text-anchor="middle">WAR</text>
        
          <rect x="140" y="465" width="210" height="95" rx="4" fill="#443322" stroke="#ffaa00" stroke-width="2" opacity="0.8"/>
          <text x="245" y="500" font-family="monospace" font-size="11" fill="#fff" text-anchor="middle">Dragon Slayers</text>
          <text x="245" y="520" font-family="monospace" font-size="9" fill="#aaa" text-anchor="middle">Power: 1940</text>
          <rect x="220" y="530" width="50" height="18" rx="2" fill="#442200" stroke="#664400" stroke-width="1"/>
          <text x="245" y="543" font-family="monospace" font-size="9" fill="#ffaa44" text-anchor="middle">WAR</text>
        
          <rect x="370" y="465" width="210" height="95" rx="4" fill="#224433" stroke="#ffaa00" stroke-width="2" opacity="0.8"/>
          <text x="475" y="500" font-family="monospace" font-size="11" fill="#fff" text-anchor="middle">Shadow Guild</text>
          <text x="475" y="520" font-family="monospace" font-size="9" fill="#aaa" text-anchor="middle">Power: 2060</text>
          <rect x="450" y="530" width="50" height="18" rx="2" fill="#442200" stroke="#664400" stroke-width="1"/>
          <text x="475" y="543" font-family="monospace" font-size="9" fill="#ffaa44" text-anchor="middle">WAR</text>
        
          <rect x="600" y="465" width="210" height="95" rx="4" fill="#332244" stroke="#ffaa00" stroke-width="2" opacity="0.8"/>
          <text x="705" y="500" font-family="monospace" font-size="11" fill="#fff" text-anchor="middle">Iron Forge</text>
          <text x="705" y="520" font-family="monospace" font-size="9" fill="#aaa" text-anchor="middle">Power: 2180</text>
          <rect x="680" y="530" width="50" height="18" rx="2" fill="#442200" stroke="#664400" stroke-width="1"/>
          <text x="705" y="543" font-family="monospace" font-size="9" fill="#ffaa44" text-anchor="middle">WAR</text>
        
          <rect x="830" y="465" width="210" height="95" rx="4" fill="#1a1a1a" stroke="#333" stroke-width="1" opacity="0.8"/>
          <text x="935" y="500" font-family="monospace" font-size="11" fill="#555" text-anchor="middle">Unclaimed</text>
          <text x="935" y="520" font-family="monospace" font-size="9" fill="#444" text-anchor="middle">Available</text>
          
        
    
  <!-- Title banner -->
  <rect x="0" y="620" width="1200" height="55" fill="#000" opacity="0.7"/>
  <text x="24" y="653" font-family="monospace" font-size="22" fill="#ffaa00" font-weight="bold">Guild Wars & Territory</text>
  <text x="24" y="669" font-family="monospace" font-size="12" fill="#888">Claim territory, wage war, build your guild</text>
  <text x="1176" y="663" font-family="monospace" font-size="11" fill="#555" text-anchor="end">PixelRealm MMORPG</text>
</svg>