<svg xmlns="http://www.w3.org/2000/svg" width="16" height="16" viewBox="0 0 16 16" style="image-rendering:pixelated;"><!-- Mouse input glyph — 16×16 pixel art --><rect x="5" y="2" width="6" height="1" fill="#0d0d0d"/><rect x="4" y="3" width="1" height="1" fill="#0d0d0d"/><rect x="11" y="3" width="1" height="1" fill="#0d0d0d"/><rect x="3" y="4" width="1" height="9" fill="#0d0d0d"/><rect x="12" y="4" width="1" height="9" fill="#0d0d0d"/><rect x="4" y="13" width="1" height="1" fill="#0d0d0d"/><rect x="11" y="13" width="1" height="1" fill="#0d0d0d"/><rect x="5" y="14" width="6" height="1" fill="#0d0d0d"/><rect x="5" y="3" width="6" height="1" fill="#2b2b2b"/><rect x="4" y="4" width="8" height="9" fill="#2b2b2b"/><rect x="5" y="13" width="6" height="1" fill="#2b2b2b"/><rect x="4" y="4" width="3" height="3" fill="#6e6e6e"/><rect x="9" y="4" width="3" height="3" fill="#6e6e6e"/><rect x="7" y="3" width="2" height="5" fill="#0d0d0d"/><rect x="7" y="4" width="2" height="2" fill="#50a8e8"/><rect x="4" y="4" width="3" height="3" fill="#50a8e8" opacity="0.4"/></svg>