<svg xmlns="http://www.w3.org/2000/svg" width="16" height="16" viewBox="0 0 16 16" style="image-rendering:pixelated;"><!-- Colorblind-safe weaken debuff — broken sword + zigzag, 16×16 --><rect x="7" y="1" width="2" height="5" fill="#c0c0c0"/><rect x="6" y="1" width="1" height="1" fill="#999999"/><rect x="9" y="1" width="1" height="1" fill="#999999"/><rect x="6" y="6" width="1" height="1" fill="#ff4444"/><rect x="7" y="7" width="1" height="1" fill="#ff4444"/><rect x="8" y="6" width="1" height="1" fill="#ff4444"/><rect x="9" y="7" width="1" height="1" fill="#ff4444"/><rect x="8" y="8" width="2" height="4" fill="#c0c0c0"/><rect x="10" y="8" width="1" height="1" fill="#999999"/><rect x="5" y="5" width="6" height="1" fill="#e87020"/><rect x="7" y="12" width="2" height="2" fill="#e87020"/><rect x="3" y="10" width="1" height="1" fill="#ff4444"/><rect x="4" y="11" width="1" height="1" fill="#ff4444"/><rect x="2" y="11" width="1" height="1" fill="#ff4444"/><rect x="3" y="12" width="1" height="1" fill="#ff4444"/></svg>