<svg xmlns="http://www.w3.org/2000/svg" width="16" height="16" viewBox="0 0 16 16" style="image-rendering:pixelated;"><!-- Colorblind-safe defense buff — shield + horizontal bars, 16×16 --><rect x="2" y="1" width="12" height="1" fill="#50a8e8"/><rect x="1" y="2" width="1" height="8" fill="#50a8e8"/><rect x="14" y="2" width="1" height="8" fill="#50a8e8"/><rect x="2" y="10" width="1" height="1" fill="#50a8e8"/><rect x="13" y="10" width="1" height="1" fill="#50a8e8"/><rect x="3" y="11" width="1" height="1" fill="#50a8e8"/><rect x="12" y="11" width="1" height="1" fill="#50a8e8"/><rect x="4" y="12" width="1" height="1" fill="#50a8e8"/><rect x="11" y="12" width="1" height="1" fill="#50a8e8"/><rect x="5" y="13" width="1" height="1" fill="#50a8e8"/><rect x="10" y="13" width="1" height="1" fill="#50a8e8"/><rect x="6" y="14" width="4" height="1" fill="#50a8e8"/><rect x="3" y="3" width="10" height="1" fill="#ffffff"/><rect x="3" y="6" width="10" height="1" fill="#ffffff"/><rect x="4" y="9" width="8" height="1" fill="#ffffff"/></svg>