<svg xmlns="http://www.w3.org/2000/svg" width="16" height="16" viewBox="0 0 16 16" style="image-rendering:pixelated;"><!-- Touch/finger input glyph — 16×16 pixel art --><rect x="6" y="1" width="4" height="1" fill="#f0f0f0"/><rect x="5" y="2" width="6" height="1" fill="#f0f0f0"/><rect x="5" y="3" width="6" height="1" fill="#f0f0f0"/><rect x="5" y="4" width="6" height="1" fill="#f0f0f0"/><rect x="5" y="5" width="6" height="1" fill="#f0f0f0"/><rect x="5" y="6" width="6" height="1" fill="#f0f0f0"/><rect x="5" y="7" width="6" height="1" fill="#f0f0f0"/><rect x="6" y="8" width="4" height="1" fill="#f0f0f0"/><rect x="6" y="0" width="4" height="1" fill="#0d0d0d"/><rect x="5" y="1" width="1" height="1" fill="#0d0d0d"/><rect x="10" y="1" width="1" height="1" fill="#0d0d0d"/><rect x="4" y="2" width="1" height="7" fill="#0d0d0d"/><rect x="11" y="2" width="1" height="7" fill="#0d0d0d"/><rect x="5" y="8" width="1" height="1" fill="#0d0d0d"/><rect x="10" y="8" width="1" height="1" fill="#0d0d0d"/><rect x="6" y="9" width="4" height="1" fill="#0d0d0d"/><rect x="3" y="10" width="10" height="1" fill="#50a8e8" opacity="0.7"/><rect x="2" y="11" width="1" height="1" fill="#50a8e8" opacity="0.7"/><rect x="13" y="11" width="1" height="1" fill="#50a8e8" opacity="0.7"/><rect x="2" y="12" width="1" height="1" fill="#50a8e8" opacity="0.5"/><rect x="13" y="12" width="1" height="1" fill="#50a8e8" opacity="0.5"/><rect x="1" y="11" width="1" height="3" fill="#50a8e8" opacity="0.3"/><rect x="14" y="11" width="1" height="3" fill="#50a8e8" opacity="0.3"/><rect x="2" y="14" width="12" height="1" fill="#50a8e8" opacity="0.3"/><rect x="3" y="13" width="10" height="1" fill="#50a8e8" opacity="0.5"/></svg>