<svg xmlns="http://www.w3.org/2000/svg" width="16" height="16" viewBox="0 0 16 16" style="image-rendering:pixelated;"><!-- Colorblind-safe speed buff — diamond + diagonals, 16×16 --><rect x="7" y="1" width="2" height="1" fill="#ffd700"/><rect x="6" y="2" width="1" height="1" fill="#ffd700"/><rect x="9" y="2" width="1" height="1" fill="#ffd700"/><rect x="5" y="3" width="1" height="1" fill="#ffd700"/><rect x="10" y="3" width="1" height="1" fill="#ffd700"/><rect x="4" y="4" width="1" height="1" fill="#ffd700"/><rect x="11" y="4" width="1" height="1" fill="#ffd700"/><rect x="3" y="5" width="1" height="1" fill="#ffd700"/><rect x="12" y="5" width="1" height="1" fill="#ffd700"/><rect x="2" y="6" width="1" height="1" fill="#ffd700"/><rect x="13" y="6" width="1" height="1" fill="#ffd700"/><rect x="1" y="7" width="1" height="2" fill="#ffd700"/><rect x="14" y="7" width="1" height="2" fill="#ffd700"/><rect x="2" y="9" width="1" height="1" fill="#ffd700"/><rect x="13" y="9" width="1" height="1" fill="#ffd700"/><rect x="3" y="10" width="1" height="1" fill="#ffd700"/><rect x="12" y="10" width="1" height="1" fill="#ffd700"/><rect x="4" y="11" width="1" height="1" fill="#ffd700"/><rect x="11" y="11" width="1" height="1" fill="#ffd700"/><rect x="5" y="12" width="1" height="1" fill="#ffd700"/><rect x="10" y="12" width="1" height="1" fill="#ffd700"/><rect x="6" y="13" width="1" height="1" fill="#ffd700"/><rect x="9" y="13" width="1" height="1" fill="#ffd700"/><rect x="7" y="14" width="2" height="1" fill="#ffd700"/><rect x="5" y="5" width="1" height="1" fill="#ffffff"/><rect x="6" y="6" width="1" height="1" fill="#ffffff"/><rect x="7" y="7" width="2" height="1" fill="#ffffff"/><rect x="9" y="6" width="1" height="1" fill="#ffffff"/><rect x="10" y="5" width="1" height="1" fill="#ffffff"/><rect x="4" y="8" width="3" height="1" fill="#ffffff"/><rect x="5" y="10" width="2" height="1" fill="#ffffff"/><rect x="9" y="8" width="3" height="1" fill="#ffffff"/><rect x="9" y="10" width="2" height="1" fill="#ffffff"/></svg>