<svg xmlns="http://www.w3.org/2000/svg" width="16" height="16" viewBox="0 0 16 16" style="image-rendering:pixelated;"><!-- ESC key — 16×16 pixel art --><rect x="2" y="3" width="12" height="10" fill="#2b2b2b"/><rect x="2" y="3" width="12" height="1" fill="#6e6e6e"/><rect x="2" y="12" width="12" height="1" fill="#6e6e6e"/><rect x="2" y="4" width="1" height="8" fill="#6e6e6e"/><rect x="13" y="4" width="1" height="8" fill="#6e6e6e"/><rect x="3" y="4" width="10" height="1" fill="#0d0d0d"/><rect x="3" y="11" width="10" height="1" fill="#0d0d0d"/><rect x="3" y="5" width="1" height="6" fill="#0d0d0d"/><rect x="12" y="5" width="1" height="6" fill="#0d0d0d"/><rect x="4" y="5" width="1" height="5" fill="#ffffff"/><rect x="5" y="5" width="1" height="1" fill="#ffffff"/><rect x="5" y="7" width="1" height="1" fill="#ffffff"/><rect x="5" y="9" width="1" height="1" fill="#ffffff"/><rect x="7" y="5" width="2" height="1" fill="#ffffff"/><rect x="7" y="7" width="2" height="1" fill="#ffffff"/><rect x="7" y="9" width="2" height="1" fill="#ffffff"/><rect x="7" y="6" width="1" height="1" fill="#ffffff"/><rect x="8" y="8" width="1" height="1" fill="#ffffff"/><rect x="10" y="5" width="2" height="1" fill="#ffffff"/><rect x="10" y="9" width="2" height="1" fill="#ffffff"/><rect x="10" y="6" width="1" height="3" fill="#ffffff"/></svg>