<svg xmlns="http://www.w3.org/2000/svg" width="32" height="32" viewBox="0 0 32 32" style="image-rendering:pixelated;"><!-- Dialog frame 2x — 32×32, 9-slice compatible --><rect x="0" y="0" width="32" height="2" fill="#0d0d0d"/><rect x="0" y="30" width="32" height="2" fill="#0d0d0d"/><rect x="0" y="0" width="2" height="32" fill="#0d0d0d"/><rect x="30" y="0" width="2" height="32" fill="#0d0d0d"/><rect x="2" y="2" width="28" height="1" fill="#6e6e6e"/><rect x="2" y="29" width="28" height="1" fill="#6e6e6e"/><rect x="2" y="2" width="1" height="28" fill="#6e6e6e"/><rect x="29" y="2" width="1" height="28" fill="#6e6e6e"/><rect x="3" y="3" width="26" height="26" fill="#1a1a2e"/><rect x="3" y="2" width="26" height="2" fill="#50a8e8"/><rect x="2" y="2" width="2" height="2" fill="#ffd700"/><rect x="28" y="2" width="2" height="2" fill="#ffd700"/><rect x="2" y="28" width="2" height="2" fill="#ffd700"/><rect x="28" y="28" width="2" height="2" fill="#ffd700"/><rect x="3" y="4" width="26" height="2" fill="#111128"/><rect x="3" y="4" width="2" height="24" fill="#111128"/><rect x="4" y="6" width="24" height="1" fill="#6e6e6e" opacity="0.5"/></svg>