<svg xmlns="http://www.w3.org/2000/svg" width="16" height="16" viewBox="0 0 16 16" style="image-rendering:pixelated;"><!-- Dialog frame 1x — 16×16, 9-slice compatible --><rect x="0" y="0" width="16" height="1" fill="#0d0d0d"/><rect x="0" y="15" width="16" height="1" fill="#0d0d0d"/><rect x="0" y="1" width="1" height="14" fill="#0d0d0d"/><rect x="15" y="1" width="1" height="14" fill="#0d0d0d"/><rect x="1" y="1" width="14" height="1" fill="#6e6e6e"/><rect x="1" y="14" width="14" height="1" fill="#6e6e6e"/><rect x="1" y="2" width="1" height="12" fill="#6e6e6e"/><rect x="14" y="2" width="1" height="12" fill="#6e6e6e"/><rect x="2" y="2" width="12" height="12" fill="#1a1a2e"/><rect x="2" y="1" width="12" height="1" fill="#50a8e8"/><rect x="1" y="1" width="1" height="1" fill="#ffd700"/><rect x="14" y="1" width="1" height="1" fill="#ffd700"/><rect x="1" y="14" width="1" height="1" fill="#ffd700"/><rect x="14" y="14" width="1" height="1" fill="#ffd700"/><rect x="2" y="2" width="12" height="1" fill="#111128"/><rect x="2" y="2" width="1" height="12" fill="#111128"/></svg>