<svg xmlns="http://www.w3.org/2000/svg" width="960" height="540" viewBox="0 0 960 540" style="image-rendering: pixelated;">
  <!-- === BACKGROUND === -->
  <rect width="960" height="540" fill="#0d0d1a"/>

  <!-- === THREE-PANEL COMPARISON === -->

  <!-- Panel dividers -->
  <line x1="320" y1="0" x2="320" y2="540" stroke="#4a4a5a" stroke-width="2"/>
  <line x1="640" y1="0" x2="640" y2="540" stroke="#4a4a5a" stroke-width="2"/>

  <!-- ===== PANEL 1: UI SCALE 1x (Small) ===== -->
  <g transform="translate(0, 0)">
    <!-- Background scene -->
    <rect width="320" height="540" fill="#1a3a1a"/>
    <rect width="320" height="120" fill="#2a5a8a"/>
    <rect y="120" width="320" height="30" fill="#1a4a6a"/>
    <!-- Mountains -->
    <g fill="#0d2e0d" opacity="0.5">
      <polygon points="0,150 40,100 80,150"/>
      <polygon points="60,150 110,90 160,150"/>
      <polygon points="140,150 190,105 240,150"/>
      <polygon points="220,150 270,95 320,150"/>
    </g>
    <!-- Ground -->
    <rect y="150" width="320" height="390" fill="#2d6e2d"/>
    <rect y="150" width="320" height="4" fill="#4c9b4c"/>

    <!-- Player (small) -->
    <g transform="translate(140, 220)">
      <rect x="4" y="20" width="16" height="20" fill="#50a8e8"/>
      <rect x="6" y="6" width="12" height="14" fill="#f8a060"/>
      <rect x="8" y="12" width="3" height="3" fill="#0d0d0d"/>
      <rect x="13" y="12" width="3" height="3" fill="#0d0d0d"/>
      <rect x="4" y="2" width="16" height="6" fill="#6b3a1f"/>
      <rect x="6" y="40" width="5" height="8" fill="#1a4a8a"/>
      <rect x="13" y="40" width="5" height="8" fill="#1a4a8a"/>
    </g>

    <!-- 1x HUD: tiny elements -->
    <!-- HP bar -->
    <g transform="translate(6, 6)">
      <rect width="80" height="10" rx="1" fill="#0d0d0d" opacity="0.8"/>
      <rect x="1" y="1" width="78" height="8" fill="#1a1a1a"/>
      <rect x="2" y="2" width="54" height="6" fill="#d42020"/>
      <text x="60" y="7" fill="#f0f0f0" font-family="monospace" font-size="5">72</text>
    </g>
    <!-- MP bar -->
    <g transform="translate(6, 18)">
      <rect width="80" height="10" rx="1" fill="#0d0d0d" opacity="0.8"/>
      <rect x="1" y="1" width="78" height="8" fill="#1a1a1a"/>
      <rect x="2" y="2" width="64" height="6" fill="#2a7ac0"/>
      <text x="60" y="7" fill="#f0f0f0" font-family="monospace" font-size="5">83</text>
    </g>

    <!-- 1x Minimap (tiny) -->
    <g transform="translate(258, 6)">
      <rect width="56" height="42" rx="1" fill="#0d0d0d" opacity="0.8"/>
      <rect x="1" y="1" width="54" height="40" fill="#1a3a1a"/>
      <rect x="25" y="18" width="3" height="3" fill="#f0f0f0"/>
    </g>

    <!-- 1x Action bar (tiny) -->
    <g transform="translate(90, 490)">
      <rect width="140" height="20" rx="1" fill="#0d0d0d" opacity="0.8"/>
      <rect x="2" y="2" width="16" height="16" fill="#2a2a4a" stroke="#d42020" stroke-width="1"/>
      <text x="10" y="15" fill="#f0f0f0" font-family="monospace" font-size="8" text-anchor="middle">1</text>
      <rect x="20" y="2" width="16" height="16" fill="#2a2a4a" stroke="#d42020" stroke-width="1"/>
      <text x="28" y="15" fill="#f0f0f0" font-family="monospace" font-size="8" text-anchor="middle">2</text>
      <rect x="38" y="2" width="16" height="16" fill="#2a2a4a" stroke="#d42020" stroke-width="1"/>
      <text x="46" y="15" fill="#f0f0f0" font-family="monospace" font-size="8" text-anchor="middle">3</text>
      <rect x="56" y="2" width="16" height="16" fill="#2a2a4a" stroke="#d42020" stroke-width="1"/>
      <text x="64" y="15" fill="#f0f0f0" font-family="monospace" font-size="8" text-anchor="middle">4</text>
      <rect x="74" y="2" width="16" height="16" fill="#2a2a4a" stroke="#d42020" stroke-width="1"/>
      <text x="82" y="15" fill="#f0f0f0" font-family="monospace" font-size="8" text-anchor="middle">5</text>
      <rect x="100" y="2" width="16" height="16" fill="#2a2a4a" stroke="#50a8e8" stroke-width="1"/>
      <rect x="118" y="2" width="16" height="16" fill="#2a2a4a" stroke="#50a8e8" stroke-width="1"/>
    </g>

    <!-- Scale label -->
    <g transform="translate(110, 520)">
      <rect width="100" height="18" rx="2" fill="#1a1a2a" stroke="#50a8e8" stroke-width="1"/>
      <text x="50" y="13" fill="#50a8e8" font-family="monospace" font-size="10" text-anchor="middle" font-weight="bold">UI SCALE: 1x</text>
    </g>
  </g>

  <!-- ===== PANEL 2: UI SCALE 2x (Medium - DEFAULT) ===== -->
  <g transform="translate(320, 0)">
    <!-- Background scene -->
    <rect width="320" height="540" fill="#1a3a1a"/>
    <rect width="320" height="120" fill="#2a5a8a"/>
    <rect y="120" width="320" height="30" fill="#1a4a6a"/>
    <g fill="#0d2e0d" opacity="0.5">
      <polygon points="0,150 40,100 80,150"/>
      <polygon points="60,150 110,90 160,150"/>
      <polygon points="140,150 190,105 240,150"/>
      <polygon points="220,150 270,95 320,150"/>
    </g>
    <rect y="150" width="320" height="390" fill="#2d6e2d"/>
    <rect y="150" width="320" height="4" fill="#4c9b4c"/>

    <!-- Player -->
    <g transform="translate(135, 210)">
      <rect x="4" y="20" width="16" height="20" fill="#50a8e8"/>
      <rect x="6" y="6" width="12" height="14" fill="#f8a060"/>
      <rect x="8" y="12" width="3" height="3" fill="#0d0d0d"/>
      <rect x="13" y="12" width="3" height="3" fill="#0d0d0d"/>
      <rect x="4" y="2" width="16" height="6" fill="#6b3a1f"/>
      <rect x="6" y="40" width="5" height="8" fill="#1a4a8a"/>
      <rect x="13" y="40" width="5" height="8" fill="#1a4a8a"/>
    </g>

    <!-- 2x HUD: medium elements -->
    <!-- HP bar -->
    <g transform="translate(8, 8)">
      <rect width="140" height="18" rx="2" fill="#0d0d0d" opacity="0.8"/>
      <rect x="2" y="2" width="136" height="14" fill="#1a1a1a"/>
      <rect x="3" y="3" width="95" height="12" fill="#d42020"/>
      <!-- Heart icon -->
      <g fill="#f0f0f0" transform="translate(5, 4)">
        <rect x="1" y="0" width="2" height="2"/><rect x="4" y="0" width="2" height="2"/>
        <rect x="0" y="2" width="7" height="2"/><rect x="1" y="4" width="5" height="2"/>
        <rect x="2" y="6" width="3" height="1"/>
      </g>
      <text x="120" y="13" fill="#f0f0f0" font-family="monospace" font-size="9" text-anchor="end">72/100</text>
    </g>
    <!-- MP bar -->
    <g transform="translate(8, 30)">
      <rect width="140" height="18" rx="2" fill="#0d0d0d" opacity="0.8"/>
      <rect x="2" y="2" width="136" height="14" fill="#1a1a1a"/>
      <rect x="3" y="3" width="113" height="12" fill="#2a7ac0"/>
      <g fill="#f0f0f0" transform="translate(5, 4)">
        <rect x="3" y="0" width="2" height="2"/>
        <rect x="1" y="2" width="6" height="2"/>
        <rect x="3" y="4" width="2" height="2"/>
      </g>
      <text x="120" y="13" fill="#f0f0f0" font-family="monospace" font-size="9" text-anchor="end">83/100</text>
    </g>

    <!-- 2x Minimap -->
    <g transform="translate(228, 8)">
      <rect width="84" height="64" rx="2" fill="#0d0d0d" opacity="0.8"/>
      <rect x="2" y="2" width="80" height="60" fill="#1a3a1a"/>
      <rect x="15" y="12" width="24" height="18" fill="#2d6e2d"/>
      <rect x="50" y="25" width="18" height="22" fill="#1a4a8a"/>
      <rect x="38" y="29" width="4" height="4" fill="#f0f0f0"/>
      <rect x="2" y="2" width="80" height="60" fill="none" stroke="#e8b800" stroke-width="1"/>
      <text x="42" y="58" fill="#969696" font-family="monospace" font-size="5" text-anchor="middle">VERDANT HOLLOW</text>
    </g>

    <!-- 2x Action bar -->
    <g transform="translate(60, 480)">
      <rect width="200" height="30" rx="2" fill="#0d0d0d" opacity="0.8"/>
      <rect x="3" y="3" width="24" height="24" fill="#2a2a4a" stroke="#d42020" stroke-width="1"/>
      <text x="15" y="20" fill="#f0f0f0" font-family="monospace" font-size="12" text-anchor="middle">1</text>
      <rect x="30" y="3" width="24" height="24" fill="#2a2a4a" stroke="#d42020" stroke-width="1"/>
      <text x="42" y="20" fill="#f0f0f0" font-family="monospace" font-size="12" text-anchor="middle">2</text>
      <rect x="57" y="3" width="24" height="24" fill="#2a2a4a" stroke="#d42020" stroke-width="1"/>
      <text x="69" y="20" fill="#f0f0f0" font-family="monospace" font-size="12" text-anchor="middle">3</text>
      <rect x="84" y="3" width="24" height="24" fill="#2a2a4a" stroke="#d42020" stroke-width="1"/>
      <text x="96" y="20" fill="#f0f0f0" font-family="monospace" font-size="12" text-anchor="middle">4</text>
      <rect x="111" y="3" width="24" height="24" fill="#2a2a4a" stroke="#d42020" stroke-width="1"/>
      <text x="123" y="20" fill="#f0f0f0" font-family="monospace" font-size="12" text-anchor="middle">5</text>
      <rect x="145" y="3" width="24" height="24" fill="#2a2a4a" stroke="#50a8e8" stroke-width="1"/>
      <rect x="172" y="3" width="24" height="24" fill="#2a2a4a" stroke="#50a8e8" stroke-width="1"/>
    </g>

    <!-- DEFAULT badge -->
    <g transform="translate(90, 515)">
      <rect width="140" height="20" rx="2" fill="#78c878"/>
      <text x="70" y="14" fill="#0d0d0d" font-family="monospace" font-size="10" text-anchor="middle" font-weight="bold">UI SCALE: 2x ★</text>
    </g>
  </g>

  <!-- ===== PANEL 3: UI SCALE 3x (Large) ===== -->
  <g transform="translate(640, 0)">
    <!-- Background scene -->
    <rect width="320" height="540" fill="#1a3a1a"/>
    <rect width="320" height="120" fill="#2a5a8a"/>
    <rect y="120" width="320" height="30" fill="#1a4a6a"/>
    <g fill="#0d2e0d" opacity="0.5">
      <polygon points="0,150 40,100 80,150"/>
      <polygon points="60,150 110,90 160,150"/>
      <polygon points="140,150 190,105 240,150"/>
      <polygon points="220,150 270,95 320,150"/>
    </g>
    <rect y="150" width="320" height="390" fill="#2d6e2d"/>
    <rect y="150" width="320" height="4" fill="#4c9b4c"/>

    <!-- Player -->
    <g transform="translate(130, 200)">
      <rect x="4" y="20" width="16" height="20" fill="#50a8e8"/>
      <rect x="6" y="6" width="12" height="14" fill="#f8a060"/>
      <rect x="8" y="12" width="3" height="3" fill="#0d0d0d"/>
      <rect x="13" y="12" width="3" height="3" fill="#0d0d0d"/>
      <rect x="4" y="2" width="16" height="6" fill="#6b3a1f"/>
      <rect x="6" y="40" width="5" height="8" fill="#1a4a8a"/>
      <rect x="13" y="40" width="5" height="8" fill="#1a4a8a"/>
    </g>

    <!-- 3x HUD: large elements -->
    <!-- HP bar -->
    <g transform="translate(8, 8)">
      <rect width="200" height="26" rx="2" fill="#0d0d0d" opacity="0.8"/>
      <rect x="2" y="2" width="196" height="22" fill="#1a1a1a"/>
      <rect x="3" y="3" width="140" height="20" fill="#d42020"/>
      <rect x="3" y="3" width="140" height="20" fill="none" stroke="#ff6060" stroke-width="2"/>
      <!-- Heart icon large -->
      <g fill="#f0f0f0" transform="translate(6, 5)">
        <rect x="2" y="0" width="4" height="4"/><rect x="8" y="0" width="4" height="4"/>
        <rect x="0" y="4" width="14" height="4"/><rect x="2" y="8" width="10" height="4"/>
        <rect x="4" y="12" width="6" height="2"/>
      </g>
      <text x="175" y="19" fill="#f0f0f0" font-family="monospace" font-size="13" text-anchor="end" font-weight="bold">72/100</text>
    </g>
    <!-- MP bar -->
    <g transform="translate(8, 40)">
      <rect width="200" height="26" rx="2" fill="#0d0d0d" opacity="0.8"/>
      <rect x="2" y="2" width="196" height="22" fill="#1a1a1a"/>
      <rect x="3" y="3" width="164" height="20" fill="#2a7ac0"/>
      <rect x="3" y="3" width="164" height="20" fill="none" stroke="#50a8e8" stroke-width="2" stroke-dasharray="4,2"/>
      <g fill="#f0f0f0" transform="translate(6, 5)">
        <rect x="5" y="0" width="4" height="4"/>
        <rect x="1" y="4" width="12" height="4"/>
        <rect x="5" y="8" width="4" height="4"/>
      </g>
      <text x="175" y="19" fill="#f0f0f0" font-family="monospace" font-size="13" text-anchor="end" font-weight="bold">83/100</text>
    </g>

    <!-- 3x Minimap -->
    <g transform="translate(200, 8)">
      <rect width="112" height="84" rx="3" fill="#0d0d0d" opacity="0.8"/>
      <rect x="2" y="2" width="108" height="80" fill="#1a3a1a"/>
      <rect x="14" y="14" width="32" height="24" fill="#2d6e2d"/>
      <rect x="64" y="30" width="24" height="30" fill="#1a4a8a"/>
      <rect x="50" y="38" width="6" height="6" fill="#f0f0f0"/>
      <rect x="48" y="36" width="10" height="10" fill="none" stroke="#f0f0f0" stroke-width="1" opacity="0.5"/>
      <rect x="2" y="2" width="108" height="80" fill="none" stroke="#e8b800" stroke-width="2"/>
      <text x="56" y="76" fill="#969696" font-family="monospace" font-size="7" text-anchor="middle">VERDANT HOLLOW</text>
    </g>

    <!-- 3x Action bar -->
    <g transform="translate(25, 465)">
      <rect width="270" height="44" rx="3" fill="#0d0d0d" opacity="0.8"/>
      <rect x="4" y="4" width="36" height="36" fill="#2a2a4a" stroke="#d42020" stroke-width="2"/>
      <text x="22" y="28" fill="#f0f0f0" font-family="monospace" font-size="16" text-anchor="middle" font-weight="bold">1</text>
      <rect x="44" y="4" width="36" height="36" fill="#2a2a4a" stroke="#d42020" stroke-width="2"/>
      <text x="62" y="28" fill="#f0f0f0" font-family="monospace" font-size="16" text-anchor="middle" font-weight="bold">2</text>
      <rect x="84" y="4" width="36" height="36" fill="#2a2a4a" stroke="#d42020" stroke-width="2"/>
      <text x="102" y="28" fill="#f0f0f0" font-family="monospace" font-size="16" text-anchor="middle" font-weight="bold">3</text>
      <rect x="124" y="4" width="36" height="36" fill="#2a2a4a" stroke="#d42020" stroke-width="2"/>
      <text x="142" y="28" fill="#f0f0f0" font-family="monospace" font-size="16" text-anchor="middle" font-weight="bold">4</text>
      <rect x="164" y="4" width="36" height="36" fill="#2a2a4a" stroke="#d42020" stroke-width="2"/>
      <text x="182" y="28" fill="#f0f0f0" font-family="monospace" font-size="16" text-anchor="middle" font-weight="bold">5</text>
      <rect x="210" y="4" width="24" height="36" fill="#2a2a4a" stroke="#50a8e8" stroke-width="1"/>
      <rect x="238" y="4" width="24" height="36" fill="#2a2a4a" stroke="#50a8e8" stroke-width="1"/>
    </g>

    <!-- Scale label -->
    <g transform="translate(110, 520)">
      <rect width="100" height="18" rx="2" fill="#1a1a2a" stroke="#ff8040" stroke-width="1"/>
      <text x="50" y="13" fill="#ff8040" font-family="monospace" font-size="10" text-anchor="middle" font-weight="bold">UI SCALE: 3x</text>
    </g>
  </g>

  <!-- === COMPARISON HEADER === -->
  <g transform="translate(230, 0)">
    <rect width="500" height="36" rx="0" fill="#0d0d0d" opacity="0.9"/>
    <rect x="0" y="33" width="500" height="3" fill="#e8b800"/>
    <text x="250" y="22" fill="#e8b800" font-family="monospace" font-size="14" text-anchor="middle" font-weight="bold">ACCESSIBILITY: UI SCALE COMPARISON</text>
  </g>

  <!-- Arrows between panels -->
  <g fill="#e8b800" opacity="0.6">
    <polygon points="314,270 324,265 324,275"/>
    <polygon points="634,270 644,265 644,275"/>
  </g>

  <!-- === V1.4.0 BADGE === -->
  <g transform="translate(0, 0)">
    <rect width="80" height="26" fill="#e8b800"/>
    <rect x="0" y="23" width="80" height="3" fill="#a87000"/>
    <text x="40" y="17" fill="#0d0d0d" font-family="monospace" font-size="11" text-anchor="middle" font-weight="bold">v1.4.0</text>
  </g>
</svg>