<svg xmlns="http://www.w3.org/2000/svg" width="960" height="540" viewBox="0 0 960 540" style="image-rendering: pixelated;">
  <defs>
    <filter id="glow" x="-20%" y="-20%" width="140%" height="140%">
      <feGaussianBlur stdDeviation="1.5" result="blur"/>
      <feMerge>
        <feMergeNode in="blur"/>
        <feMergeNode in="SourceGraphic"/>
      </feMerge>
    </filter>
    <linearGradient id="bgGrad" x1="0" y1="0" x2="0" y2="1">
      <stop offset="0%" stop-color="#0d0d1a"/>
      <stop offset="100%" stop-color="#1a1a2e"/>
    </linearGradient>
  </defs>

  <!-- Background -->
  <rect width="960" height="540" fill="url(#bgGrad)"/>

  <!-- Title -->
  <text x="480" y="44" fill="#ffe040" font-family="monospace" font-size="22" font-weight="bold" text-anchor="middle" letter-spacing="6">CHOOSE YOUR CLASS</text>
  <rect x="180" y="54" width="600" height="2" fill="#ffe040" opacity="0.4"/>

  <!-- Subtitle -->
  <text x="480" y="72" fill="#808090" font-family="monospace" font-size="10" text-anchor="middle" letter-spacing="3">4 CLASSES  ·  12 ARCHETYPES  ·  INFINITE BUILDS</text>

  <!-- ===== WARRIOR COLUMN (x=30) ===== -->
  <g transform="translate(30, 90)">
    <!-- Class card background -->
    <rect width="210" height="420" rx="4" fill="#1e1e30" stroke="#c0392b" stroke-width="2" opacity="0.9"/>

    <!-- Class header -->
    <rect width="210" height="36" rx="4" fill="#c0392b" opacity="0.8"/>
    <text x="105" y="24" fill="#ffffff" font-family="monospace" font-size="14" font-weight="bold" text-anchor="middle" letter-spacing="3">WARRIOR</text>

    <!-- Portrait area -->
    <rect x="55" y="48" width="100" height="100" fill="#2a1520" stroke="#e74c3c" stroke-width="1" rx="2"/>
    <!-- Warrior pixel art (simplified 10x10 grid at 10px per pixel) -->
    <g transform="translate(55, 48)">
      <!-- Helmet -->
      <rect x="30" y="5" width="40" height="10" fill="#a0a0a0"/>
      <rect x="20" y="15" width="60" height="5" fill="#808080"/>
      <!-- Face -->
      <rect x="30" y="20" width="40" height="25" fill="#deb887"/>
      <rect x="35" y="25" width="10" height="5" fill="#2c3e50"/>
      <rect x="55" y="25" width="10" height="5" fill="#2c3e50"/>
      <rect x="40" y="35" width="20" height="5" fill="#c0392b"/>
      <!-- Armor -->
      <rect x="20" y="45" width="60" height="30" fill="#7f8c8d"/>
      <rect x="40" y="50" width="20" height="10" fill="#e74c3c"/>
      <!-- Sword -->
      <rect x="85" y="30" width="5" height="40" fill="#bdc3c7"/>
      <rect x="80" y="28" width="15" height="4" fill="#8e6c2e"/>
    </g>

    <!-- Class description -->
    <text x="105" y="168" fill="#e0e0e0" font-family="monospace" font-size="9" text-anchor="middle">Frontline fighter.</text>
    <text x="105" y="180" fill="#e0e0e0" font-family="monospace" font-size="9" text-anchor="middle">Heavy armor, melee damage.</text>

    <!-- Archetype separator -->
    <rect x="20" y="192" width="170" height="1" fill="#e74c3c" opacity="0.5"/>
    <text x="105" y="207" fill="#e74c3c" font-family="monospace" font-size="8" text-anchor="middle" letter-spacing="2">ARCHETYPES</text>

    <!-- Guardian -->
    <g transform="translate(15, 218)">
      <rect width="180" height="52" rx="3" fill="#251520" stroke="#555" stroke-width="0.5"/>
      <!-- Mini shield icon -->
      <rect x="10" y="8" width="32" height="32" fill="#3a3a50" rx="2"/>
      <rect x="18" y="14" width="16" height="4" fill="#3498db"/>
      <rect x="14" y="18" width="24" height="14" fill="#3498db"/>
      <rect x="18" y="32" width="16" height="4" fill="#3498db"/>
      <rect x="22" y="36" width="8" height="2" fill="#3498db"/>
      <text x="54" y="24" fill="#60c0ff" font-family="monospace" font-size="10" font-weight="bold">Guardian</text>
      <text x="54" y="38" fill="#909090" font-family="monospace" font-size="7">Tank · Shield wall</text>
    </g>

    <!-- Berserker -->
    <g transform="translate(15, 278)">
      <rect width="180" height="52" rx="3" fill="#251520" stroke="#555" stroke-width="0.5"/>
      <rect x="10" y="8" width="32" height="32" fill="#3a3a50" rx="2"/>
      <!-- Axe icon -->
      <rect x="24" y="10" width="4" height="28" fill="#bdc3c7"/>
      <rect x="14" y="12" width="12" height="8" fill="#e74c3c"/>
      <rect x="30" y="12" width="12" height="8" fill="#e74c3c"/>
      <text x="54" y="24" fill="#ff6040" font-family="monospace" font-size="10" font-weight="bold">Berserker</text>
      <text x="54" y="38" fill="#909090" font-family="monospace" font-size="7">DPS · Rage attacks</text>
    </g>

    <!-- Paladin -->
    <g transform="translate(15, 338)">
      <rect width="180" height="52" rx="3" fill="#251520" stroke="#555" stroke-width="0.5"/>
      <rect x="10" y="8" width="32" height="32" fill="#3a3a50" rx="2"/>
      <!-- Holy sword icon -->
      <rect x="24" y="10" width="4" height="24" fill="#f1c40f"/>
      <rect x="18" y="30" width="16" height="4" fill="#8e6c2e"/>
      <rect x="20" y="8" width="12" height="6" fill="#f1c40f" opacity="0.5"/>
      <text x="54" y="24" fill="#f0d060" font-family="monospace" font-size="10" font-weight="bold">Paladin</text>
      <text x="54" y="38" fill="#909090" font-family="monospace" font-size="7">Hybrid · Holy damage</text>
    </g>
  </g>

  <!-- ===== MAGE COLUMN (x=260) ===== -->
  <g transform="translate(260, 90)">
    <rect width="210" height="420" rx="4" fill="#1e1e30" stroke="#8e44ad" stroke-width="2" opacity="0.9"/>

    <rect width="210" height="36" rx="4" fill="#8e44ad" opacity="0.8"/>
    <text x="105" y="24" fill="#ffffff" font-family="monospace" font-size="14" font-weight="bold" text-anchor="middle" letter-spacing="3">MAGE</text>

    <rect x="55" y="48" width="100" height="100" fill="#1a1530" stroke="#9b59b6" stroke-width="1" rx="2"/>
    <g transform="translate(55, 48)">
      <!-- Hat -->
      <rect x="35" y="0" width="30" height="5" fill="#6c3483"/>
      <rect x="30" y="5" width="40" height="5" fill="#8e44ad"/>
      <rect x="25" y="10" width="50" height="8" fill="#9b59b6"/>
      <!-- Face -->
      <rect x="30" y="18" width="40" height="25" fill="#deb887"/>
      <rect x="35" y="23" width="10" height="5" fill="#2c3e50"/>
      <rect x="55" y="23" width="10" height="5" fill="#2c3e50"/>
      <!-- Robe -->
      <rect x="20" y="43" width="60" height="35" fill="#6c3483"/>
      <rect x="40" y="48" width="20" height="10" fill="#9b59b6"/>
      <!-- Staff -->
      <rect x="85" y="15" width="4" height="55" fill="#8b4513"/>
      <rect x="82" y="8" width="10" height="10" fill="#e040ff" filter="url(#glow)"/>
    </g>

    <text x="105" y="168" fill="#e0e0e0" font-family="monospace" font-size="9" text-anchor="middle">Arcane spellcaster.</text>
    <text x="105" y="180" fill="#e0e0e0" font-family="monospace" font-size="9" text-anchor="middle">Elemental magic, range.</text>

    <rect x="20" y="192" width="170" height="1" fill="#9b59b6" opacity="0.5"/>
    <text x="105" y="207" fill="#9b59b6" font-family="monospace" font-size="8" text-anchor="middle" letter-spacing="2">ARCHETYPES</text>

    <!-- Pyromancer -->
    <g transform="translate(15, 218)">
      <rect width="180" height="52" rx="3" fill="#1a1530" stroke="#555" stroke-width="0.5"/>
      <rect x="10" y="8" width="32" height="32" fill="#3a2a40" rx="2"/>
      <rect x="20" y="26" width="12" height="12" fill="#e74c3c"/>
      <rect x="22" y="20" width="8" height="8" fill="#f39c12"/>
      <rect x="24" y="14" width="4" height="8" fill="#f1c40f"/>
      <text x="54" y="24" fill="#ff6030" font-family="monospace" font-size="10" font-weight="bold">Pyromancer</text>
      <text x="54" y="38" fill="#909090" font-family="monospace" font-size="7">DPS · Fire spells</text>
    </g>

    <!-- Frostbinder -->
    <g transform="translate(15, 278)">
      <rect width="180" height="52" rx="3" fill="#1a1530" stroke="#555" stroke-width="0.5"/>
      <rect x="10" y="8" width="32" height="32" fill="#3a2a40" rx="2"/>
      <rect x="18" y="16" width="16" height="16" fill="#3498db"/>
      <rect x="22" y="12" width="8" height="4" fill="#85c1e9"/>
      <rect x="22" y="32" width="8" height="4" fill="#85c1e9"/>
      <rect x="14" y="22" width="4" height="4" fill="#85c1e9"/>
      <rect x="34" y="22" width="4" height="4" fill="#85c1e9"/>
      <text x="54" y="24" fill="#60c0ff" font-family="monospace" font-size="10" font-weight="bold">Frostbinder</text>
      <text x="54" y="38" fill="#909090" font-family="monospace" font-size="7">Control · Ice magic</text>
    </g>

    <!-- Arcanist -->
    <g transform="translate(15, 338)">
      <rect width="180" height="52" rx="3" fill="#1a1530" stroke="#555" stroke-width="0.5"/>
      <rect x="10" y="8" width="32" height="32" fill="#3a2a40" rx="2"/>
      <rect x="20" y="14" width="12" height="20" fill="#8e44ad"/>
      <rect x="24" y="10" width="4" height="4" fill="#e040ff" filter="url(#glow)"/>
      <rect x="16" y="24" width="4" height="4" fill="#d580ff"/>
      <rect x="32" y="20" width="4" height="4" fill="#d580ff"/>
      <text x="54" y="24" fill="#c080ff" font-family="monospace" font-size="10" font-weight="bold">Arcanist</text>
      <text x="54" y="38" fill="#909090" font-family="monospace" font-size="7">Burst · Arcane power</text>
    </g>
  </g>

  <!-- ===== RANGER COLUMN (x=490) ===== -->
  <g transform="translate(490, 90)">
    <rect width="210" height="420" rx="4" fill="#1e1e30" stroke="#27ae60" stroke-width="2" opacity="0.9"/>

    <rect width="210" height="36" rx="4" fill="#27ae60" opacity="0.8"/>
    <text x="105" y="24" fill="#ffffff" font-family="monospace" font-size="14" font-weight="bold" text-anchor="middle" letter-spacing="3">RANGER</text>

    <rect x="55" y="48" width="100" height="100" fill="#152a1a" stroke="#2ecc71" stroke-width="1" rx="2"/>
    <g transform="translate(55, 48)">
      <!-- Hood -->
      <rect x="30" y="5" width="40" height="15" fill="#196f3d"/>
      <rect x="25" y="15" width="50" height="5" fill="#1e8449"/>
      <!-- Face -->
      <rect x="32" y="20" width="36" height="22" fill="#deb887"/>
      <rect x="37" y="25" width="8" height="4" fill="#2c3e50"/>
      <rect x="55" y="25" width="8" height="4" fill="#2c3e50"/>
      <!-- Tunic -->
      <rect x="25" y="42" width="50" height="30" fill="#1e8449"/>
      <rect x="40" y="46" width="20" height="8" fill="#27ae60"/>
      <!-- Bow -->
      <rect x="82" y="20" width="3" height="45" fill="#8b4513"/>
      <rect x="84" y="18" width="1" height="50" fill="#bdc3c7" opacity="0.6"/>
    </g>

    <text x="105" y="168" fill="#e0e0e0" font-family="monospace" font-size="9" text-anchor="middle">Precision striker.</text>
    <text x="105" y="180" fill="#e0e0e0" font-family="monospace" font-size="9" text-anchor="middle">Ranged attacks, agility.</text>

    <rect x="20" y="192" width="170" height="1" fill="#2ecc71" opacity="0.5"/>
    <text x="105" y="207" fill="#2ecc71" font-family="monospace" font-size="8" text-anchor="middle" letter-spacing="2">ARCHETYPES</text>

    <!-- Sharpshooter -->
    <g transform="translate(15, 218)">
      <rect width="180" height="52" rx="3" fill="#152a1a" stroke="#555" stroke-width="0.5"/>
      <rect x="10" y="8" width="32" height="32" fill="#1a3a20" rx="2"/>
      <!-- Arrow icon -->
      <rect x="16" y="22" width="20" height="3" fill="#bdc3c7"/>
      <rect x="36" y="18" width="3" height="3" fill="#e74c3c"/>
      <rect x="36" y="26" width="3" height="3" fill="#e74c3c"/>
      <rect x="39" y="21" width="4" height="5" fill="#c0392b"/>
      <text x="54" y="24" fill="#60ff80" font-family="monospace" font-size="10" font-weight="bold">Sharpshooter</text>
      <text x="54" y="38" fill="#909090" font-family="monospace" font-size="7">DPS · Precision shots</text>
    </g>

    <!-- Beastmaster -->
    <g transform="translate(15, 278)">
      <rect width="180" height="52" rx="3" fill="#152a1a" stroke="#555" stroke-width="0.5"/>
      <rect x="10" y="8" width="32" height="32" fill="#1a3a20" rx="2"/>
      <!-- Wolf icon -->
      <rect x="14" y="22" width="20" height="12" fill="#8b8b8b"/>
      <rect x="12" y="18" width="6" height="6" fill="#8b8b8b"/>
      <rect x="34" y="26" width="6" height="3" fill="#8b8b8b"/>
      <rect x="14" y="20" width="2" height="2" fill="#2c3e50"/>
      <text x="54" y="24" fill="#c0a060" font-family="monospace" font-size="10" font-weight="bold">Beastmaster</text>
      <text x="54" y="38" fill="#909090" font-family="monospace" font-size="7">Pet · Companion beasts</text>
    </g>

    <!-- Shadowstalker -->
    <g transform="translate(15, 338)">
      <rect width="180" height="52" rx="3" fill="#152a1a" stroke="#555" stroke-width="0.5"/>
      <rect x="10" y="8" width="32" height="32" fill="#1a3a20" rx="2"/>
      <!-- Dagger icon -->
      <rect x="22" y="12" width="4" height="18" fill="#95a5a6"/>
      <rect x="18" y="28" width="12" height="4" fill="#7f8c8d"/>
      <rect x="22" y="32" width="4" height="6" fill="#5d6d7e"/>
      <text x="54" y="24" fill="#a0a0ff" font-family="monospace" font-size="10" font-weight="bold">Shadowstalker</text>
      <text x="54" y="38" fill="#909090" font-family="monospace" font-size="7">Stealth · Ambush</text>
    </g>
  </g>

  <!-- ===== ARTISAN COLUMN (x=720) ===== -->
  <g transform="translate(720, 90)">
    <rect width="210" height="420" rx="4" fill="#1e1e30" stroke="#d4a017" stroke-width="2" opacity="0.9"/>

    <rect width="210" height="36" rx="4" fill="#d4a017" opacity="0.8"/>
    <text x="105" y="24" fill="#ffffff" font-family="monospace" font-size="14" font-weight="bold" text-anchor="middle" letter-spacing="3">ARTISAN</text>

    <rect x="55" y="48" width="100" height="100" fill="#2a2515" stroke="#f0c040" stroke-width="1" rx="2"/>
    <g transform="translate(55, 48)">
      <!-- Bandana -->
      <rect x="28" y="8" width="44" height="8" fill="#d4a017"/>
      <rect x="70" y="12" width="12" height="4" fill="#d4a017"/>
      <!-- Face -->
      <rect x="30" y="16" width="40" height="25" fill="#deb887"/>
      <rect x="35" y="22" width="10" height="5" fill="#2c3e50"/>
      <rect x="55" y="22" width="10" height="5" fill="#2c3e50"/>
      <rect x="40" y="32" width="20" height="4" fill="#c0392b"/>
      <!-- Apron -->
      <rect x="25" y="41" width="50" height="35" fill="#8b4513"/>
      <rect x="35" y="44" width="30" height="28" fill="#a0522d"/>
      <!-- Hammer -->
      <rect x="80" y="35" width="4" height="30" fill="#8b4513"/>
      <rect x="76" y="28" width="12" height="10" fill="#7f8c8d"/>
    </g>

    <text x="105" y="168" fill="#e0e0e0" font-family="monospace" font-size="9" text-anchor="middle">Master crafter.</text>
    <text x="105" y="180" fill="#e0e0e0" font-family="monospace" font-size="9" text-anchor="middle">Crafting, support, trade.</text>

    <rect x="20" y="192" width="170" height="1" fill="#f0c040" opacity="0.5"/>
    <text x="105" y="207" fill="#f0c040" font-family="monospace" font-size="8" text-anchor="middle" letter-spacing="2">ARCHETYPES</text>

    <!-- Blacksmith -->
    <g transform="translate(15, 218)">
      <rect width="180" height="52" rx="3" fill="#2a2515" stroke="#555" stroke-width="0.5"/>
      <rect x="10" y="8" width="32" height="32" fill="#3a3020" rx="2"/>
      <!-- Anvil icon -->
      <rect x="16" y="28" width="20" height="6" fill="#7f8c8d"/>
      <rect x="20" y="22" width="12" height="8" fill="#95a5a6"/>
      <rect x="18" y="34" width="4" height="4" fill="#5d6d7e"/>
      <rect x="30" y="34" width="4" height="4" fill="#5d6d7e"/>
      <text x="54" y="24" fill="#ff8040" font-family="monospace" font-size="10" font-weight="bold">Blacksmith</text>
      <text x="54" y="38" fill="#909090" font-family="monospace" font-size="7">Weapons · Armor craft</text>
    </g>

    <!-- Alchemist -->
    <g transform="translate(15, 278)">
      <rect width="180" height="52" rx="3" fill="#2a2515" stroke="#555" stroke-width="0.5"/>
      <rect x="10" y="8" width="32" height="32" fill="#3a3020" rx="2"/>
      <!-- Potion icon -->
      <rect x="22" y="10" width="8" height="4" fill="#bdc3c7"/>
      <rect x="20" y="14" width="12" height="4" fill="#bdc3c7"/>
      <rect x="16" y="18" width="20" height="16" fill="#2ecc71"/>
      <rect x="18" y="34" width="16" height="4" fill="#27ae60"/>
      <text x="54" y="24" fill="#40ff80" font-family="monospace" font-size="10" font-weight="bold">Alchemist</text>
      <text x="54" y="38" fill="#909090" font-family="monospace" font-size="7">Potions · Buffs</text>
    </g>

    <!-- Enchanter -->
    <g transform="translate(15, 338)">
      <rect width="180" height="52" rx="3" fill="#2a2515" stroke="#555" stroke-width="0.5"/>
      <rect x="10" y="8" width="32" height="32" fill="#3a3020" rx="2"/>
      <!-- Gem icon -->
      <rect x="22" y="16" width="8" height="8" fill="#3498db" transform="rotate(45, 26, 20)"/>
      <rect x="18" y="26" width="16" height="8" fill="#8e44ad"/>
      <rect x="24" y="12" width="4" height="4" fill="#e040ff" filter="url(#glow)"/>
      <text x="54" y="24" fill="#c080ff" font-family="monospace" font-size="10" font-weight="bold">Enchanter</text>
      <text x="54" y="38" fill="#909090" font-family="monospace" font-size="7">Magic items · Runes</text>
    </g>
  </g>

  <!-- Footer -->
  <rect x="80" y="520" width="800" height="1" fill="#404050"/>
  <text x="480" y="534" fill="#606070" font-family="monospace" font-size="8" text-anchor="middle" letter-spacing="2">PIXELREALM  ·  BROWSER-BASED PIXELATED MMORPG  ·  PIXELFORGESTUDIOS.COM</text>
</svg>