<svg xmlns="http://www.w3.org/2000/svg" width="128" height="128" viewBox="0 0 128 128" style="image-rendering: pixelated;">
  <rect width="128" height="128" fill="none"/>
  <g transform="translate(20, 12)">
    <rect x="16" y="0" width="56" height="8" fill="#c8c8c8"/>
    <rect x="8" y="8" width="72" height="8" fill="#f0f0f0"/>
    <rect x="0" y="16" width="88" height="32" fill="#f0f0f0"/>
    <rect x="0" y="48" width="88" height="16" fill="#c8c8c8"/>
    <rect x="8" y="64" width="72" height="8" fill="#c8c8c8"/>
    <rect x="16" y="72" width="56" height="8" fill="#969696"/>
    <!-- Eyes -->
    <rect x="16" y="24" width="16" height="16" fill="#0d0d0d"/>
    <rect x="56" y="24" width="16" height="16" fill="#0d0d0d"/>
    <!-- Red eye glow -->
    <rect x="20" y="28" width="8" height="8" fill="#d42020"/>
    <rect x="60" y="28" width="8" height="8" fill="#d42020"/>
    <!-- Nose -->
    <rect x="40" y="40" width="8" height="8" fill="#2b2b2b"/>
    <!-- Teeth -->
    <rect x="24" y="56" width="8" height="16" fill="#f0f0f0"/>
    <rect x="36" y="56" width="8" height="12" fill="#f0f0f0"/>
    <rect x="48" y="56" width="8" height="16" fill="#f0f0f0"/>
    <rect x="60" y="56" width="8" height="12" fill="#f0f0f0"/>
    <!-- Jaw gaps -->
    <rect x="32" y="56" width="4" height="16" fill="#4a4a4a"/>
    <rect x="44" y="56" width="4" height="16" fill="#4a4a4a"/>
    <rect x="56" y="56" width="4" height="16" fill="#4a4a4a"/>
  </g>
</svg>