<svg xmlns="http://www.w3.org/2000/svg" width="128" height="128" viewBox="0 0 128 128" style="image-rendering: pixelated;">
  <rect width="128" height="128" fill="none"/>
  <g transform="translate(24, 8)">
    <!-- Bow limb -->
    <rect x="8" y="0" width="8" height="8" fill="#6b3a1f"/>
    <rect x="0" y="8" width="8" height="16" fill="#8b5c2a"/>
    <rect x="0" y="24" width="8" height="16" fill="#6b3a1f"/>
    <rect x="0" y="40" width="8" height="16" fill="#8b5c2a"/>
    <rect x="0" y="56" width="8" height="16" fill="#6b3a1f"/>
    <rect x="0" y="72" width="8" height="16" fill="#8b5c2a"/>
    <rect x="0" y="88" width="8" height="8" fill="#6b3a1f"/>
    <rect x="8" y="96" width="8" height="8" fill="#6b3a1f"/>
    <!-- Bowstring -->
    <rect x="16" y="4" width="2" height="96" fill="#c8c8c8" opacity="0.7"/>
    <!-- Arrow -->
    <rect x="18" y="48" width="56" height="4" fill="#b8843f"/>
    <!-- Arrow tip -->
    <rect x="74" y="44" width="4" height="12" fill="#969696"/>
    <rect x="78" y="46" width="4" height="8" fill="#c8c8c8"/>
    <!-- Arrow fletching -->
    <rect x="18" y="44" width="4" height="4" fill="#4c9b4c"/>
    <rect x="18" y="52" width="4" height="4" fill="#4c9b4c"/>
    <!-- Grip -->
    <rect x="0" y="44" width="8" height="12" fill="#3b2010"/>
  </g>
</svg>