<svg xmlns="http://www.w3.org/2000/svg" width="128" height="128" viewBox="0 0 128 128" style="image-rendering: pixelated;">
  <rect width="128" height="128" fill="none"/>
  <g transform="translate(16, 4)">
    <!-- Canopy top -->
    <rect x="32" y="0" width="24" height="8" fill="#2d6e2d"/>
    <rect x="24" y="8" width="40" height="8" fill="#2d6e2d"/>
    <rect x="16" y="16" width="56" height="8" fill="#4c9b4c"/>
    <rect x="8" y="24" width="72" height="8" fill="#4c9b4c"/>
    <!-- Canopy middle -->
    <rect x="24" y="32" width="40" height="8" fill="#2d6e2d"/>
    <rect x="16" y="40" width="56" height="8" fill="#4c9b4c"/>
    <rect x="8" y="48" width="72" height="8" fill="#78c878"/>
    <rect x="0" y="56" width="88" height="8" fill="#4c9b4c"/>
    <!-- Canopy bottom -->
    <rect x="8" y="64" width="72" height="8" fill="#2d6e2d"/>
    <rect x="16" y="72" width="56" height="8" fill="#1a3a1a"/>
    <!-- Trunk -->
    <rect x="36" y="80" width="16" height="32" fill="#6b3a1f"/>
    <rect x="36" y="80" width="8" height="32" fill="#8b5c2a"/>
    <!-- Roots -->
    <rect x="28" y="108" width="32" height="4" fill="#3b2010"/>
    <!-- Light spots -->
    <rect x="20" y="20" width="4" height="4" fill="#a8e4a0" opacity="0.5"/>
    <rect x="56" y="44" width="4" height="4" fill="#a8e4a0" opacity="0.5"/>
  </g>
</svg>