<svg xmlns="http://www.w3.org/2000/svg" width="16" height="16" viewBox="0 0 16 16" style="image-rendering:pixelated;"><!-- Colorblind-safe slow debuff — hourglass + horizontal lines, 16×16 --><rect x="2" y="1" width="12" height="1" fill="#44cccc"/><rect x="2" y="14" width="12" height="1" fill="#44cccc"/><rect x="3" y="2" width="1" height="1" fill="#44cccc"/><rect x="12" y="2" width="1" height="1" fill="#44cccc"/><rect x="4" y="3" width="1" height="1" fill="#44cccc"/><rect x="11" y="3" width="1" height="1" fill="#44cccc"/><rect x="5" y="4" width="1" height="1" fill="#44cccc"/><rect x="10" y="4" width="1" height="1" fill="#44cccc"/><rect x="6" y="5" width="1" height="1" fill="#44cccc"/><rect x="9" y="5" width="1" height="1" fill="#44cccc"/><rect x="7" y="6" width="2" height="1" fill="#44cccc"/><rect x="7" y="9" width="2" height="1" fill="#44cccc"/><rect x="6" y="10" width="1" height="1" fill="#44cccc"/><rect x="9" y="10" width="1" height="1" fill="#44cccc"/><rect x="5" y="11" width="1" height="1" fill="#44cccc"/><rect x="10" y="11" width="1" height="1" fill="#44cccc"/><rect x="4" y="12" width="1" height="1" fill="#44cccc"/><rect x="11" y="12" width="1" height="1" fill="#44cccc"/><rect x="3" y="13" width="1" height="1" fill="#44cccc"/><rect x="12" y="13" width="1" height="1" fill="#44cccc"/><rect x="4" y="2" width="8" height="1" fill="#ffffff"/><rect x="6" y="4" width="4" height="1" fill="#ffffff"/><rect x="7" y="7" width="2" height="1" fill="#ffffff"/><rect x="6" y="11" width="4" height="1" fill="#ffffff"/><rect x="4" y="13" width="8" height="1" fill="#ffffff"/></svg>