<svg xmlns="http://www.w3.org/2000/svg" width="16" height="16" viewBox="0 0 16 16" style="image-rendering:pixelated;"><!-- Colorblind-safe bleed debuff — droplet + dot pattern, 16×16 --><rect x="7" y="1" width="2" height="1" fill="#ff4444"/><rect x="6" y="2" width="4" height="1" fill="#ff4444"/><rect x="5" y="3" width="6" height="1" fill="#ff4444"/><rect x="4" y="4" width="8" height="1" fill="#ff4444"/><rect x="3" y="5" width="10" height="1" fill="#ff4444"/><rect x="3" y="6" width="10" height="1" fill="#ff4444"/><rect x="3" y="7" width="10" height="1" fill="#ff4444"/><rect x="3" y="8" width="10" height="1" fill="#ff4444"/><rect x="4" y="9" width="8" height="1" fill="#ff4444"/><rect x="5" y="10" width="6" height="1" fill="#ff4444"/><rect x="6" y="11" width="4" height="1" fill="#ff4444"/><rect x="7" y="12" width="2" height="1" fill="#ff4444"/><rect x="6" y="4" width="1" height="1" fill="#ffffff"/><rect x="9" y="4" width="1" height="1" fill="#ffffff"/><rect x="5" y="6" width="1" height="1" fill="#ffffff"/><rect x="7" y="6" width="1" height="1" fill="#ffffff"/><rect x="10" y="6" width="1" height="1" fill="#ffffff"/><rect x="6" y="8" width="1" height="1" fill="#ffffff"/><rect x="9" y="8" width="1" height="1" fill="#ffffff"/><rect x="5" y="10" width="1" height="1" fill="#ffffff"/><rect x="8" y="10" width="1" height="1" fill="#ffffff"/><rect x="5" y="13" width="1" height="1" fill="#ff4444"/><rect x="10" y="14" width="1" height="1" fill="#ff4444"/></svg>