<svg xmlns="http://www.w3.org/2000/svg" width="16" height="16" viewBox="0 0 16 16" style="image-rendering:pixelated;"><!-- Colorblind-safe poison debuff — skull + diagonal hatch, 16×16 --><rect x="4" y="2" width="8" height="1" fill="#4c9b4c"/><rect x="3" y="3" width="1" height="1" fill="#4c9b4c"/><rect x="12" y="3" width="1" height="1" fill="#4c9b4c"/><rect x="2" y="4" width="1" height="4" fill="#4c9b4c"/><rect x="13" y="4" width="1" height="4" fill="#4c9b4c"/><rect x="3" y="8" width="1" height="1" fill="#4c9b4c"/><rect x="12" y="8" width="1" height="1" fill="#4c9b4c"/><rect x="4" y="9" width="3" height="1" fill="#4c9b4c"/><rect x="9" y="9" width="3" height="1" fill="#4c9b4c"/><rect x="5" y="5" width="2" height="2" fill="#0d0d0d"/><rect x="9" y="5" width="2" height="2" fill="#0d0d0d"/><rect x="7" y="7" width="2" height="1" fill="#0d0d0d"/><rect x="5" y="10" width="1" height="2" fill="#4c9b4c"/><rect x="7" y="10" width="1" height="2" fill="#4c9b4c"/><rect x="9" y="10" width="1" height="2" fill="#4c9b4c"/><rect x="4" y="3" width="8" height="1" fill="#4c9b4c" opacity="0.5"/><rect x="3" y="4" width="10" height="4" fill="#4c9b4c" opacity="0.3"/><rect x="4" y="4" width="1" height="1" fill="#ffffff"/><rect x="6" y="4" width="1" height="1" fill="#ffffff"/><rect x="8" y="4" width="1" height="1" fill="#ffffff"/><rect x="10" y="4" width="1" height="1" fill="#ffffff"/><rect x="5" y="7" width="1" height="1" fill="#ffffff"/><rect x="11" y="7" width="1" height="1" fill="#ffffff"/><rect x="7" y="13" width="2" height="1" fill="#4c9b4c"/><rect x="8" y="14" width="1" height="1" fill="#4c9b4c"/></svg>