<svg xmlns="http://www.w3.org/2000/svg" width="16" height="16" viewBox="0 0 16 16" style="image-rendering:pixelated;"><!-- WASD key cluster — 16×16 pixel art --><rect x="6" y="1" width="5" height="4" fill="#2b2b2b"/><rect x="6" y="1" width="5" height="1" fill="#6e6e6e"/><rect x="6" y="4" width="5" height="1" fill="#6e6e6e"/><rect x="6" y="2" width="1" height="2" fill="#6e6e6e"/><rect x="10" y="2" width="1" height="2" fill="#6e6e6e"/><rect x="7" y="2" width="1" height="1" fill="#ffffff"/><rect x="9" y="2" width="1" height="1" fill="#ffffff"/><rect x="8" y="3" width="1" height="1" fill="#ffffff"/><rect x="1" y="6" width="5" height="4" fill="#2b2b2b"/><rect x="1" y="6" width="5" height="1" fill="#6e6e6e"/><rect x="1" y="9" width="5" height="1" fill="#6e6e6e"/><rect x="1" y="7" width="1" height="2" fill="#6e6e6e"/><rect x="5" y="7" width="1" height="2" fill="#6e6e6e"/><rect x="3" y="7" width="1" height="2" fill="#ffffff"/><rect x="2" y="8" width="1" height="1" fill="#ffffff"/><rect x="4" y="8" width="1" height="1" fill="#ffffff"/><rect x="6" y="6" width="5" height="4" fill="#2b2b2b"/><rect x="6" y="6" width="5" height="1" fill="#6e6e6e"/><rect x="6" y="9" width="5" height="1" fill="#6e6e6e"/><rect x="6" y="7" width="1" height="2" fill="#6e6e6e"/><rect x="10" y="7" width="1" height="2" fill="#6e6e6e"/><rect x="7" y="7" width="2" height="1" fill="#ffffff"/><rect x="8" y="8" width="2" height="1" fill="#ffffff"/><rect x="11" y="6" width="4" height="4" fill="#2b2b2b"/><rect x="11" y="6" width="4" height="1" fill="#6e6e6e"/><rect x="11" y="9" width="4" height="1" fill="#6e6e6e"/><rect x="11" y="7" width="1" height="2" fill="#6e6e6e"/><rect x="14" y="7" width="1" height="2" fill="#6e6e6e"/><rect x="12" y="7" width="1" height="2" fill="#ffffff"/><rect x="13" y="8" width="1" height="1" fill="#ffffff"/><rect x="6" y="1" width="5" height="1" fill="#50a8e8" opacity="0.4"/></svg>