<svg xmlns="http://www.w3.org/2000/svg" width="1200" height="675" viewBox="0 0 1200 675" style="image-rendering: pixelated; font-family: monospace;">
  <defs>
    <!-- Arcane glow filter -->
    <filter id="arcaneGlow">
      <feGaussianBlur stdDeviation="5" result="blur"/>
      <feMerge>
        <feMergeNode in="blur"/>
        <feMergeNode in="SourceGraphic"/>
      </feMerge>
    </filter>
    <filter id="spellGlow">
      <feGaussianBlur stdDeviation="8" result="blur"/>
      <feMerge>
        <feMergeNode in="blur"/>
        <feMergeNode in="SourceGraphic"/>
      </feMerge>
    </filter>
    <filter id="runeGlow">
      <feGaussianBlur stdDeviation="4" result="blur"/>
      <feMerge>
        <feMergeNode in="blur"/>
        <feMergeNode in="SourceGraphic"/>
      </feMerge>
    </filter>
    <filter id="bigGlow">
      <feGaussianBlur stdDeviation="12" result="blur"/>
      <feMerge>
        <feMergeNode in="blur"/>
        <feMergeNode in="SourceGraphic"/>
      </feMerge>
    </filter>
  </defs>

  <!-- ==================== BACKGROUND ==================== -->
  <!-- Base dark fill -->
  <rect width="1200" height="675" fill="#0d0d0d"/>
  <!-- Inner chamber area -->
  <rect x="80" y="40" width="1040" height="595" fill="#1a0a3a"/>
  <!-- Darker edge vignette -->
  <rect x="80" y="40" width="80" height="595" fill="#0d0d0d" opacity="0.7"/>
  <rect x="1040" y="40" width="80" height="595" fill="#0d0d0d" opacity="0.7"/>
  <rect x="80" y="40" width="1040" height="40" fill="#0d0d0d" opacity="0.6"/>
  <rect x="80" y="580" width="1040" height="55" fill="#0d0d0d" opacity="0.7"/>
  <!-- Mid transition -->
  <rect x="160" y="60" width="880" height="535" fill="#1a0a3a"/>
  <!-- Floor stone tiles -->
  <rect x="160" y="520" width="880" height="80" fill="#2b2b2b" opacity="0.4"/>
  <rect x="200" y="540" width="800" height="8" fill="#4a4a4a" opacity="0.15"/>
  <rect x="200" y="560" width="800" height="8" fill="#4a4a4a" opacity="0.1"/>
  <rect x="200" y="580" width="800" height="8" fill="#4a4a4a" opacity="0.08"/>

  <!-- ==================== ARCANE CIRCLES (background) ==================== -->
  <!-- Large outer arcane circle -->
  <circle cx="600" cy="380" r="200" fill="none" stroke="#5a20a0" stroke-width="2.5" opacity="0.3" filter="url(#runeGlow)"/>
  <circle cx="600" cy="380" r="160" fill="none" stroke="#9050e0" stroke-width="2" opacity="0.25" filter="url(#runeGlow)"/>
  <circle cx="600" cy="380" r="120" fill="none" stroke="#5a20a0" stroke-width="1.5" opacity="0.2"/>
  <circle cx="600" cy="380" r="80" fill="none" stroke="#d090ff" stroke-width="1" opacity="0.15"/>

  <!-- Arcane circle cross-lines -->
  <line x1="400" y1="380" x2="800" y2="380" stroke="#5a20a0" stroke-width="1" opacity="0.15"/>
  <line x1="600" y1="180" x2="600" y2="580" stroke="#5a20a0" stroke-width="1" opacity="0.15"/>
  <line x1="459" y1="239" x2="741" y2="521" stroke="#5a20a0" stroke-width="1" opacity="0.1"/>
  <line x1="741" y1="239" x2="459" y2="521" stroke="#5a20a0" stroke-width="1" opacity="0.1"/>

  <!-- Floating runes - left side -->
  <g opacity="0.4" filter="url(#runeGlow)">
    <rect x="200" y="200" width="8" height="24" fill="#9050e0"/>
    <rect x="208" y="208" width="8" height="8" fill="#9050e0"/>
    <rect x="216" y="200" width="8" height="16" fill="#9050e0"/>
    <rect x="192" y="208" width="8" height="8" fill="#d090ff"/>
    <rect x="224" y="208" width="8" height="8" fill="#d090ff"/>
  </g>
  <g opacity="0.35" filter="url(#runeGlow)">
    <rect x="240" y="360" width="24" height="8" fill="#9050e0"/>
    <rect x="248" y="352" width="8" height="8" fill="#9050e0"/>
    <rect x="248" y="368" width="8" height="16" fill="#9050e0"/>
    <rect x="232" y="368" width="8" height="8" fill="#d090ff"/>
  </g>
  <g opacity="0.3" filter="url(#runeGlow)">
    <rect x="280" y="480" width="8" height="16" fill="#9050e0"/>
    <rect x="288" y="472" width="16" height="8" fill="#9050e0"/>
    <rect x="288" y="488" width="8" height="8" fill="#d090ff"/>
  </g>

  <!-- Floating runes - right side -->
  <g opacity="0.4" filter="url(#runeGlow)">
    <rect x="960" y="220" width="8" height="24" fill="#9050e0"/>
    <rect x="968" y="228" width="8" height="8" fill="#9050e0"/>
    <rect x="976" y="220" width="8" height="16" fill="#9050e0"/>
    <rect x="952" y="228" width="8" height="8" fill="#d090ff"/>
    <rect x="984" y="228" width="8" height="8" fill="#d090ff"/>
  </g>
  <g opacity="0.35" filter="url(#runeGlow)">
    <rect x="920" y="380" width="24" height="8" fill="#9050e0"/>
    <rect x="928" y="372" width="8" height="8" fill="#9050e0"/>
    <rect x="928" y="388" width="8" height="16" fill="#9050e0"/>
    <rect x="944" y="372" width="8" height="8" fill="#d090ff"/>
  </g>
  <g opacity="0.3" filter="url(#runeGlow)">
    <rect x="896" y="488" width="8" height="16" fill="#9050e0"/>
    <rect x="888" y="480" width="16" height="8" fill="#9050e0"/>
    <rect x="896" y="496" width="8" height="8" fill="#d090ff"/>
  </g>

  <!-- Additional atmospheric runes - far left -->
  <g opacity="0.2" filter="url(#runeGlow)">
    <rect x="128" y="320" width="8" height="16" fill="#5a20a0"/>
    <rect x="136" y="312" width="8" height="8" fill="#5a20a0"/>
    <rect x="136" y="328" width="8" height="8" fill="#9050e0"/>
  </g>
  <!-- Additional atmospheric runes - far right -->
  <g opacity="0.2" filter="url(#runeGlow)">
    <rect x="1048" y="340" width="8" height="16" fill="#5a20a0"/>
    <rect x="1040" y="332" width="8" height="8" fill="#5a20a0"/>
    <rect x="1040" y="348" width="8" height="8" fill="#9050e0"/>
  </g>

  <!-- ==================== MAGE CHARACTER (pixel art, 8px grid) ==================== -->
  <!-- Character centered at x~552, top of hat ~y190, feet ~y530 => ~340px tall (~42 cells of 8px) -->

  <g id="mage-character">
    <!-- === WIZARD HAT === -->
    <!-- Hat tip -->
    <rect x="592" y="192" width="8" height="8" fill="#5a20a0"/>
    <rect x="584" y="200" width="24" height="8" fill="#5a20a0"/>
    <rect x="576" y="208" width="40" height="8" fill="#5a20a0"/>
    <rect x="568" y="216" width="56" height="8" fill="#5a20a0"/>
    <rect x="560" y="224" width="72" height="8" fill="#9050e0"/>
    <!-- Hat brim -->
    <rect x="544" y="232" width="104" height="8" fill="#5a20a0"/>
    <rect x="536" y="240" width="120" height="8" fill="#1a0a3a"/>
    <!-- Hat band (gold) -->
    <rect x="560" y="224" width="72" height="8" fill="#a87000" opacity="0.6"/>
    <rect x="592" y="224" width="8" height="8" fill="#e8b800"/>
    <!-- Hat highlight -->
    <rect x="584" y="208" width="8" height="8" fill="#9050e0"/>
    <rect x="576" y="216" width="8" height="8" fill="#9050e0"/>

    <!-- === FACE === -->
    <rect x="564" y="248" width="64" height="8" fill="#d4a85a"/>
    <rect x="564" y="256" width="64" height="8" fill="#d4a85a"/>
    <rect x="564" y="264" width="64" height="8" fill="#b8843f"/>
    <!-- Eyes -->
    <rect x="572" y="248" width="8" height="8" fill="#0d0d0d"/>
    <rect x="612" y="248" width="8" height="8" fill="#0d0d0d"/>
    <!-- Eye glow (arcane purple) -->
    <rect x="572" y="248" width="8" height="8" fill="#d090ff" opacity="0.5"/>
    <rect x="612" y="248" width="8" height="8" fill="#d090ff" opacity="0.5"/>
    <!-- Beard -->
    <rect x="572" y="272" width="48" height="8" fill="#c8c8c8"/>
    <rect x="564" y="280" width="64" height="8" fill="#c8c8c8"/>
    <rect x="572" y="288" width="48" height="16" fill="#969696"/>
    <rect x="580" y="304" width="32" height="8" fill="#969696"/>
    <rect x="588" y="312" width="16" height="8" fill="#6e6e6e"/>

    <!-- === SHOULDERS & ROBES === -->
    <!-- Shoulders -->
    <rect x="536" y="296" width="120" height="8" fill="#5a20a0"/>
    <rect x="528" y="304" width="136" height="8" fill="#5a20a0"/>
    <!-- Shoulder pads -->
    <rect x="536" y="288" width="24" height="16" fill="#5a20a0"/>
    <rect x="632" y="288" width="24" height="16" fill="#5a20a0"/>
    <rect x="544" y="288" width="8" height="8" fill="#9050e0"/>
    <rect x="640" y="288" width="8" height="8" fill="#9050e0"/>
    <!-- Shoulder gems -->
    <rect x="544" y="296" width="8" height="8" fill="#d090ff"/>
    <rect x="640" y="296" width="8" height="8" fill="#d090ff"/>

    <!-- Upper torso -->
    <rect x="544" y="312" width="104" height="8" fill="#5a20a0"/>
    <rect x="544" y="320" width="104" height="8" fill="#5a20a0"/>
    <rect x="552" y="328" width="88" height="8" fill="#5a20a0"/>
    <rect x="552" y="336" width="88" height="8" fill="#1a0a3a"/>
    <!-- Robe center seam -->
    <rect x="592" y="312" width="8" height="32" fill="#9050e0"/>
    <!-- Belt -->
    <rect x="552" y="344" width="88" height="8" fill="#a87000"/>
    <rect x="580" y="344" width="32" height="8" fill="#e8b800"/>
    <rect x="592" y="344" width="8" height="8" fill="#ffe040"/>

    <!-- Lower robes -->
    <rect x="544" y="352" width="104" height="8" fill="#5a20a0"/>
    <rect x="536" y="360" width="120" height="8" fill="#5a20a0"/>
    <rect x="528" y="368" width="136" height="8" fill="#1a0a3a"/>
    <rect x="520" y="376" width="152" height="8" fill="#5a20a0"/>
    <rect x="520" y="384" width="152" height="8" fill="#1a0a3a"/>
    <rect x="512" y="392" width="168" height="8" fill="#5a20a0"/>
    <rect x="512" y="400" width="168" height="8" fill="#1a0a3a"/>
    <rect x="504" y="408" width="184" height="8" fill="#5a20a0"/>
    <rect x="504" y="416" width="184" height="8" fill="#5a20a0"/>
    <rect x="504" y="424" width="184" height="8" fill="#1a0a3a"/>
    <rect x="504" y="432" width="184" height="8" fill="#5a20a0"/>
    <rect x="504" y="440" width="184" height="8" fill="#1a0a3a"/>
    <rect x="504" y="448" width="184" height="8" fill="#5a20a0"/>
    <rect x="504" y="456" width="184" height="8" fill="#1a0a3a"/>
    <!-- Robe hem / bottom -->
    <rect x="512" y="464" width="168" height="8" fill="#5a20a0"/>
    <rect x="520" y="472" width="152" height="8" fill="#5a20a0"/>
    <rect x="528" y="480" width="64" height="8" fill="#5a20a0"/>
    <rect x="600" y="480" width="64" height="8" fill="#5a20a0"/>
    <!-- Robe sheen -->
    <rect x="536" y="376" width="8" height="72" fill="#9050e0" opacity="0.3"/>
    <rect x="648" y="376" width="8" height="72" fill="#9050e0" opacity="0.3"/>
    <rect x="520" y="448" width="8" height="24" fill="#9050e0" opacity="0.2"/>
    <rect x="664" y="448" width="8" height="24" fill="#9050e0" opacity="0.2"/>

    <!-- === FEET / BOOTS === -->
    <rect x="536" y="488" width="48" height="8" fill="#3b2010"/>
    <rect x="608" y="488" width="48" height="8" fill="#3b2010"/>
    <rect x="536" y="496" width="48" height="8" fill="#6b3a1f"/>
    <rect x="608" y="496" width="48" height="8" fill="#6b3a1f"/>

    <!-- === RIGHT ARM (raised, holding staff) === -->
    <rect x="648" y="296" width="16" height="8" fill="#5a20a0"/>
    <rect x="656" y="288" width="16" height="8" fill="#5a20a0"/>
    <rect x="664" y="280" width="16" height="8" fill="#5a20a0"/>
    <rect x="672" y="272" width="16" height="8" fill="#5a20a0"/>
    <rect x="680" y="264" width="16" height="8" fill="#5a20a0"/>
    <!-- Hand -->
    <rect x="680" y="256" width="16" height="8" fill="#d4a85a"/>
    <rect x="680" y="248" width="16" height="8" fill="#b8843f"/>

    <!-- === STAFF === -->
    <!-- Staff shaft -->
    <rect x="684" y="184" width="8" height="8" fill="#6b3a1f"/>
    <rect x="684" y="192" width="8" height="80" fill="#8b5c2a"/>
    <rect x="684" y="272" width="8" height="160" fill="#6b3a1f"/>
    <rect x="684" y="432" width="8" height="72" fill="#3b2010"/>
    <!-- Staff orb / crystal at top -->
    <rect x="676" y="160" width="24" height="8" fill="#9050e0"/>
    <rect x="668" y="168" width="40" height="8" fill="#d090ff"/>
    <rect x="668" y="176" width="40" height="8" fill="#9050e0"/>
    <rect x="676" y="184" width="24" height="8" fill="#5a20a0"/>
    <!-- Staff orb inner glow -->
    <rect x="676" y="168" width="16" height="8" fill="#d090ff" opacity="0.8"/>
    <rect x="684" y="160" width="8" height="8" fill="#d090ff" opacity="0.6"/>
    <!-- Staff orb top sparkle -->
    <rect x="684" y="152" width="8" height="8" fill="#d090ff" opacity="0.5" filter="url(#arcaneGlow)"/>

    <!-- === LEFT ARM (extended, casting) === -->
    <rect x="528" y="304" width="16" height="8" fill="#5a20a0"/>
    <rect x="512" y="312" width="24" height="8" fill="#5a20a0"/>
    <rect x="496" y="304" width="24" height="8" fill="#5a20a0"/>
    <rect x="480" y="296" width="24" height="8" fill="#5a20a0"/>
    <rect x="464" y="288" width="24" height="8" fill="#5a20a0"/>
    <!-- Casting hand -->
    <rect x="448" y="280" width="24" height="8" fill="#d4a85a"/>
    <rect x="448" y="272" width="16" height="8" fill="#b8843f"/>
    <rect x="440" y="280" width="8" height="8" fill="#d4a85a"/>
  </g>

  <!-- ==================== SPELL EFFECTS ==================== -->

  <!-- FIREBALL ORB (left side atmospheric) -->
  <g filter="url(#spellGlow)">
    <rect x="248" y="216" width="8" height="8" fill="#f8a060" opacity="0.4"/>
    <rect x="256" y="208" width="8" height="8" fill="#f06020" opacity="0.6"/>
    <rect x="256" y="216" width="24" height="8" fill="#d42020"/>
    <rect x="256" y="224" width="24" height="8" fill="#d42020"/>
    <rect x="264" y="208" width="16" height="8" fill="#f06020"/>
    <rect x="264" y="232" width="8" height="8" fill="#a01010"/>
    <rect x="280" y="216" width="8" height="8" fill="#f8a060"/>
    <rect x="288" y="224" width="8" height="8" fill="#f06020" opacity="0.5"/>
    <!-- Flame wisps -->
    <rect x="264" y="200" width="8" height="8" fill="#ffe040" opacity="0.7"/>
    <rect x="256" y="200" width="8" height="8" fill="#f06020" opacity="0.4"/>
    <rect x="272" y="200" width="8" height="8" fill="#f8a060" opacity="0.4"/>
    <rect x="264" y="192" width="8" height="8" fill="#f8a060" opacity="0.3"/>
    <rect x="248" y="232" width="8" height="8" fill="#5a0a0a" opacity="0.5"/>
  </g>

  <!-- Second fire wisp (far left atmospheric) -->
  <g filter="url(#spellGlow)" opacity="0.5">
    <rect x="152" y="280" width="16" height="8" fill="#d42020"/>
    <rect x="152" y="288" width="16" height="8" fill="#a01010"/>
    <rect x="160" y="272" width="8" height="8" fill="#f06020"/>
    <rect x="160" y="296" width="8" height="8" fill="#5a0a0a"/>
    <rect x="160" y="264" width="8" height="8" fill="#f8a060" opacity="0.5"/>
  </g>

  <!-- ICE ORB (right side atmospheric) -->
  <g filter="url(#spellGlow)">
    <rect x="880" y="232" width="8" height="8" fill="#c8f0ff" opacity="0.4"/>
    <rect x="888" y="224" width="24" height="8" fill="#90d0f8"/>
    <rect x="888" y="232" width="24" height="8" fill="#50a8e8"/>
    <rect x="888" y="240" width="24" height="8" fill="#90d0f8"/>
    <rect x="896" y="216" width="8" height="8" fill="#c8f0ff"/>
    <rect x="896" y="248" width="8" height="8" fill="#2a7ac0"/>
    <rect x="912" y="232" width="8" height="8" fill="#c8f0ff" opacity="0.4"/>
    <!-- Ice crystal shards -->
    <rect x="896" y="208" width="8" height="8" fill="#c8f0ff" opacity="0.5"/>
    <rect x="880" y="224" width="8" height="8" fill="#90d0f8" opacity="0.3"/>
    <rect x="912" y="240" width="8" height="8" fill="#90d0f8" opacity="0.3"/>
    <rect x="904" y="208" width="8" height="8" fill="#50a8e8" opacity="0.3"/>
    <rect x="888" y="248" width="8" height="8" fill="#2a7ac0" opacity="0.4"/>
  </g>

  <!-- Second ice wisp (far right atmospheric) -->
  <g filter="url(#spellGlow)" opacity="0.5">
    <rect x="1008" y="296" width="16" height="8" fill="#90d0f8"/>
    <rect x="1008" y="304" width="16" height="8" fill="#50a8e8"/>
    <rect x="1016" y="288" width="8" height="8" fill="#c8f0ff"/>
    <rect x="1016" y="312" width="8" height="8" fill="#2a7ac0"/>
    <rect x="1016" y="280" width="8" height="8" fill="#c8f0ff" opacity="0.5"/>
  </g>

  <!-- LIGHTNING ORB (from casting hand) -->
  <g filter="url(#spellGlow)">
    <rect x="360" y="264" width="8" height="8" fill="#ffe040"/>
    <rect x="368" y="272" width="8" height="8" fill="#ffe040"/>
    <rect x="376" y="264" width="8" height="8" fill="#fff8a0"/>
    <rect x="384" y="272" width="8" height="8" fill="#ffe040"/>
    <rect x="392" y="264" width="8" height="8" fill="#e8b800"/>
    <rect x="400" y="272" width="8" height="8" fill="#ffe040"/>
    <rect x="408" y="264" width="8" height="8" fill="#fff8a0"/>
    <rect x="416" y="272" width="8" height="8" fill="#ffe040"/>
    <rect x="424" y="264" width="8" height="8" fill="#ffe040"/>
    <rect x="432" y="272" width="8" height="8" fill="#e8b800"/>
    <!-- Branch zaps -->
    <rect x="376" y="256" width="8" height="8" fill="#fff8a0" opacity="0.6"/>
    <rect x="408" y="280" width="8" height="8" fill="#ffe040" opacity="0.5"/>
    <rect x="392" y="256" width="8" height="8" fill="#e8b800" opacity="0.4"/>
    <rect x="424" y="280" width="8" height="8" fill="#fff8a0" opacity="0.4"/>
    <!-- Spark particles -->
    <rect x="352" y="256" width="8" height="8" fill="#fff8a0" opacity="0.4"/>
    <rect x="368" y="248" width="8" height="8" fill="#ffe040" opacity="0.3"/>
    <rect x="400" y="248" width="8" height="8" fill="#fff8a0" opacity="0.3"/>
    <rect x="440" y="264" width="8" height="8" fill="#ffe040" opacity="0.6"/>
  </g>

  <!-- Arcane energy from casting hand -->
  <g filter="url(#arcaneGlow)" opacity="0.7">
    <rect x="432" y="272" width="8" height="8" fill="#d090ff"/>
    <rect x="424" y="280" width="8" height="8" fill="#9050e0"/>
    <rect x="440" y="264" width="8" height="8" fill="#d090ff"/>
    <rect x="440" y="280" width="8" height="8" fill="#9050e0"/>
    <rect x="448" y="268" width="8" height="8" fill="#d090ff"/>
    <rect x="436" y="288" width="8" height="8" fill="#d090ff" opacity="0.5"/>
    <rect x="444" y="256" width="8" height="8" fill="#9050e0" opacity="0.5"/>
  </g>

  <!-- Staff top energy burst -->
  <g filter="url(#spellGlow)" opacity="0.6">
    <rect x="660" y="152" width="8" height="8" fill="#d090ff"/>
    <rect x="708" y="152" width="8" height="8" fill="#d090ff"/>
    <rect x="652" y="168" width="8" height="8" fill="#9050e0"/>
    <rect x="716" y="168" width="8" height="8" fill="#9050e0"/>
    <rect x="660" y="140" width="8" height="8" fill="#9050e0" opacity="0.5"/>
    <rect x="708" y="140" width="8" height="8" fill="#9050e0" opacity="0.5"/>
    <rect x="684" y="136" width="8" height="8" fill="#d090ff" opacity="0.4"/>
    <rect x="676" y="144" width="8" height="8" fill="#d090ff" opacity="0.3"/>
    <rect x="700" y="144" width="8" height="8" fill="#d090ff" opacity="0.3"/>
  </g>

  <!-- Floating magic particles around mage -->
  <g opacity="0.5">
    <rect x="480" y="232" width="8" height="8" fill="#d090ff" filter="url(#arcaneGlow)"/>
    <rect x="720" y="320" width="8" height="8" fill="#d090ff" filter="url(#arcaneGlow)"/>
    <rect x="456" y="400" width="8" height="8" fill="#9050e0" filter="url(#arcaneGlow)"/>
    <rect x="736" y="400" width="8" height="8" fill="#9050e0" filter="url(#arcaneGlow)"/>
    <rect x="496" y="192" width="8" height="8" fill="#d090ff" filter="url(#arcaneGlow)"/>
    <rect x="744" y="264" width="8" height="8" fill="#d090ff" filter="url(#arcaneGlow)"/>
    <rect x="432" y="360" width="8" height="8" fill="#9050e0" filter="url(#arcaneGlow)"/>
    <rect x="760" y="368" width="8" height="8" fill="#9050e0" filter="url(#arcaneGlow)"/>
    <!-- Extra wide-format atmospheric particles -->
    <rect x="320" y="344" width="8" height="8" fill="#d090ff" filter="url(#arcaneGlow)" opacity="0.6"/>
    <rect x="840" y="352" width="8" height="8" fill="#d090ff" filter="url(#arcaneGlow)" opacity="0.6"/>
    <rect x="192" y="400" width="8" height="8" fill="#9050e0" filter="url(#arcaneGlow)" opacity="0.4"/>
    <rect x="976" y="408" width="8" height="8" fill="#9050e0" filter="url(#arcaneGlow)" opacity="0.4"/>
    <rect x="224" y="192" width="8" height="8" fill="#d090ff" filter="url(#arcaneGlow)" opacity="0.3"/>
    <rect x="944" y="200" width="8" height="8" fill="#d090ff" filter="url(#arcaneGlow)" opacity="0.3"/>
    <rect x="168" y="456" width="8" height="8" fill="#5a20a0" filter="url(#arcaneGlow)" opacity="0.3"/>
    <rect x="1016" y="464" width="8" height="8" fill="#5a20a0" filter="url(#arcaneGlow)" opacity="0.3"/>
  </g>

  <!-- ==================== ATMOSPHERIC MAGIC COLUMNS (left side) ==================== -->
  <g opacity="0.15">
    <rect x="120" y="120" width="8" height="440" fill="#5a20a0"/>
    <rect x="128" y="120" width="8" height="440" fill="#1a0a3a"/>
    <rect x="120" y="112" width="24" height="8" fill="#5a20a0"/>
    <rect x="120" y="560" width="24" height="8" fill="#5a20a0"/>
  </g>
  <g opacity="0.12">
    <rect x="1064" y="120" width="8" height="440" fill="#5a20a0"/>
    <rect x="1056" y="120" width="8" height="440" fill="#1a0a3a"/>
    <rect x="1048" y="112" width="24" height="8" fill="#5a20a0"/>
    <rect x="1048" y="560" width="24" height="8" fill="#5a20a0"/>
  </g>

  <!-- ==================== TITLE "MAGE" (pixel font, larger) ==================== -->
  <g transform="translate(396, 40)">
    <!-- M -->
    <rect x="0" y="0" width="8" height="56" fill="#ffe040"/>
    <rect x="8" y="8" width="8" height="8" fill="#ffe040"/>
    <rect x="16" y="16" width="8" height="8" fill="#ffe040"/>
    <rect x="24" y="24" width="8" height="8" fill="#ffe040"/>
    <rect x="32" y="16" width="8" height="8" fill="#ffe040"/>
    <rect x="40" y="8" width="8" height="8" fill="#ffe040"/>
    <rect x="48" y="0" width="8" height="56" fill="#ffe040"/>
    <!-- M shadow -->
    <rect x="0" y="48" width="8" height="8" fill="#a87000"/>
    <rect x="48" y="48" width="8" height="8" fill="#a87000"/>

    <!-- A -->
    <rect x="80" y="8" width="8" height="48" fill="#ffe040"/>
    <rect x="88" y="0" width="24" height="8" fill="#ffe040"/>
    <rect x="112" y="8" width="8" height="48" fill="#ffe040"/>
    <rect x="88" y="32" width="24" height="8" fill="#ffe040"/>
    <rect x="80" y="48" width="8" height="8" fill="#a87000"/>
    <rect x="112" y="48" width="8" height="8" fill="#a87000"/>

    <!-- G -->
    <rect x="144" y="8" width="8" height="40" fill="#ffe040"/>
    <rect x="152" y="0" width="32" height="8" fill="#ffe040"/>
    <rect x="152" y="48" width="32" height="8" fill="#ffe040"/>
    <rect x="184" y="8" width="8" height="8" fill="#ffe040"/>
    <rect x="184" y="32" width="8" height="16" fill="#ffe040"/>
    <rect x="168" y="32" width="16" height="8" fill="#ffe040"/>
    <rect x="144" y="48" width="8" height="8" fill="#a87000"/>
    <rect x="184" y="48" width="8" height="8" fill="#a87000"/>

    <!-- E -->
    <rect x="216" y="0" width="8" height="56" fill="#ffe040"/>
    <rect x="224" y="0" width="32" height="8" fill="#ffe040"/>
    <rect x="224" y="24" width="24" height="8" fill="#ffe040"/>
    <rect x="224" y="48" width="32" height="8" fill="#ffe040"/>
    <rect x="216" y="48" width="8" height="8" fill="#a87000"/>
    <rect x="248" y="48" width="8" height="8" fill="#a87000"/>

    <!-- Title underline glow -->
    <rect x="0" y="64" width="260" height="8" fill="#e8b800" opacity="0.4"/>
    <!-- Gold sparkles on letters -->
    <rect x="24" y="0" width="8" height="8" fill="#fff8a0" opacity="0.7"/>
    <rect x="96" y="0" width="8" height="8" fill="#fff8a0" opacity="0.7"/>
    <rect x="160" y="0" width="8" height="8" fill="#fff8a0" opacity="0.7"/>
    <rect x="232" y="0" width="8" height="8" fill="#fff8a0" opacity="0.7"/>
  </g>

  <!-- Subtitle -->
  <text x="600" y="126" text-anchor="middle" fill="#d090ff" font-family="monospace" font-size="14" opacity="0.7">MYSTICAL SPELLCASTER</text>

  <!-- ==================== ABILITY LABELS ==================== -->
  <g opacity="0.5">
    <!-- Fireball label -->
    <text x="268" y="254" text-anchor="middle" fill="#f8a060" font-family="monospace" font-size="10">FIREBALL</text>
    <!-- Frost Nova label -->
    <text x="900" y="262" text-anchor="middle" fill="#90d0f8" font-family="monospace" font-size="10">FROST NOVA</text>
    <!-- Lightning label -->
    <text x="392" y="300" text-anchor="middle" fill="#ffe040" font-family="monospace" font-size="10">LIGHTNING BOLT</text>
    <!-- Arcane Mastery label at staff -->
    <text x="688" y="132" text-anchor="middle" fill="#d090ff" font-family="monospace" font-size="10">ARCANE MASTERY</text>
  </g>

  <!-- ==================== ARCHETYPE BADGES ==================== -->
  <!-- Elementalist badge -->
  <g transform="translate(216, 572)">
    <rect x="0" y="0" width="168" height="48" fill="#1a0a3a" stroke="#5a20a0" stroke-width="2" rx="0"/>
    <rect x="0" y="0" width="168" height="8" fill="#5a20a0" opacity="0.4"/>
    <!-- Fire icon -->
    <rect x="12" y="16" width="8" height="8" fill="#d42020"/>
    <rect x="20" y="12" width="8" height="8" fill="#f06020"/>
    <rect x="12" y="24" width="8" height="8" fill="#f8a060"/>
    <rect x="20" y="20" width="8" height="8" fill="#f8a060" opacity="0.5"/>
    <text x="84" y="32" text-anchor="middle" fill="#f8a060" font-family="monospace" font-size="13" font-weight="bold">Elementalist</text>
  </g>

  <!-- Arcanist badge -->
  <g transform="translate(516, 572)">
    <rect x="0" y="0" width="168" height="48" fill="#1a0a3a" stroke="#9050e0" stroke-width="2" rx="0"/>
    <rect x="0" y="0" width="168" height="8" fill="#9050e0" opacity="0.4"/>
    <!-- Arcane icon -->
    <rect x="12" y="14" width="8" height="8" fill="#d090ff"/>
    <rect x="20" y="22" width="8" height="8" fill="#9050e0"/>
    <rect x="12" y="30" width="8" height="8" fill="#d090ff"/>
    <rect x="20" y="14" width="8" height="8" fill="#9050e0" opacity="0.5"/>
    <text x="84" y="32" text-anchor="middle" fill="#d090ff" font-family="monospace" font-size="13" font-weight="bold">Arcanist</text>
  </g>

  <!-- Enchanter badge -->
  <g transform="translate(816, 572)">
    <rect x="0" y="0" width="168" height="48" fill="#1a0a3a" stroke="#5a20a0" stroke-width="2" rx="0"/>
    <rect x="0" y="0" width="168" height="8" fill="#5a20a0" opacity="0.4"/>
    <!-- Enchant icon -->
    <rect x="12" y="14" width="8" height="8" fill="#90d0f8"/>
    <rect x="20" y="22" width="8" height="8" fill="#50a8e8"/>
    <rect x="12" y="30" width="8" height="8" fill="#c8f0ff"/>
    <rect x="20" y="14" width="8" height="8" fill="#c8f0ff" opacity="0.5"/>
    <text x="84" y="32" text-anchor="middle" fill="#90d0f8" font-family="monospace" font-size="13" font-weight="bold">Enchanter</text>
  </g>

  <!-- ==================== WATERMARK ==================== -->
  <text x="1156" y="658" text-anchor="end" fill="#c8c8c8" font-family="monospace" font-size="10" opacity="0.3">PIXELREALM</text>

  <!-- ==================== DECORATIVE CORNER ELEMENTS ==================== -->
  <!-- Top-left corner -->
  <g opacity="0.25">
    <rect x="24" y="24" width="24" height="8" fill="#5a20a0"/>
    <rect x="24" y="24" width="8" height="24" fill="#5a20a0"/>
  </g>
  <!-- Top-right corner -->
  <g opacity="0.25">
    <rect x="1152" y="24" width="24" height="8" fill="#5a20a0"/>
    <rect x="1168" y="24" width="8" height="24" fill="#5a20a0"/>
  </g>
  <!-- Bottom-left corner -->
  <g opacity="0.25">
    <rect x="24" y="643" width="24" height="8" fill="#5a20a0"/>
    <rect x="24" y="627" width="8" height="24" fill="#5a20a0"/>
  </g>
  <!-- Bottom-right corner -->
  <g opacity="0.25">
    <rect x="1152" y="643" width="24" height="8" fill="#5a20a0"/>
    <rect x="1168" y="627" width="8" height="24" fill="#5a20a0"/>
  </g>
</svg>