<svg xmlns="http://www.w3.org/2000/svg" width="1200" height="675" viewBox="0 0 1200 675" style="image-rendering: pixelated;">
  <defs>
    <!-- Light shaft gradient from above -->
    <linearGradient id="lightShaft" x1="0.5" y1="0" x2="0.5" y2="1">
      <stop offset="0%" stop-color="#90d0f8" stop-opacity="0.2"/>
      <stop offset="35%" stop-color="#50a8e8" stop-opacity="0.1"/>
      <stop offset="100%" stop-color="#0a1a3a" stop-opacity="0"/>
    </linearGradient>
    <linearGradient id="lightShaft2" x1="0.5" y1="0" x2="0.5" y2="1">
      <stop offset="0%" stop-color="#c8f0ff" stop-opacity="0.1"/>
      <stop offset="50%" stop-color="#50a8e8" stop-opacity="0.04"/>
      <stop offset="100%" stop-color="#0a1a3a" stop-opacity="0"/>
    </linearGradient>
    <!-- Vignette for deep ocean darkness at edges -->
    <radialGradient id="vignette" cx="0.5" cy="0.38" r="0.68">
      <stop offset="0%" stop-color="#0a1a3a" stop-opacity="0"/>
      <stop offset="65%" stop-color="#0a1a3a" stop-opacity="0.45"/>
      <stop offset="100%" stop-color="#0d0d0d" stop-opacity="0.88"/>
    </radialGradient>
    <!-- Bio-glow radials -->
    <radialGradient id="bioGlow1" cx="0.5" cy="0.5" r="0.5">
      <stop offset="0%" stop-color="#d090ff" stop-opacity="0.4"/>
      <stop offset="100%" stop-color="#d090ff" stop-opacity="0"/>
    </radialGradient>
    <radialGradient id="bioGlow2" cx="0.5" cy="0.5" r="0.5">
      <stop offset="0%" stop-color="#c8f0ff" stop-opacity="0.35"/>
      <stop offset="100%" stop-color="#c8f0ff" stop-opacity="0"/>
    </radialGradient>
    <radialGradient id="bioGlowGreen" cx="0.5" cy="0.5" r="0.5">
      <stop offset="0%" stop-color="#a8e4a0" stop-opacity="0.35"/>
      <stop offset="100%" stop-color="#a8e4a0" stop-opacity="0"/>
    </radialGradient>
    <radialGradient id="bioGlowCenter" cx="0.5" cy="0.5" r="0.5">
      <stop offset="0%" stop-color="#90d0f8" stop-opacity="0.12"/>
      <stop offset="100%" stop-color="#0a1a3a" stop-opacity="0"/>
    </radialGradient>
  </defs>

  <!-- ===== BACKGROUND: Deep ocean layers ===== -->
  <rect width="1200" height="675" fill="#0a1a3a"/>
  <!-- Darker depths at bottom -->
  <rect y="480" width="1200" height="195" fill="#0d0d0d" opacity="0.45"/>
  <!-- Slight surface light at top -->
  <rect y="0" width="1200" height="80" fill="#1a4a8a" opacity="0.12"/>
  <!-- Central ambient glow -->
  <circle cx="600" cy="280" r="280" fill="url(#bioGlowCenter)"/>

  <!-- ===== LIGHT SHAFTS from above ===== -->
  <!-- Primary shaft -->
  <polygon points="520,0 680,0 800,675 400,675" fill="url(#lightShaft)"/>
  <!-- Inner bright core -->
  <polygon points="560,0 640,0 720,675 480,675" fill="#90d0f8" opacity="0.04"/>
  <!-- Secondary shaft right -->
  <polygon points="760,0 840,0 920,675 680,675" fill="url(#lightShaft2)"/>
  <!-- Secondary shaft left -->
  <polygon points="360,0 420,0 480,675 300,675" fill="url(#lightShaft2)" opacity="0.6"/>

  <!-- ===== DISTANT BACKGROUND: Far ruins silhouettes ===== -->
  <!-- Far column cluster left -->
  <rect x="240" y="200" width="16" height="120" fill="#1a4a8a" opacity="0.3"/>
  <rect x="232" y="192" width="32" height="16" fill="#1a4a8a" opacity="0.3"/>
  <rect x="232" y="312" width="32" height="16" fill="#1a4a8a" opacity="0.25"/>
  <rect x="296" y="216" width="16" height="104" fill="#1a4a8a" opacity="0.28"/>
  <rect x="288" y="208" width="32" height="16" fill="#1a4a8a" opacity="0.28"/>
  <rect x="288" y="312" width="32" height="16" fill="#1a4a8a" opacity="0.23"/>
  <!-- Arch between far columns -->
  <rect x="256" y="192" width="40" height="8" fill="#1a4a8a" opacity="0.22"/>
  <rect x="264" y="184" width="24" height="8" fill="#1a4a8a" opacity="0.18"/>

  <!-- Far column cluster right -->
  <rect x="848" y="224" width="16" height="96" fill="#1a4a8a" opacity="0.28"/>
  <rect x="840" y="216" width="32" height="16" fill="#1a4a8a" opacity="0.28"/>
  <rect x="840" y="312" width="32" height="16" fill="#1a4a8a" opacity="0.23"/>
  <rect x="912" y="208" width="16" height="112" fill="#1a4a8a" opacity="0.3"/>
  <rect x="904" y="200" width="32" height="16" fill="#1a4a8a" opacity="0.3"/>
  <rect x="904" y="312" width="32" height="16" fill="#1a4a8a" opacity="0.25"/>
  <!-- Broken arch right -->
  <rect x="864" y="216" width="48" height="8" fill="#1a4a8a" opacity="0.2"/>
  <rect x="872" y="208" width="32" height="8" fill="#1a4a8a" opacity="0.17"/>

  <!-- Distant fallen column -->
  <rect x="360" y="328" width="80" height="8" fill="#1a4a8a" opacity="0.2"/>
  <rect x="352" y="336" width="16" height="8" fill="#1a4a8a" opacity="0.18"/>

  <!-- Far moss on ruins -->
  <rect x="232" y="232" width="8" height="16" fill="#2d6e2d" opacity="0.25"/>
  <rect x="256" y="216" width="8" height="8" fill="#1a3a1a" opacity="0.2"/>
  <rect x="304" y="248" width="8" height="16" fill="#2d6e2d" opacity="0.22"/>
  <rect x="840" y="248" width="8" height="8" fill="#2d6e2d" opacity="0.22"/>
  <rect x="864" y="240" width="8" height="16" fill="#1a3a1a" opacity="0.2"/>
  <rect x="920" y="232" width="8" height="16" fill="#2d6e2d" opacity="0.25"/>

  <!-- Scattered stone blocks on ground -->
  <rect x="328" y="336" width="24" height="8" fill="#4a4a4a" opacity="0.2"/>
  <rect x="768" y="328" width="16" height="8" fill="#4a4a4a" opacity="0.18"/>
  <rect x="880" y="336" width="24" height="8" fill="#4a4a4a" opacity="0.15"/>

  <!-- ===== MID-GROUND: Detailed sunken temple ===== -->
  <!-- Central temple structure -->
  <!-- Left pillar -->
  <rect x="448" y="312" width="24" height="136" fill="#4a4a4a" opacity="0.55"/>
  <rect x="440" y="304" width="40" height="16" fill="#6e6e6e" opacity="0.5"/>
  <rect x="440" y="296" width="40" height="8" fill="#4a4a4a" opacity="0.45"/>
  <rect x="440" y="440" width="40" height="16" fill="#6e6e6e" opacity="0.45"/>
  <!-- Right pillar -->
  <rect x="712" y="320" width="24" height="128" fill="#4a4a4a" opacity="0.55"/>
  <rect x="704" y="312" width="40" height="16" fill="#6e6e6e" opacity="0.5"/>
  <rect x="704" y="304" width="40" height="8" fill="#4a4a4a" opacity="0.45"/>
  <rect x="704" y="440" width="40" height="16" fill="#6e6e6e" opacity="0.45"/>
  <!-- Lintel / crossbeam (partially broken) -->
  <rect x="472" y="328" width="240" height="8" fill="#6e6e6e" opacity="0.35"/>
  <rect x="480" y="320" width="224" height="8" fill="#4a4a4a" opacity="0.3"/>
  <!-- Fallen chunk from lintel -->
  <rect x="560" y="392" width="32" height="16" fill="#6e6e6e" opacity="0.3"/>
  <rect x="568" y="384" width="24" height="8" fill="#4a4a4a" opacity="0.25"/>

  <!-- Inner column (broken) -->
  <rect x="536" y="344" width="16" height="80" fill="#4a4a4a" opacity="0.4"/>
  <rect x="528" y="336" width="32" height="8" fill="#6e6e6e" opacity="0.38"/>
  <!-- Another inner broken column -->
  <rect x="640" y="352" width="16" height="72" fill="#4a4a4a" opacity="0.38"/>
  <rect x="632" y="344" width="32" height="8" fill="#6e6e6e" opacity="0.35"/>

  <!-- Carved symbol on temple wall (mysterious ancient marking) -->
  <rect x="576" y="360" width="40" height="8" fill="#2a7ac0" opacity="0.2"/>
  <rect x="592" y="352" width="8" height="32" fill="#2a7ac0" opacity="0.2"/>
  <rect x="584" y="376" width="24" height="8" fill="#2a7ac0" opacity="0.15"/>

  <!-- Moss on temple -->
  <rect x="440" y="336" width="8" height="24" fill="#2d6e2d" opacity="0.5"/>
  <rect x="448" y="352" width="8" height="8" fill="#4c9b4c" opacity="0.4"/>
  <rect x="464" y="312" width="8" height="8" fill="#2d6e2d" opacity="0.4"/>
  <rect x="736" y="344" width="8" height="16" fill="#2d6e2d" opacity="0.5"/>
  <rect x="712" y="360" width="8" height="8" fill="#4c9b4c" opacity="0.4"/>
  <rect x="728" y="320" width="8" height="8" fill="#2d6e2d" opacity="0.4"/>
  <rect x="528" y="360" width="8" height="8" fill="#4c9b4c" opacity="0.35"/>
  <rect x="648" y="368" width="8" height="8" fill="#2d6e2d" opacity="0.38"/>
  <rect x="488" y="328" width="8" height="8" fill="#1a3a1a" opacity="0.35"/>
  <rect x="696" y="328" width="8" height="8" fill="#1a3a1a" opacity="0.35"/>

  <!-- Small temple steps -->
  <rect x="448" y="448" width="288" height="8" fill="#4a4a4a" opacity="0.4"/>
  <rect x="456" y="456" width="272" height="8" fill="#2b2b2b" opacity="0.35"/>

  <!-- ===== OCEAN FLOOR ===== -->
  <!-- Sandy bottom base -->
  <rect y="496" width="1200" height="179" fill="#3b2010" opacity="0.6"/>
  <!-- Sand surface layer -->
  <rect y="488" width="1200" height="16" fill="#6b3a1f" opacity="0.5"/>

  <!-- Sand dune contours -->
  <rect x="0" y="488" width="200" height="8" fill="#6b3a1f" opacity="0.55"/>
  <rect x="200" y="496" width="120" height="8" fill="#6b3a1f" opacity="0.5"/>
  <rect x="320" y="488" width="280" height="8" fill="#6b3a1f" opacity="0.48"/>
  <rect x="600" y="496" width="160" height="8" fill="#6b3a1f" opacity="0.5"/>
  <rect x="760" y="488" width="240" height="8" fill="#6b3a1f" opacity="0.52"/>
  <rect x="1000" y="496" width="200" height="8" fill="#6b3a1f" opacity="0.48"/>

  <!-- Sand highlights -->
  <rect x="80" y="504" width="56" height="8" fill="#8b5c2a" opacity="0.45"/>
  <rect x="200" y="496" width="64" height="8" fill="#b8843f" opacity="0.35"/>
  <rect x="400" y="504" width="48" height="8" fill="#d4a85a" opacity="0.3"/>
  <rect x="520" y="496" width="72" height="8" fill="#b8843f" opacity="0.35"/>
  <rect x="680" y="504" width="56" height="8" fill="#8b5c2a" opacity="0.4"/>
  <rect x="800" y="496" width="80" height="8" fill="#d4a85a" opacity="0.3"/>
  <rect x="960" y="504" width="48" height="8" fill="#b8843f" opacity="0.38"/>
  <rect x="1080" y="496" width="64" height="8" fill="#8b5c2a" opacity="0.4"/>

  <!-- Shells -->
  <rect x="152" y="504" width="8" height="8" fill="#d4a85a" opacity="0.5"/>
  <rect x="160" y="512" width="8" height="8" fill="#e8d08a" opacity="0.4"/>
  <rect x="496" y="504" width="8" height="8" fill="#e8d08a" opacity="0.45"/>
  <rect x="504" y="512" width="8" height="8" fill="#d4a85a" opacity="0.4"/>
  <rect x="728" y="504" width="8" height="8" fill="#d4a85a" opacity="0.5"/>
  <rect x="1016" y="504" width="8" height="8" fill="#e8d08a" opacity="0.45"/>
  <rect x="1024" y="512" width="8" height="8" fill="#d4a85a" opacity="0.4"/>

  <!-- Starfish 1 -->
  <rect x="312" y="504" width="8" height="24" fill="#f06020" opacity="0.45"/>
  <rect x="304" y="512" width="24" height="8" fill="#f06020" opacity="0.45"/>
  <rect x="304" y="504" width="8" height="8" fill="#d42020" opacity="0.35"/>
  <rect x="320" y="504" width="8" height="8" fill="#d42020" opacity="0.35"/>
  <rect x="304" y="520" width="8" height="8" fill="#d42020" opacity="0.35"/>
  <rect x="320" y="520" width="8" height="8" fill="#d42020" opacity="0.35"/>

  <!-- Starfish 2 -->
  <rect x="888" y="496" width="8" height="24" fill="#f06020" opacity="0.4"/>
  <rect x="880" y="504" width="24" height="8" fill="#f06020" opacity="0.4"/>
  <rect x="880" y="496" width="8" height="8" fill="#d42020" opacity="0.3"/>
  <rect x="896" y="496" width="8" height="8" fill="#d42020" opacity="0.3"/>

  <!-- ===== SEAWEED CLUSTERS ===== -->
  <!-- Seaweed far left -->
  <rect x="32" y="408" width="8" height="88" fill="#1a3a1a" opacity="0.75"/>
  <rect x="40" y="424" width="8" height="72" fill="#2d6e2d" opacity="0.7"/>
  <rect x="48" y="440" width="8" height="56" fill="#1a3a1a" opacity="0.65"/>
  <rect x="24" y="400" width="8" height="16" fill="#2d6e2d" opacity="0.55"/>
  <rect x="32" y="392" width="8" height="16" fill="#4c9b4c" opacity="0.5"/>
  <rect x="40" y="416" width="8" height="8" fill="#4c9b4c" opacity="0.45"/>
  <rect x="56" y="432" width="8" height="8" fill="#2d6e2d" opacity="0.45"/>

  <!-- Seaweed cluster left-center -->
  <rect x="184" y="432" width="8" height="64" fill="#2d6e2d" opacity="0.7"/>
  <rect x="192" y="448" width="8" height="48" fill="#1a3a1a" opacity="0.65"/>
  <rect x="176" y="424" width="8" height="16" fill="#4c9b4c" opacity="0.5"/>
  <rect x="184" y="416" width="8" height="16" fill="#4c9b4c" opacity="0.55"/>
  <rect x="200" y="440" width="8" height="8" fill="#2d6e2d" opacity="0.45"/>

  <!-- Seaweed cluster center-left -->
  <rect x="368" y="440" width="8" height="56" fill="#1a3a1a" opacity="0.65"/>
  <rect x="376" y="448" width="8" height="48" fill="#2d6e2d" opacity="0.6"/>
  <rect x="360" y="432" width="8" height="16" fill="#4c9b4c" opacity="0.5"/>
  <rect x="384" y="456" width="8" height="32" fill="#1a3a1a" opacity="0.5"/>

  <!-- Seaweed cluster center -->
  <rect x="568" y="424" width="8" height="72" fill="#2d6e2d" opacity="0.65"/>
  <rect x="576" y="432" width="8" height="64" fill="#1a3a1a" opacity="0.6"/>
  <rect x="560" y="416" width="8" height="16" fill="#4c9b4c" opacity="0.55"/>
  <rect x="584" y="440" width="8" height="48" fill="#2d6e2d" opacity="0.55"/>
  <rect x="568" y="408" width="8" height="16" fill="#78c878" opacity="0.35"/>

  <!-- Seaweed cluster right-center -->
  <rect x="768" y="432" width="8" height="64" fill="#1a3a1a" opacity="0.7"/>
  <rect x="776" y="440" width="8" height="56" fill="#2d6e2d" opacity="0.65"/>
  <rect x="760" y="424" width="8" height="16" fill="#2d6e2d" opacity="0.55"/>
  <rect x="784" y="448" width="8" height="40" fill="#1a3a1a" opacity="0.55"/>
  <rect x="768" y="416" width="8" height="16" fill="#4c9b4c" opacity="0.5"/>

  <!-- Seaweed cluster right -->
  <rect x="1000" y="416" width="8" height="80" fill="#1a3a1a" opacity="0.72"/>
  <rect x="1008" y="432" width="8" height="64" fill="#2d6e2d" opacity="0.68"/>
  <rect x="992" y="408" width="8" height="16" fill="#4c9b4c" opacity="0.5"/>
  <rect x="1016" y="448" width="8" height="40" fill="#1a3a1a" opacity="0.58"/>
  <rect x="1008" y="416" width="8" height="16" fill="#4c9b4c" opacity="0.48"/>

  <!-- Tall seaweed far right -->
  <rect x="1120" y="384" width="8" height="112" fill="#1a3a1a" opacity="0.7"/>
  <rect x="1128" y="408" width="8" height="88" fill="#2d6e2d" opacity="0.65"/>
  <rect x="1112" y="376" width="8" height="16" fill="#2d6e2d" opacity="0.55"/>
  <rect x="1120" y="368" width="8" height="16" fill="#4c9b4c" opacity="0.45"/>
  <rect x="1136" y="400" width="8" height="8" fill="#4c9b4c" opacity="0.4"/>

  <!-- ===== CORAL FORMATIONS ===== -->
  <!-- Large purple coral left -->
  <rect x="72" y="432" width="24" height="64" fill="#9050e0" opacity="0.7"/>
  <rect x="64" y="440" width="8" height="56" fill="#5a20a0" opacity="0.6"/>
  <rect x="96" y="440" width="8" height="48" fill="#5a20a0" opacity="0.6"/>
  <rect x="72" y="424" width="16" height="8" fill="#d090ff" opacity="0.55"/>
  <rect x="80" y="416" width="8" height="8" fill="#d090ff" opacity="0.5"/>
  <rect x="56" y="424" width="8" height="24" fill="#9050e0" opacity="0.55"/>
  <rect x="104" y="432" width="8" height="24" fill="#9050e0" opacity="0.55"/>
  <rect x="48" y="416" width="8" height="8" fill="#d090ff" opacity="0.4"/>
  <rect x="112" y="424" width="8" height="8" fill="#d090ff" opacity="0.4"/>
  <!-- Coral branches -->
  <rect x="64" y="416" width="8" height="16" fill="#9050e0" opacity="0.5"/>
  <rect x="88" y="416" width="8" height="16" fill="#9050e0" opacity="0.5"/>

  <!-- Cyan/blue coral center-left -->
  <rect x="336" y="456" width="24" height="40" fill="#50a8e8" opacity="0.6"/>
  <rect x="328" y="464" width="8" height="24" fill="#2a7ac0" opacity="0.55"/>
  <rect x="360" y="464" width="8" height="24" fill="#2a7ac0" opacity="0.55"/>
  <rect x="340" y="448" width="16" height="8" fill="#90d0f8" opacity="0.55"/>
  <rect x="348" y="440" width="8" height="8" fill="#c8f0ff" opacity="0.5"/>
  <rect x="320" y="448" width="8" height="16" fill="#50a8e8" opacity="0.45"/>
  <rect x="368" y="448" width="8" height="16" fill="#50a8e8" opacity="0.45"/>

  <!-- Green bio-coral center -->
  <rect x="552" y="464" width="16" height="32" fill="#78c878" opacity="0.55"/>
  <rect x="544" y="472" width="8" height="16" fill="#4c9b4c" opacity="0.5"/>
  <rect x="568" y="472" width="8" height="16" fill="#4c9b4c" opacity="0.5"/>
  <rect x="552" y="456" width="8" height="8" fill="#a8e4a0" opacity="0.5"/>
  <rect x="560" y="456" width="8" height="8" fill="#a8e4a0" opacity="0.45"/>

  <!-- Large blue coral right -->
  <rect x="928" y="440" width="32" height="56" fill="#50a8e8" opacity="0.65"/>
  <rect x="920" y="448" width="8" height="40" fill="#2a7ac0" opacity="0.6"/>
  <rect x="960" y="448" width="8" height="40" fill="#2a7ac0" opacity="0.6"/>
  <rect x="936" y="432" width="16" height="8" fill="#90d0f8" opacity="0.55"/>
  <rect x="944" y="424" width="8" height="8" fill="#c8f0ff" opacity="0.5"/>
  <rect x="912" y="432" width="8" height="24" fill="#50a8e8" opacity="0.5"/>
  <rect x="968" y="440" width="8" height="24" fill="#50a8e8" opacity="0.5"/>
  <rect x="904" y="424" width="8" height="8" fill="#90d0f8" opacity="0.4"/>
  <rect x="976" y="432" width="8" height="8" fill="#90d0f8" opacity="0.4"/>

  <!-- Purple coral far right -->
  <rect x="1064" y="448" width="24" height="48" fill="#9050e0" opacity="0.65"/>
  <rect x="1056" y="456" width="8" height="32" fill="#5a20a0" opacity="0.55"/>
  <rect x="1088" y="456" width="8" height="32" fill="#5a20a0" opacity="0.55"/>
  <rect x="1072" y="440" width="8" height="8" fill="#d090ff" opacity="0.5"/>
  <rect x="1048" y="448" width="8" height="16" fill="#9050e0" opacity="0.45"/>
  <rect x="1096" y="448" width="8" height="16" fill="#9050e0" opacity="0.45"/>

  <!-- Small green coral accents -->
  <rect x="680" y="472" width="16" height="24" fill="#78c878" opacity="0.5"/>
  <rect x="672" y="480" width="8" height="8" fill="#4c9b4c" opacity="0.45"/>
  <rect x="696" y="480" width="8" height="8" fill="#4c9b4c" opacity="0.45"/>
  <rect x="680" y="464" width="8" height="8" fill="#a8e4a0" opacity="0.45"/>

  <!-- ===== BIOLUMINESCENT JELLYFISH ===== -->
  <!-- Jellyfish 1 (large, purple, left area) -->
  <rect x="152" y="144" width="48" height="24" rx="8" fill="#d090ff" opacity="0.6"/>
  <rect x="160" y="136" width="32" height="8" fill="#d090ff" opacity="0.5"/>
  <rect x="168" y="128" width="16" height="8" fill="#c8f0ff" opacity="0.45"/>
  <!-- Tentacles -->
  <rect x="152" y="168" width="8" height="32" fill="#d090ff" opacity="0.4"/>
  <rect x="168" y="168" width="8" height="40" fill="#d090ff" opacity="0.35"/>
  <rect x="184" y="168" width="8" height="32" fill="#d090ff" opacity="0.4"/>
  <rect x="160" y="168" width="8" height="24" fill="#9050e0" opacity="0.3"/>
  <rect x="176" y="168" width="8" height="24" fill="#9050e0" opacity="0.3"/>
  <rect x="192" y="168" width="8" height="16" fill="#9050e0" opacity="0.25"/>
  <!-- Glow -->
  <circle cx="176" cy="160" r="48" fill="url(#bioGlow1)"/>

  <!-- Jellyfish 2 (large, cyan, right area) -->
  <rect x="920" y="128" width="48" height="24" rx="8" fill="#c8f0ff" opacity="0.55"/>
  <rect x="928" y="120" width="32" height="8" fill="#c8f0ff" opacity="0.45"/>
  <rect x="936" y="112" width="16" height="8" fill="#f0f0f0" opacity="0.25"/>
  <!-- Tentacles -->
  <rect x="920" y="152" width="8" height="32" fill="#c8f0ff" opacity="0.35"/>
  <rect x="936" y="152" width="8" height="40" fill="#c8f0ff" opacity="0.3"/>
  <rect x="952" y="152" width="8" height="32" fill="#c8f0ff" opacity="0.35"/>
  <rect x="928" y="152" width="8" height="24" fill="#90d0f8" opacity="0.25"/>
  <rect x="944" y="152" width="8" height="24" fill="#90d0f8" opacity="0.25"/>
  <rect x="960" y="152" width="8" height="16" fill="#90d0f8" opacity="0.2"/>
  <!-- Glow -->
  <circle cx="944" cy="144" r="48" fill="url(#bioGlow2)"/>

  <!-- Jellyfish 3 (medium, purple, center-upper) -->
  <rect x="560" y="96" width="32" height="16" rx="5" fill="#d090ff" opacity="0.45"/>
  <rect x="568" y="88" width="16" height="8" fill="#d090ff" opacity="0.35"/>
  <rect x="560" y="112" width="8" height="24" fill="#d090ff" opacity="0.3"/>
  <rect x="576" y="112" width="8" height="32" fill="#d090ff" opacity="0.25"/>
  <rect x="584" y="112" width="8" height="24" fill="#9050e0" opacity="0.25"/>
  <rect x="568" y="112" width="8" height="16" fill="#9050e0" opacity="0.2"/>
  <circle cx="576" cy="104" r="32" fill="url(#bioGlow1)" opacity="0.6"/>

  <!-- Jellyfish 4 (small, distant left) -->
  <rect x="344" y="72" width="24" height="16" rx="4" fill="#d090ff" opacity="0.3"/>
  <rect x="344" y="88" width="8" height="16" fill="#d090ff" opacity="0.2"/>
  <rect x="356" y="88" width="8" height="24" fill="#d090ff" opacity="0.18"/>
  <rect x="352" y="88" width="8" height="12" fill="#9050e0" opacity="0.15"/>
  <circle cx="356" cy="80" r="20" fill="url(#bioGlow1)" opacity="0.4"/>

  <!-- Jellyfish 5 (tiny, far right) -->
  <rect x="1064" y="96" width="16" height="8" fill="#d090ff" opacity="0.25"/>
  <rect x="1064" y="104" width="8" height="16" fill="#d090ff" opacity="0.18"/>
  <rect x="1072" y="104" width="8" height="8" fill="#9050e0" opacity="0.15"/>

  <!-- Jellyfish 6 (small, cyan, lower right) -->
  <rect x="1024" y="256" width="24" height="16" rx="4" fill="#c8f0ff" opacity="0.35"/>
  <rect x="1024" y="272" width="8" height="16" fill="#c8f0ff" opacity="0.25"/>
  <rect x="1032" y="272" width="8" height="24" fill="#c8f0ff" opacity="0.2"/>
  <rect x="1040" y="272" width="8" height="16" fill="#90d0f8" opacity="0.2"/>
  <circle cx="1036" cy="264" r="24" fill="url(#bioGlow2)" opacity="0.5"/>

  <!-- ===== SCHOOLS OF FISH ===== -->
  <!-- School 1 (upper-left, blue fish moving right) -->
  <rect x="96" y="224" width="8" height="4" fill="#50a8e8" opacity="0.55"/>
  <rect x="112" y="216" width="8" height="4" fill="#50a8e8" opacity="0.5"/>
  <rect x="128" y="224" width="8" height="4" fill="#90d0f8" opacity="0.5"/>
  <rect x="104" y="232" width="8" height="4" fill="#50a8e8" opacity="0.45"/>
  <rect x="120" y="240" width="8" height="4" fill="#90d0f8" opacity="0.5"/>
  <rect x="136" y="232" width="8" height="4" fill="#50a8e8" opacity="0.45"/>
  <rect x="88" y="240" width="8" height="4" fill="#90d0f8" opacity="0.4"/>
  <rect x="144" y="216" width="8" height="4" fill="#50a8e8" opacity="0.4"/>
  <rect x="152" y="228" width="8" height="4" fill="#90d0f8" opacity="0.35"/>
  <rect x="100" y="248" width="8" height="4" fill="#50a8e8" opacity="0.35"/>

  <!-- School 2 (mid-right, orange/warm fish) -->
  <rect x="824" y="296" width="8" height="4" fill="#f8a060" opacity="0.5"/>
  <rect x="840" y="288" width="8" height="4" fill="#f06020" opacity="0.5"/>
  <rect x="856" y="296" width="8" height="4" fill="#f8a060" opacity="0.45"/>
  <rect x="832" y="304" width="8" height="4" fill="#f06020" opacity="0.45"/>
  <rect x="848" y="312" width="8" height="4" fill="#f8a060" opacity="0.5"/>
  <rect x="864" y="304" width="8" height="4" fill="#f06020" opacity="0.4"/>
  <rect x="872" y="288" width="8" height="4" fill="#f8a060" opacity="0.4"/>
  <rect x="816" y="312" width="8" height="4" fill="#f06020" opacity="0.4"/>
  <rect x="880" y="300" width="8" height="4" fill="#f8a060" opacity="0.35"/>

  <!-- School 3 (center, green fish near light) -->
  <rect x="504" y="192" width="8" height="4" fill="#a8e4a0" opacity="0.45"/>
  <rect x="520" y="184" width="8" height="4" fill="#78c878" opacity="0.45"/>
  <rect x="536" y="192" width="8" height="4" fill="#a8e4a0" opacity="0.4"/>
  <rect x="512" y="200" width="8" height="4" fill="#78c878" opacity="0.4"/>
  <rect x="528" y="200" width="8" height="4" fill="#a8e4a0" opacity="0.45"/>
  <rect x="544" y="184" width="8" height="4" fill="#78c878" opacity="0.35"/>
  <rect x="496" y="200" width="8" height="4" fill="#a8e4a0" opacity="0.35"/>
  <rect x="552" y="196" width="8" height="4" fill="#78c878" opacity="0.35"/>

  <!-- School 4 (lower center, tiny blue) -->
  <rect x="600" y="384" width="8" height="4" fill="#90d0f8" opacity="0.4"/>
  <rect x="616" y="376" width="8" height="4" fill="#50a8e8" opacity="0.4"/>
  <rect x="632" y="384" width="8" height="4" fill="#90d0f8" opacity="0.35"/>
  <rect x="608" y="392" width="8" height="4" fill="#50a8e8" opacity="0.35"/>
  <rect x="624" y="392" width="8" height="4" fill="#90d0f8" opacity="0.4"/>
  <rect x="640" y="376" width="8" height="4" fill="#50a8e8" opacity="0.3"/>

  <!-- School 5 (upper right, purple-tinted) -->
  <rect x="752" y="168" width="8" height="4" fill="#d090ff" opacity="0.35"/>
  <rect x="768" y="160" width="8" height="4" fill="#9050e0" opacity="0.35"/>
  <rect x="784" y="168" width="8" height="4" fill="#d090ff" opacity="0.3"/>
  <rect x="760" y="176" width="8" height="4" fill="#9050e0" opacity="0.3"/>
  <rect x="776" y="176" width="8" height="4" fill="#d090ff" opacity="0.35"/>

  <!-- ===== DEEP SEA CREATURE (large eel/serpent silhouette) ===== -->
  <rect x="120" y="360" width="40" height="8" fill="#1a4a8a" opacity="0.3"/>
  <rect x="152" y="352" width="32" height="8" fill="#1a4a8a" opacity="0.25"/>
  <rect x="176" y="344" width="24" height="8" fill="#1a4a8a" opacity="0.22"/>
  <rect x="192" y="352" width="16" height="8" fill="#1a4a8a" opacity="0.2"/>
  <!-- Eye glow -->
  <rect x="120" y="360" width="8" height="8" fill="#a8e4a0" opacity="0.5"/>

  <!-- Second creature hint (distant right) -->
  <rect x="1072" y="376" width="32" height="8" fill="#1a4a8a" opacity="0.2"/>
  <rect x="1096" y="368" width="24" height="8" fill="#1a4a8a" opacity="0.18"/>
  <rect x="1112" y="376" width="16" height="8" fill="#1a4a8a" opacity="0.15"/>

  <!-- ===== AIR BUBBLES ===== -->
  <!-- Bubble stream 1 -->
  <rect x="88" y="384" width="8" height="8" fill="#c8f0ff" opacity="0.25"/>
  <rect x="80" y="352" width="8" height="8" fill="#c8f0ff" opacity="0.22"/>
  <rect x="96" y="320" width="8" height="8" fill="#c8f0ff" opacity="0.18"/>
  <rect x="80" y="280" width="8" height="8" fill="#c8f0ff" opacity="0.15"/>
  <rect x="88" y="240" width="8" height="8" fill="#c8f0ff" opacity="0.12"/>

  <!-- Bubble stream 2 -->
  <rect x="480" y="400" width="8" height="8" fill="#c8f0ff" opacity="0.22"/>
  <rect x="488" y="360" width="8" height="8" fill="#c8f0ff" opacity="0.2"/>
  <rect x="472" y="320" width="8" height="8" fill="#c8f0ff" opacity="0.17"/>
  <rect x="488" y="272" width="8" height="8" fill="#c8f0ff" opacity="0.14"/>

  <!-- Bubble stream 3 -->
  <rect x="704" y="392" width="8" height="8" fill="#c8f0ff" opacity="0.22"/>
  <rect x="712" y="352" width="8" height="8" fill="#c8f0ff" opacity="0.18"/>
  <rect x="696" y="312" width="8" height="8" fill="#c8f0ff" opacity="0.15"/>
  <rect x="712" y="264" width="8" height="8" fill="#c8f0ff" opacity="0.12"/>

  <!-- Bubble stream 4 -->
  <rect x="960" y="400" width="8" height="8" fill="#c8f0ff" opacity="0.2"/>
  <rect x="968" y="360" width="8" height="8" fill="#c8f0ff" opacity="0.18"/>
  <rect x="952" y="320" width="8" height="8" fill="#c8f0ff" opacity="0.14"/>
  <rect x="960" y="272" width="8" height="8" fill="#c8f0ff" opacity="0.11"/>

  <!-- Larger single bubbles -->
  <rect x="248" y="296" width="16" height="16" rx="4" fill="#c8f0ff" opacity="0.12"/>
  <rect x="632" y="224" width="16" height="16" rx="4" fill="#c8f0ff" opacity="0.1"/>
  <rect x="1040" y="336" width="16" height="16" rx="4" fill="#c8f0ff" opacity="0.1"/>

  <!-- ===== BIOLUMINESCENT PARTICLES ===== -->
  <rect x="128" y="320" width="4" height="4" fill="#a8e4a0" opacity="0.55"/>
  <rect x="240" y="176" width="4" height="4" fill="#a8e4a0" opacity="0.45"/>
  <rect x="384" y="264" width="4" height="4" fill="#c8f0ff" opacity="0.5"/>
  <rect x="496" y="144" width="4" height="4" fill="#d090ff" opacity="0.45"/>
  <rect x="648" y="240" width="4" height="4" fill="#a8e4a0" opacity="0.5"/>
  <rect x="792" y="320" width="4" height="4" fill="#c8f0ff" opacity="0.45"/>
  <rect x="216" y="384" width="4" height="4" fill="#d090ff" opacity="0.4"/>
  <rect x="600" y="312" width="4" height="4" fill="#a8e4a0" opacity="0.45"/>
  <rect x="1040" y="240" width="4" height="4" fill="#c8f0ff" opacity="0.4"/>
  <rect x="320" y="152" width="4" height="4" fill="#d090ff" opacity="0.35"/>
  <rect x="864" y="136" width="4" height="4" fill="#a8e4a0" opacity="0.35"/>
  <rect x="104" y="112" width="4" height="4" fill="#c8f0ff" opacity="0.3"/>
  <rect x="1088" y="176" width="4" height="4" fill="#d090ff" opacity="0.35"/>
  <rect x="440" y="400" width="4" height="4" fill="#a8e4a0" opacity="0.45"/>
  <rect x="728" y="408" width="4" height="4" fill="#c8f0ff" opacity="0.4"/>
  <rect x="296" y="336" width="4" height="4" fill="#a8e4a0" opacity="0.4"/>
  <rect x="824" y="224" width="4" height="4" fill="#d090ff" opacity="0.35"/>
  <rect x="168" y="272" width="4" height="4" fill="#c8f0ff" opacity="0.4"/>
  <rect x="464" y="336" width="4" height="4" fill="#a8e4a0" opacity="0.45"/>
  <rect x="976" y="176" width="4" height="4" fill="#c8f0ff" opacity="0.35"/>

  <!-- Bio-glow halos on coral tips -->
  <circle cx="80" cy="420" r="16" fill="url(#bioGlowGreen)" opacity="0.6"/>
  <circle cx="348" cy="444" r="14" fill="url(#bioGlow2)" opacity="0.55"/>
  <circle cx="556" cy="460" r="12" fill="url(#bioGlowGreen)" opacity="0.5"/>
  <circle cx="944" cy="428" r="16" fill="url(#bioGlow2)" opacity="0.55"/>
  <circle cx="1076" cy="444" r="14" fill="url(#bioGlow1)" opacity="0.5"/>
  <circle cx="684" cy="468" r="10" fill="url(#bioGlowGreen)" opacity="0.5"/>

  <!-- ===== FOREGROUND FRAMING ELEMENTS ===== -->
  <!-- Left foreground seaweed/coral -->
  <rect x="0" y="504" width="16" height="171" fill="#1a3a1a" opacity="0.85"/>
  <rect x="16" y="520" width="8" height="155" fill="#2d6e2d" opacity="0.8"/>
  <rect x="0" y="496" width="8" height="8" fill="#2d6e2d" opacity="0.7"/>
  <rect x="24" y="536" width="8" height="139" fill="#1a3a1a" opacity="0.7"/>

  <!-- Right foreground coral -->
  <rect x="1152" y="488" width="48" height="187" fill="#1a0a3a" opacity="0.65"/>
  <rect x="1160" y="472" width="32" height="16" fill="#5a20a0" opacity="0.55"/>
  <rect x="1168" y="456" width="24" height="16" fill="#9050e0" opacity="0.5"/>
  <rect x="1176" y="448" width="8" height="8" fill="#d090ff" opacity="0.45"/>
  <rect x="1144" y="504" width="8" height="171" fill="#5a20a0" opacity="0.55"/>

  <!-- Bottom-left foreground rock -->
  <rect x="0" y="560" width="80" height="115" fill="#2b2b2b" opacity="0.5"/>
  <rect x="80" y="576" width="40" height="99" fill="#2b2b2b" opacity="0.4"/>
  <rect x="0" y="552" width="64" height="8" fill="#4a4a4a" opacity="0.35"/>

  <!-- Bottom-right foreground rock -->
  <rect x="1120" y="568" width="80" height="107" fill="#2b2b2b" opacity="0.5"/>
  <rect x="1080" y="584" width="40" height="91" fill="#2b2b2b" opacity="0.4"/>
  <rect x="1096" y="560" width="64" height="8" fill="#4a4a4a" opacity="0.35"/>

  <!-- ===== VIGNETTE OVERLAY ===== -->
  <rect width="1200" height="675" fill="url(#vignette)"/>

  <!-- ===== EDGE DARKNESS ===== -->
  <rect x="0" y="0" width="48" height="675" fill="#0d0d0d" opacity="0.55"/>
  <rect x="1152" y="0" width="48" height="675" fill="#0d0d0d" opacity="0.55"/>
  <rect x="0" y="0" width="1200" height="24" fill="#0d0d0d" opacity="0.45"/>
  <rect x="0" y="624" width="1200" height="51" fill="#0d0d0d" opacity="0.5"/>

  <!-- ===== TEXT: Title and subtitle ===== -->
  <!-- Dark backing -->
  <rect x="40" y="568" width="520" height="64" fill="#0d0d0d" opacity="0.75" rx="3"/>
  <rect x="40" y="568" width="520" height="64" fill="#0a1a3a" opacity="0.3" rx="3"/>

  <!-- Title: ABYSSAL DEPTHS -->
  <text x="56" y="600" font-family="monospace" font-size="32" font-weight="bold" fill="#ffe040" letter-spacing="4">ABYSSAL DEPTHS</text>
  <!-- Subtitle -->
  <text x="56" y="621" font-family="monospace" font-size="11" fill="#90d0f8" opacity="0.85" letter-spacing="0.5">Sunken kingdoms and glowing creatures in the endless deep</text>

  <!-- ===== WATERMARK ===== -->
  <text x="1152" y="660" font-family="monospace" font-size="12" fill="#c8c8c8" opacity="0.3" text-anchor="end" letter-spacing="1">PixelRealm</text>
</svg>