<svg xmlns="http://www.w3.org/2000/svg" width="630" height="500" viewBox="0 0 630 500" style="image-rendering: pixelated;">
  <defs>
    <style>
      text { font-family: monospace; image-rendering: pixelated; }
    </style>
    <!-- Lava glow filter -->
    <filter id="lavaGlow6">
      <feGaussianBlur stdDeviation="3" result="blur"/>
      <feMerge><feMergeNode in="blur"/><feMergeNode in="SourceGraphic"/></feMerge>
    </filter>
    <!-- Smoke blur -->
    <filter id="smoke6">
      <feGaussianBlur stdDeviation="4"/>
    </filter>
  </defs>

  <!-- ===== ASH SKY BACKGROUND ===== -->
  <!-- Dark volcanic sky gradient built with pixel rows -->
  <!-- Top: deepest ash darkness -->
  <rect x="0" y="0" width="630" height="30" fill="#0d0d0d"/>
  <rect x="0" y="30" width="630" height="24" fill="#1a0a3a"/>
  <rect x="0" y="54" width="630" height="24" fill="#2b2b2b"/>
  <rect x="0" y="78" width="630" height="24" fill="#5a0a0a"/>
  <rect x="0" y="102" width="630" height="24" fill="#5a0a0a"/>
  <rect x="0" y="126" width="630" height="30" fill="#a01010"/>
  <rect x="0" y="156" width="630" height="24" fill="#5a0a0a"/>
  <rect x="0" y="180" width="630" height="24" fill="#5a0a0a"/>
  <rect x="0" y="204" width="630" height="18" fill="#2b2b2b"/>

  <!-- ===== DISTANT VOLCANIC PEAK (erupting) ===== -->
  <!-- Main volcano silhouette -->
  <rect x="222" y="120" width="6" height="6" fill="#2b2b2b"/>
  <rect x="228" y="114" width="6" height="12" fill="#2b2b2b"/>
  <rect x="234" y="108" width="6" height="18" fill="#0d0d0d"/>
  <rect x="240" y="102" width="6" height="24" fill="#0d0d0d"/>
  <rect x="246" y="96" width="6" height="30" fill="#0d0d0d"/>
  <rect x="252" y="90" width="6" height="36" fill="#0d0d0d"/>
  <rect x="258" y="84" width="6" height="42" fill="#0d0d0d"/>
  <rect x="264" y="78" width="6" height="48" fill="#0d0d0d"/>
  <rect x="270" y="72" width="6" height="54" fill="#0d0d0d"/>
  <rect x="276" y="66" width="6" height="60" fill="#0d0d0d"/>
  <rect x="282" y="60" width="6" height="66" fill="#0d0d0d"/>
  <rect x="288" y="54" width="6" height="72" fill="#0d0d0d"/>
  <rect x="294" y="54" width="6" height="72" fill="#0d0d0d"/>
  <!-- Crater opening -->
  <rect x="300" y="60" width="6" height="6" fill="#d42020"/>
  <rect x="306" y="54" width="6" height="12" fill="#f06020"/>
  <rect x="312" y="48" width="6" height="12" fill="#ffe040"/>
  <rect x="318" y="48" width="6" height="12" fill="#ffe040"/>
  <rect x="324" y="54" width="6" height="12" fill="#f06020"/>
  <rect x="330" y="60" width="6" height="6" fill="#d42020"/>
  <!-- Right slope -->
  <rect x="336" y="54" width="6" height="72" fill="#0d0d0d"/>
  <rect x="342" y="54" width="6" height="72" fill="#0d0d0d"/>
  <rect x="348" y="60" width="6" height="66" fill="#0d0d0d"/>
  <rect x="354" y="66" width="6" height="60" fill="#0d0d0d"/>
  <rect x="360" y="72" width="6" height="54" fill="#0d0d0d"/>
  <rect x="366" y="78" width="6" height="48" fill="#0d0d0d"/>
  <rect x="372" y="84" width="6" height="42" fill="#0d0d0d"/>
  <rect x="378" y="90" width="6" height="36" fill="#0d0d0d"/>
  <rect x="384" y="96" width="6" height="30" fill="#0d0d0d"/>
  <rect x="390" y="102" width="6" height="24" fill="#0d0d0d"/>
  <rect x="396" y="108" width="6" height="18" fill="#0d0d0d"/>
  <rect x="402" y="114" width="6" height="12" fill="#2b2b2b"/>
  <rect x="408" y="120" width="6" height="6" fill="#2b2b2b"/>

  <!-- Volcano base fill -->
  <rect x="210" y="126" width="210" height="96" fill="#0d0d0d"/>
  <!-- Extended slopes -->
  <rect x="186" y="138" width="24" height="84" fill="#0d0d0d"/>
  <rect x="420" y="138" width="24" height="84" fill="#0d0d0d"/>
  <rect x="168" y="156" width="18" height="66" fill="#0d0d0d"/>
  <rect x="444" y="156" width="18" height="66" fill="#0d0d0d"/>

  <!-- ===== ERUPTION: lava fountain from crater ===== -->
  <rect x="306" y="30" width="6" height="24" fill="#f06020" filter="url(#lavaGlow6)"/>
  <rect x="312" y="18" width="6" height="36" fill="#ffe040" filter="url(#lavaGlow6)"/>
  <rect x="318" y="12" width="6" height="42" fill="#ffe040" filter="url(#lavaGlow6)"/>
  <rect x="324" y="24" width="6" height="30" fill="#f06020" filter="url(#lavaGlow6)"/>
  <rect x="300" y="42" width="6" height="18" fill="#d42020"/>
  <rect x="330" y="36" width="6" height="24" fill="#d42020"/>
  <!-- Lava splatter -->
  <rect x="294" y="24" width="6" height="6" fill="#f8a060"/>
  <rect x="336" y="18" width="6" height="6" fill="#f8a060"/>
  <rect x="288" y="12" width="6" height="6" fill="#f06020"/>
  <rect x="342" y="6" width="6" height="6" fill="#f06020"/>
  <rect x="318" y="0" width="6" height="6" fill="#ffe040"/>

  <!-- ===== SMOKE/ASH CLOUDS at volcano peak ===== -->
  <rect x="270" y="24" width="18" height="12" fill="#4a4a4a" opacity="0.5" filter="url(#smoke6)"/>
  <rect x="282" y="12" width="24" height="18" fill="#6e6e6e" opacity="0.4" filter="url(#smoke6)"/>
  <rect x="348" y="18" width="24" height="12" fill="#4a4a4a" opacity="0.5" filter="url(#smoke6)"/>
  <rect x="360" y="6" width="18" height="18" fill="#6e6e6e" opacity="0.35" filter="url(#smoke6)"/>
  <rect x="252" y="36" width="18" height="12" fill="#4a4a4a" opacity="0.3" filter="url(#smoke6)"/>
  <rect x="372" y="30" width="18" height="12" fill="#4a4a4a" opacity="0.3" filter="url(#smoke6)"/>

  <!-- ===== LAVA GLOW on volcano slopes ===== -->
  <rect x="288" y="72" width="6" height="6" fill="#d42020" opacity="0.6"/>
  <rect x="294" y="66" width="6" height="6" fill="#f06020" opacity="0.5"/>
  <rect x="336" y="66" width="6" height="6" fill="#f06020" opacity="0.5"/>
  <rect x="342" y="72" width="6" height="6" fill="#d42020" opacity="0.6"/>
  <!-- Lava streaks down slope -->
  <rect x="300" y="78" width="6" height="18" fill="#d42020" opacity="0.4"/>
  <rect x="312" y="66" width="6" height="30" fill="#f06020" opacity="0.3"/>
  <rect x="324" y="72" width="6" height="24" fill="#d42020" opacity="0.4"/>

  <!-- ===== MIDGROUND: Obsidian terrain layer ===== -->
  <rect x="0" y="222" width="630" height="278" fill="#0d0d0d"/>
  <!-- Terrain height variation -->
  <rect x="0" y="210" width="120" height="12" fill="#0d0d0d"/>
  <rect x="120" y="216" width="60" height="6" fill="#0d0d0d"/>
  <rect x="462" y="210" width="90" height="12" fill="#0d0d0d"/>
  <rect x="552" y="216" width="78" height="6" fill="#0d0d0d"/>

  <!-- ===== JAGGED ROCK PILLARS ===== -->
  <!-- Pillar 1 (left) -->
  <rect x="42" y="156" width="12" height="66" fill="#0d0d0d"/>
  <rect x="36" y="168" width="6" height="54" fill="#0d0d0d"/>
  <rect x="54" y="162" width="6" height="60" fill="#2b2b2b"/>
  <rect x="48" y="150" width="6" height="6" fill="#2b2b2b"/>
  <!-- Pillar 2 -->
  <rect x="96" y="174" width="12" height="48" fill="#0d0d0d"/>
  <rect x="90" y="186" width="6" height="36" fill="#2b2b2b"/>
  <rect x="108" y="180" width="6" height="42" fill="#0d0d0d"/>
  <!-- Pillar 3 (right side) -->
  <rect x="510" y="162" width="12" height="60" fill="#0d0d0d"/>
  <rect x="504" y="174" width="6" height="48" fill="#2b2b2b"/>
  <rect x="522" y="168" width="6" height="54" fill="#0d0d0d"/>
  <!-- Pillar 4 (far right) -->
  <rect x="570" y="180" width="12" height="42" fill="#0d0d0d"/>
  <rect x="564" y="192" width="6" height="30" fill="#2b2b2b"/>
  <rect x="582" y="186" width="6" height="36" fill="#0d0d0d"/>
  <!-- Pillar 5 (mid-left, tall) -->
  <rect x="150" y="168" width="12" height="54" fill="#0d0d0d"/>
  <rect x="144" y="180" width="6" height="42" fill="#2b2b2b"/>
  <rect x="162" y="174" width="6" height="48" fill="#0d0d0d"/>
  <!-- Pillar 6 (right of volcano) -->
  <rect x="468" y="168" width="12" height="54" fill="#0d0d0d"/>
  <rect x="462" y="180" width="6" height="42" fill="#0d0d0d"/>
  <rect x="480" y="174" width="6" height="48" fill="#2b2b2b"/>

  <!-- ===== LAVA RIVERS (mid-ground, flowing between rocks) ===== -->
  <!-- Main lava river -->
  <rect x="0" y="240" width="42" height="12" fill="#d42020"/>
  <rect x="42" y="240" width="24" height="12" fill="#f06020"/>
  <rect x="66" y="246" width="30" height="12" fill="#ffe040" filter="url(#lavaGlow6)"/>
  <rect x="96" y="240" width="36" height="12" fill="#f06020"/>
  <rect x="132" y="234" width="30" height="12" fill="#d42020"/>
  <rect x="162" y="234" width="24" height="18" fill="#f06020"/>
  <rect x="186" y="240" width="42" height="12" fill="#ffe040" filter="url(#lavaGlow6)"/>
  <rect x="228" y="246" width="36" height="12" fill="#f06020"/>
  <rect x="264" y="240" width="48" height="12" fill="#d42020"/>
  <rect x="312" y="234" width="42" height="12" fill="#f06020"/>
  <rect x="354" y="240" width="30" height="12" fill="#ffe040" filter="url(#lavaGlow6)"/>
  <rect x="384" y="246" width="36" height="12" fill="#f06020"/>
  <rect x="420" y="240" width="42" height="12" fill="#d42020"/>
  <rect x="462" y="234" width="30" height="12" fill="#f06020"/>
  <rect x="492" y="240" width="48" height="12" fill="#ffe040" filter="url(#lavaGlow6)"/>
  <rect x="540" y="246" width="42" height="12" fill="#f06020"/>
  <rect x="582" y="240" width="48" height="12" fill="#d42020"/>

  <!-- Heat distortion rows (alternating lighter/darker near lava) -->
  <rect x="0" y="228" width="630" height="6" fill="#5a0a0a" opacity="0.4"/>
  <rect x="0" y="252" width="630" height="6" fill="#5a0a0a" opacity="0.5"/>
  <rect x="0" y="258" width="630" height="6" fill="#a01010" opacity="0.2"/>

  <!-- Secondary lava river (lower) -->
  <rect x="60" y="306" width="36" height="12" fill="#d42020"/>
  <rect x="96" y="312" width="48" height="12" fill="#f06020"/>
  <rect x="144" y="306" width="30" height="12" fill="#ffe040" filter="url(#lavaGlow6)"/>
  <rect x="174" y="312" width="42" height="12" fill="#f06020"/>
  <rect x="216" y="306" width="24" height="12" fill="#d42020"/>

  <rect x="390" y="312" width="42" height="12" fill="#d42020"/>
  <rect x="432" y="306" width="36" height="12" fill="#f06020"/>
  <rect x="468" y="312" width="48" height="12" fill="#ffe040" filter="url(#lavaGlow6)"/>
  <rect x="516" y="306" width="36" height="12" fill="#f06020"/>
  <rect x="552" y="312" width="48" height="12" fill="#d42020"/>

  <!-- Heat distortion near secondary river -->
  <rect x="60" y="300" width="180" height="6" fill="#5a0a0a" opacity="0.3"/>
  <rect x="390" y="300" width="210" height="6" fill="#5a0a0a" opacity="0.3"/>
  <rect x="60" y="324" width="180" height="6" fill="#a01010" opacity="0.2"/>
  <rect x="390" y="324" width="210" height="6" fill="#a01010" opacity="0.2"/>

  <!-- ===== GLOWING CRACKS in obsidian ground ===== -->
  <!-- Crack network 1 -->
  <rect x="30" y="270" width="18" height="6" fill="#d42020" opacity="0.7"/>
  <rect x="48" y="276" width="12" height="6" fill="#f06020" opacity="0.6"/>
  <rect x="60" y="282" width="6" height="6" fill="#ffe040" opacity="0.5"/>
  <rect x="66" y="276" width="12" height="6" fill="#d42020" opacity="0.5"/>

  <!-- Crack network 2 -->
  <rect x="270" y="276" width="24" height="6" fill="#f06020" opacity="0.6"/>
  <rect x="294" y="270" width="6" height="6" fill="#ffe040" opacity="0.5"/>
  <rect x="300" y="276" width="18" height="6" fill="#d42020" opacity="0.7"/>
  <rect x="318" y="282" width="12" height="6" fill="#f06020" opacity="0.5"/>

  <!-- Crack network 3 -->
  <rect x="480" y="270" width="18" height="6" fill="#d42020" opacity="0.6"/>
  <rect x="498" y="276" width="6" height="6" fill="#ffe040" opacity="0.5"/>
  <rect x="504" y="282" width="24" height="6" fill="#f06020" opacity="0.6"/>

  <!-- Large ground cracks -->
  <rect x="120" y="348" width="30" height="6" fill="#d42020" opacity="0.5"/>
  <rect x="150" y="354" width="6" height="6" fill="#f06020" opacity="0.6"/>
  <rect x="156" y="360" width="24" height="6" fill="#d42020" opacity="0.4"/>

  <rect x="330" y="342" width="24" height="6" fill="#f06020" opacity="0.5"/>
  <rect x="354" y="348" width="6" height="6" fill="#ffe040" opacity="0.6"/>
  <rect x="360" y="354" width="18" height="6" fill="#d42020" opacity="0.5"/>

  <rect x="540" y="354" width="24" height="6" fill="#d42020" opacity="0.5"/>
  <rect x="564" y="360" width="12" height="6" fill="#f06020" opacity="0.4"/>

  <!-- Foreground cracks -->
  <rect x="42" y="390" width="36" height="6" fill="#d42020" opacity="0.4"/>
  <rect x="78" y="396" width="18" height="6" fill="#f06020" opacity="0.5"/>
  <rect x="240" y="384" width="30" height="6" fill="#d42020" opacity="0.5"/>
  <rect x="270" y="390" width="12" height="6" fill="#ffe040" opacity="0.4"/>
  <rect x="450" y="396" width="24" height="6" fill="#d42020" opacity="0.4"/>
  <rect x="474" y="390" width="18" height="6" fill="#f06020" opacity="0.5"/>

  <!-- ===== OBSIDIAN TEXTURE on ground ===== -->
  <rect x="12" y="264" width="6" height="6" fill="#2b2b2b" opacity="0.5"/>
  <rect x="78" y="270" width="6" height="6" fill="#4a4a4a" opacity="0.3"/>
  <rect x="180" y="258" width="6" height="6" fill="#2b2b2b" opacity="0.4"/>
  <rect x="252" y="264" width="6" height="6" fill="#4a4a4a" opacity="0.3"/>
  <rect x="360" y="270" width="6" height="6" fill="#2b2b2b" opacity="0.5"/>
  <rect x="420" y="258" width="6" height="6" fill="#2b2b2b" opacity="0.4"/>
  <rect x="540" y="264" width="6" height="6" fill="#4a4a4a" opacity="0.3"/>
  <rect x="600" y="270" width="6" height="6" fill="#2b2b2b" opacity="0.5"/>

  <!-- More ground texture -->
  <rect x="24" y="336" width="6" height="6" fill="#2b2b2b" opacity="0.3"/>
  <rect x="108" y="342" width="6" height="6" fill="#4a4a4a" opacity="0.2"/>
  <rect x="210" y="330" width="6" height="6" fill="#2b2b2b" opacity="0.4"/>
  <rect x="300" y="336" width="6" height="6" fill="#2b2b2b" opacity="0.3"/>
  <rect x="408" y="342" width="6" height="6" fill="#4a4a4a" opacity="0.2"/>
  <rect x="510" y="336" width="6" height="6" fill="#2b2b2b" opacity="0.4"/>
  <rect x="588" y="342" width="6" height="6" fill="#2b2b2b" opacity="0.3"/>

  <!-- ===== FOREGROUND broken terrain blocks ===== -->
  <rect x="0" y="408" width="48" height="30" fill="#2b2b2b"/>
  <rect x="6" y="402" width="36" height="6" fill="#0d0d0d"/>
  <rect x="12" y="396" width="24" height="6" fill="#0d0d0d"/>

  <rect x="132" y="414" width="42" height="24" fill="#2b2b2b"/>
  <rect x="138" y="408" width="30" height="6" fill="#0d0d0d"/>

  <rect x="540" y="408" width="54" height="30" fill="#2b2b2b"/>
  <rect x="546" y="402" width="42" height="6" fill="#0d0d0d"/>
  <rect x="552" y="396" width="30" height="6" fill="#0d0d0d"/>

  <rect x="420" y="420" width="36" height="18" fill="#2b2b2b"/>
  <rect x="426" y="414" width="24" height="6" fill="#0d0d0d"/>

  <!-- ===== EMBER AND ASH PARTICLES floating upward ===== -->
  <!-- Bright embers (yellow/orange) -->
  <rect x="48" y="48" width="6" height="6" fill="#ffe040" opacity="0.9"/>
  <rect x="126" y="84" width="6" height="6" fill="#f8a060" opacity="0.8"/>
  <rect x="180" y="36" width="6" height="6" fill="#f06020" opacity="0.7"/>
  <rect x="234" y="24" width="6" height="6" fill="#ffe040" opacity="0.6"/>
  <rect x="462" y="42" width="6" height="6" fill="#f8a060" opacity="0.8"/>
  <rect x="528" y="72" width="6" height="6" fill="#ffe040" opacity="0.7"/>
  <rect x="594" y="48" width="6" height="6" fill="#f06020" opacity="0.6"/>
  <rect x="78" y="132" width="6" height="6" fill="#f8a060" opacity="0.7"/>
  <rect x="432" y="108" width="6" height="6" fill="#ffe040" opacity="0.8"/>
  <rect x="558" y="120" width="6" height="6" fill="#f06020" opacity="0.6"/>
  <rect x="18" y="90" width="6" height="6" fill="#ffe040" opacity="0.5"/>
  <rect x="348" y="30" width="6" height="6" fill="#f8a060" opacity="0.7"/>

  <!-- Mid-level embers -->
  <rect x="36" y="168" width="6" height="6" fill="#f8a060" opacity="0.5"/>
  <rect x="102" y="198" width="6" height="6" fill="#ffe040" opacity="0.6"/>
  <rect x="210" y="180" width="6" height="6" fill="#f06020" opacity="0.5"/>
  <rect x="390" y="186" width="6" height="6" fill="#f8a060" opacity="0.6"/>
  <rect x="498" y="174" width="6" height="6" fill="#ffe040" opacity="0.5"/>
  <rect x="600" y="192" width="6" height="6" fill="#f06020" opacity="0.4"/>

  <!-- Ash particles (gray, subtle) -->
  <rect x="60" y="60" width="6" height="6" fill="#6e6e6e" opacity="0.4"/>
  <rect x="156" y="42" width="6" height="6" fill="#4a4a4a" opacity="0.3"/>
  <rect x="480" y="54" width="6" height="6" fill="#6e6e6e" opacity="0.3"/>
  <rect x="540" y="36" width="6" height="6" fill="#4a4a4a" opacity="0.4"/>
  <rect x="360" y="66" width="6" height="6" fill="#6e6e6e" opacity="0.3"/>
  <rect x="420" y="30" width="6" height="6" fill="#4a4a4a" opacity="0.3"/>
  <rect x="24" y="108" width="6" height="6" fill="#6e6e6e" opacity="0.3"/>
  <rect x="192" y="96" width="6" height="6" fill="#4a4a4a" opacity="0.4"/>
  <rect x="570" y="90" width="6" height="6" fill="#6e6e6e" opacity="0.3"/>

  <!-- Lower floating embers -->
  <rect x="72" y="288" width="6" height="6" fill="#f8a060" opacity="0.4"/>
  <rect x="186" y="270" width="6" height="6" fill="#ffe040" opacity="0.5"/>
  <rect x="324" y="294" width="6" height="6" fill="#f06020" opacity="0.4"/>
  <rect x="444" y="276" width="6" height="6" fill="#f8a060" opacity="0.5"/>
  <rect x="576" y="288" width="6" height="6" fill="#ffe040" opacity="0.4"/>
  <rect x="252" y="330" width="6" height="6" fill="#f8a060" opacity="0.3"/>
  <rect x="378" y="348" width="6" height="6" fill="#f06020" opacity="0.3"/>
  <rect x="510" y="342" width="6" height="6" fill="#f8a060" opacity="0.3"/>

  <!-- ===== SECOND SMALLER VOLCANO (background right) ===== -->
  <rect x="528" y="156" width="6" height="6" fill="#2b2b2b"/>
  <rect x="534" y="150" width="6" height="12" fill="#0d0d0d"/>
  <rect x="540" y="144" width="6" height="18" fill="#0d0d0d"/>
  <rect x="546" y="138" width="6" height="24" fill="#0d0d0d"/>
  <rect x="552" y="138" width="6" height="24" fill="#0d0d0d"/>
  <!-- Small eruption glow -->
  <rect x="546" y="132" width="6" height="6" fill="#d42020" opacity="0.7"/>
  <rect x="552" y="126" width="6" height="12" fill="#f06020" opacity="0.6"/>
  <rect x="558" y="138" width="6" height="24" fill="#0d0d0d"/>
  <rect x="564" y="144" width="6" height="18" fill="#0d0d0d"/>
  <rect x="570" y="150" width="6" height="12" fill="#0d0d0d"/>
  <rect x="576" y="156" width="6" height="6" fill="#2b2b2b"/>
  <rect x="522" y="162" width="66" height="60" fill="#0d0d0d"/>

  <!-- ===== SMALL VOLCANO (background left) ===== -->
  <rect x="24" y="174" width="6" height="6" fill="#2b2b2b"/>
  <rect x="30" y="168" width="6" height="12" fill="#0d0d0d"/>
  <rect x="36" y="162" width="6" height="18" fill="#0d0d0d"/>
  <rect x="18" y="180" width="6" height="42" fill="#0d0d0d"/>
  <rect x="12" y="192" width="6" height="30" fill="#0d0d0d"/>
  <rect x="6" y="198" width="6" height="24" fill="#2b2b2b"/>

  <!-- ===== DISTANT HORIZON GLOW (orange near horizon behind volcano) ===== -->
  <rect x="0" y="210" width="186" height="12" fill="#5a0a0a" opacity="0.5"/>
  <rect x="444" y="210" width="186" height="12" fill="#5a0a0a" opacity="0.5"/>
  <rect x="186" y="210" width="258" height="12" fill="#a01010" opacity="0.3"/>

  <!-- ===== TITLE TEXT ===== -->
  <!-- Dark backing for title -->
  <rect x="12" y="430" width="324" height="54" fill="#0d0d0d" opacity="0.85"/>
  <rect x="18" y="436" width="312" height="42" fill="#2b2b2b" opacity="0.5"/>

  <!-- Title: VOLCANIC HIGHLANDS -->
  <text x="24" y="456" fill="#ffe040" font-size="22" font-family="monospace" font-weight="bold" letter-spacing="2">VOLCANIC HIGHLANDS</text>

  <!-- Descriptor -->
  <text x="24" y="472" fill="#f8a060" font-size="9" font-family="monospace" opacity="0.9">Where the earth bleeds fire and only the bold dare tread</text>

  <!-- ===== PIXELREALM WATERMARK (bottom-right, 30% opacity) ===== -->
  <text x="510" y="488" fill="#c8c8c8" font-size="11" font-family="monospace" opacity="0.3">PixelRealm</text>

</svg>